<svg width="80" height="92" viewBox="0 0 80 92" fill="none" xmlns="http://www.w3.org/2000/svg">
<g clip-path="url(#clip0_149_13)">
<mask id="path-1-outside-1_149_13" maskUnits="userSpaceOnUse" x="4" y="6" width="488" height="83" fill="black">
<rect fill="white" x="4" y="6" width="488" height="83"/>
<path d="M24.8 87V84H35.8C41.4667 84 46.6333 83.1 51.3 81.3C56.0333 79.4333 60.1333 76.8333 63.6 73.5C67.0667 70.1667 69.7333 66.2333 71.6 61.7C73.5333 57.1667 74.5 52.2 74.5 46.8C74.5 41.4 73.5333 36.4333 71.6 31.9C69.7333 27.3667 67.0667 23.4333 63.6 20.1C60.1333 16.7667 56.0333 14.2 51.3 12.4C46.6333 10.5333 41.4667 9.6 35.8 9.6H24.8V6.6H35.9C41.9667 6.6 47.5333 7.6 52.6 9.6C57.6667 11.6 62.0667 14.4 65.8 18C69.5333 21.6 72.4333 25.8333 74.5 30.7C76.5667 35.5667 77.6 40.9333 77.6 46.8C77.6 52.6667 76.5667 58.0667 74.5 63C72.4333 67.8667 69.5333 72.1 65.8 75.7C62.0667 79.3 57.6667 82.1 52.6 84.1C47.5333 86.0333 41.9667 87 35.9 87H24.8ZM18.2 87V6.6H21.2V87H18.2ZM5 87V6.6H8V87H5ZM11.6 87V6.6H14.6V87H11.6ZM24.8 80.4V77.4H35.8C42.1333 77.4 47.7 76.1 52.5 73.5C57.3 70.9 61.0667 67.3 63.8 62.7C66.5333 58.0333 67.9 52.7333 67.9 46.8C67.9 40.8 66.5333 35.5 63.8 30.9C61.0667 26.3 57.3 22.7 52.5 20.1C47.7 17.5 42.1333 16.2 35.8 16.2H24.8V13.2H35.9C42.7667 13.2 48.8333 14.6667 54.1 17.6C59.3667 20.4667 63.5 24.4333 66.5 29.5C69.5 34.5 71 40.2667 71 46.8C71 53.3333 69.5 59.1333 66.5 64.2C63.5 69.2667 59.3667 73.2333 54.1 76.1C48.8333 78.9667 42.7667 80.4 35.9 80.4H24.8ZM24.8 73.8V70.8H35.8C40.8667 70.8 45.3 69.8 49.1 67.8C52.9 65.8 55.8667 63 58 59.4C60.1333 55.7333 61.2 51.5333 61.2 46.8C61.2 42 60.1333 37.8 58 34.2C55.8667 30.6 52.9 27.8 49.1 25.8C45.3 23.8 40.8667 22.8 35.8 22.8H24.8V19.8H35.9C41.5 19.8 46.4333 20.9667 50.7 23.3C54.9667 25.5667 58.3 28.7333 60.7 32.8C63.1 36.8 64.3 41.4667 64.3 46.8C64.3 52.1333 63.1 56.8333 60.7 60.9C58.3 64.9667 54.9667 68.1333 50.7 70.4C46.4333 72.6667 41.5 73.8 35.9 73.8H24.8ZM105.366 87V84H116.366C122.033 84 127.2 83.1 131.866 81.3C136.6 79.4333 140.7 76.8333 144.166 73.5C147.633 70.1667 150.3 66.2333 152.166 61.7C154.1 57.1667 155.066 52.2 155.066 46.8C155.066 41.4 154.1 36.4333 152.166 31.9C150.3 27.3667 147.633 23.4333 144.166 20.1C140.7 16.7667 136.6 14.2 131.866 12.4C127.2 10.5333 122.033 9.6 116.366 9.6H105.366V6.6H116.466C122.533 6.6 128.1 7.6 133.166 9.6C138.233 11.6 142.633 14.4 146.366 18C150.1 21.6 153 25.8333 155.066 30.7C157.133 35.5667 158.166 40.9333 158.166 46.8C158.166 52.6667 157.133 58.0667 155.066 63C153 67.8667 150.1 72.1 146.366 75.7C142.633 79.3 138.233 82.1 133.166 84.1C128.1 86.0333 122.533 87 116.466 87H105.366ZM98.7664 87V6.6H101.766V87H98.7664ZM85.5664 87V6.6H88.5664V87H85.5664ZM92.1664 87V6.6H95.1664V87H92.1664ZM105.366 80.4V77.4H116.366C122.7 77.4 128.266 76.1 133.066 73.5C137.866 70.9 141.633 67.3 144.366 62.7C147.1 58.0333 148.466 52.7333 148.466 46.8C148.466 40.8 147.1 35.5 144.366 30.9C141.633 26.3 137.866 22.7 133.066 20.1C128.266 17.5 122.7 16.2 116.366 16.2H105.366V13.2H116.466C123.333 13.2 129.4 14.6667 134.666 17.6C139.933 20.4667 144.066 24.4333 147.066 29.5C150.066 34.5 151.566 40.2667 151.566 46.8C151.566 53.3333 150.066 59.1333 147.066 64.2C144.066 69.2667 139.933 73.2333 134.666 76.1C129.4 78.9667 123.333 80.4 116.466 80.4H105.366ZM105.366 73.8V70.8H116.366C121.433 70.8 125.866 69.8 129.666 67.8C133.466 65.8 136.433 63 138.566 59.4C140.7 55.7333 141.766 51.5333 141.766 46.8C141.766 42 140.7 37.8 138.566 34.2C136.433 30.6 133.466 27.8 129.666 25.8C125.866 23.8 121.433 22.8 116.366 22.8H105.366V19.8H116.466C122.066 19.8 127 20.9667 131.266 23.3C135.533 25.5667 138.866 28.7333 141.266 32.8C143.666 36.8 144.866 41.4667 144.866 46.8C144.866 52.1333 143.666 56.8333 141.266 60.9C138.866 64.9667 135.533 68.1333 131.266 70.4C127 72.6667 122.066 73.8 116.466 73.8H105.366ZM196.233 75.3C192.433 75.3 189.266 74.5333 186.733 73C184.266 71.4667 182.399 69.4333 181.133 66.9C179.933 64.3 179.333 61.4333 179.333 58.3V6.6H182.333V58.3C182.333 62.1667 183.433 65.4667 185.633 68.2C187.833 70.9333 191.366 72.3 196.233 72.3C201.099 72.3 204.633 70.9333 206.833 68.2C209.033 65.4667 210.133 62.1667 210.133 58.3V6.6H213.133V58.3C213.133 61.4333 212.499 64.3 211.233 66.9C210.033 69.4333 208.166 71.4667 205.633 73C203.166 74.5333 200.033 75.3 196.233 75.3ZM196.233 88.5C190.033 88.5 184.666 87.1667 180.133 84.5C175.666 81.7667 172.199 78.1 169.733 73.5C167.333 68.9 166.133 63.8333 166.133 58.3V6.6H169.133V58.3C169.133 63.3 170.199 67.8667 172.333 72C174.533 76.1333 177.633 79.4333 181.633 81.9C185.699 84.3 190.566 85.5 196.233 85.5C201.899 85.5 206.733 84.3 210.733 81.9C214.799 79.4333 217.899 76.1333 220.033 72C222.233 67.8667 223.333 63.3 223.333 58.3V6.6H226.333V58.3C226.333 63.8333 225.099 68.9 222.633 73.5C220.233 78.1 216.799 81.7667 212.333 84.5C207.866 87.1667 202.499 88.5 196.233 88.5ZM196.233 81.9C191.233 81.9 186.966 80.8333 183.433 78.7C179.966 76.5667 177.299 73.7333 175.433 70.2C173.633 66.6 172.733 62.6333 172.733 58.3V6.6H175.733V58.3C175.733 62.1 176.499 65.5667 178.033 68.7C179.633 71.7667 181.966 74.2333 185.033 76.1C188.099 77.9667 191.833 78.9 196.233 78.9C200.699 78.9 204.433 77.9667 207.433 76.1C210.499 74.2333 212.799 71.7667 214.333 68.7C215.933 65.5667 216.733 62.1 216.733 58.3V6.6H219.733V58.3C219.733 62.6333 218.799 66.6 216.933 70.2C215.133 73.7333 212.466 76.5667 208.933 78.7C205.466 80.8333 201.233 81.9 196.233 81.9ZM267.248 33.4L265.348 30.9L282.948 6.6H286.648L267.248 33.4ZM271.448 38.8L269.548 36.3L291.148 6.6H294.848L271.448 38.8ZM275.648 44.2L273.748 41.7L299.348 6.6H303.048L275.648 44.2ZM249.548 87V6.6H252.548V87H249.548ZM236.348 87V6.6H239.348V87H236.348ZM242.948 87V6.6H245.948V87H242.948ZM300.248 87L261.248 36.5L263.148 34L304.048 87H300.248ZM291.948 87L257.248 42.1L259.148 39.5L295.748 87H291.948ZM283.548 87L253.248 47.7L255.048 45.2L287.348 87H283.548Z"/>
<path d="M312.447 87V14.2727H359.748V25.3168H325.621V45.0611H357.298V56.1051H325.621V75.956H360.032V87H312.447ZM373.189 87V14.2727H400.462C406.049 14.2727 410.736 15.2434 414.524 17.1847C418.336 19.1259 421.212 21.8485 423.153 25.3523C425.118 28.8324 426.101 32.8925 426.101 37.5327C426.101 42.1965 425.107 46.2448 423.118 49.6776C421.153 53.0866 418.253 55.7263 414.418 57.5966C410.582 59.4432 405.871 60.3665 400.284 60.3665H380.859V49.429H398.509C401.776 49.429 404.451 48.9792 406.534 48.0795C408.617 47.1562 410.156 45.8187 411.151 44.0668C412.169 42.2912 412.678 40.1132 412.678 37.5327C412.678 34.9522 412.169 32.7505 411.151 30.9276C410.133 29.081 408.582 27.6842 406.499 26.7372C404.415 25.7666 401.728 25.2812 398.438 25.2812H386.364V87H373.189ZM410.76 54.0455L428.764 87H414.062L396.378 54.0455H410.76ZM438.228 87V14.2727H465.501C471.088 14.2727 475.775 15.3144 479.563 17.3977C483.375 19.4811 486.251 22.3456 488.192 25.9915C490.157 29.6136 491.14 33.733 491.14 38.3494C491.14 43.0133 490.157 47.1562 488.192 50.7784C486.228 54.4006 483.327 57.2533 479.492 59.3366C475.657 61.3963 470.934 62.4261 465.323 62.4261H447.248V51.5952H463.548C466.815 51.5952 469.49 51.027 471.573 49.8906C473.656 48.7543 475.195 47.1918 476.19 45.2031C477.208 43.2145 477.717 40.9299 477.717 38.3494C477.717 35.7689 477.208 33.4962 476.19 31.5312C475.195 29.5663 473.645 28.0393 471.538 26.9503C469.454 25.8376 466.767 25.2812 463.477 25.2812H451.403V87H438.228Z"/>
</mask>
<path d="M24.8 87V84H35.8C41.4667 84 46.6333 83.1 51.3 81.3C56.0333 79.4333 60.1333 76.8333 63.6 73.5C67.0667 70.1667 69.7333 66.2333 71.6 61.7C73.5333 57.1667 74.5 52.2 74.5 46.8C74.5 41.4 73.5333 36.4333 71.6 31.9C69.7333 27.3667 67.0667 23.4333 63.6 20.1C60.1333 16.7667 56.0333 14.2 51.3 12.4C46.6333 10.5333 41.4667 9.6 35.8 9.6H24.8V6.6H35.9C41.9667 6.6 47.5333 7.6 52.6 9.6C57.6667 11.6 62.0667 14.4 65.8 18C69.5333 21.6 72.4333 25.8333 74.5 30.7C76.5667 35.5667 77.6 40.9333 77.6 46.8C77.6 52.6667 76.5667 58.0667 74.5 63C72.4333 67.8667 69.5333 72.1 65.8 75.7C62.0667 79.3 57.6667 82.1 52.6 84.1C47.5333 86.0333 41.9667 87 35.9 87H24.8ZM18.2 87V6.6H21.2V87H18.2ZM5 87V6.6H8V87H5ZM11.6 87V6.6H14.6V87H11.6ZM24.8 80.4V77.4H35.8C42.1333 77.4 47.7 76.1 52.5 73.5C57.3 70.9 61.0667 67.3 63.8 62.7C66.5333 58.0333 67.9 52.7333 67.9 46.8C67.9 40.8 66.5333 35.5 63.8 30.9C61.0667 26.3 57.3 22.7 52.5 20.1C47.7 17.5 42.1333 16.2 35.8 16.2H24.8V13.2H35.9C42.7667 13.2 48.8333 14.6667 54.1 17.6C59.3667 20.4667 63.5 24.4333 66.5 29.5C69.5 34.5 71 40.2667 71 46.8C71 53.3333 69.5 59.1333 66.5 64.2C63.5 69.2667 59.3667 73.2333 54.1 76.1C48.8333 78.9667 42.7667 80.4 35.9 80.4H24.8ZM24.8 73.8V70.8H35.8C40.8667 70.8 45.3 69.8 49.1 67.8C52.9 65.8 55.8667 63 58 59.4C60.1333 55.7333 61.2 51.5333 61.2 46.8C61.2 42 60.1333 37.8 58 34.2C55.8667 30.6 52.9 27.8 49.1 25.8C45.3 23.8 40.8667 22.8 35.8 22.8H24.8V19.8H35.9C41.5 19.8 46.4333 20.9667 50.7 23.3C54.9667 25.5667 58.3 28.7333 60.7 32.8C63.1 36.8 64.3 41.4667 64.3 46.8C64.3 52.1333 63.1 56.8333 60.7 60.9C58.3 64.9667 54.9667 68.1333 50.7 70.4C46.4333 72.6667 41.5 73.8 35.9 73.8H24.8ZM105.366 87V84H116.366C122.033 84 127.2 83.1 131.866 81.3C136.6 79.4333 140.7 76.8333 144.166 73.5C147.633 70.1667 150.3 66.2333 152.166 61.7C154.1 57.1667 155.066 52.2 155.066 46.8C155.066 41.4 154.1 36.4333 152.166 31.9C150.3 27.3667 147.633 23.4333 144.166 20.1C140.7 16.7667 136.6 14.2 131.866 12.4C127.2 10.5333 122.033 9.6 116.366 9.6H105.366V6.6H116.466C122.533 6.6 128.1 7.6 133.166 9.6C138.233 11.6 142.633 14.4 146.366 18C150.1 21.6 153 25.8333 155.066 30.7C157.133 35.5667 158.166 40.9333 158.166 46.8C158.166 52.6667 157.133 58.0667 155.066 63C153 67.8667 150.1 72.1 146.366 75.7C142.633 79.3 138.233 82.1 133.166 84.1C128.1 86.0333 122.533 87 116.466 87H105.366ZM98.7664 87V6.6H101.766V87H98.7664ZM85.5664 87V6.6H88.5664V87H85.5664ZM92.1664 87V6.6H95.1664V87H92.1664ZM105.366 80.4V77.4H116.366C122.7 77.4 128.266 76.1 133.066 73.5C137.866 70.9 141.633 67.3 144.366 62.7C147.1 58.0333 148.466 52.7333 148.466 46.8C148.466 40.8 147.1 35.5 144.366 30.9C141.633 26.3 137.866 22.7 133.066 20.1C128.266 17.5 122.7 16.2 116.366 16.2H105.366V13.2H116.466C123.333 13.2 129.4 14.6667 134.666 17.6C139.933 20.4667 144.066 24.4333 147.066 29.5C150.066 34.5 151.566 40.2667 151.566 46.8C151.566 53.3333 150.066 59.1333 147.066 64.2C144.066 69.2667 139.933 73.2333 134.666 76.1C129.4 78.9667 123.333 80.4 116.466 80.4H105.366ZM105.366 73.8V70.8H116.366C121.433 70.8 125.866 69.8 129.666 67.8C133.466 65.8 136.433 63 138.566 59.4C140.7 55.7333 141.766 51.5333 141.766 46.8C141.766 42 140.7 37.8 138.566 34.2C136.433 30.6 133.466 27.8 129.666 25.8C125.866 23.8 121.433 22.8 116.366 22.8H105.366V19.8H116.466C122.066 19.8 127 20.9667 131.266 23.3C135.533 25.5667 138.866 28.7333 141.266 32.8C143.666 36.8 144.866 41.4667 144.866 46.8C144.866 52.1333 143.666 56.8333 141.266 60.9C138.866 64.9667 135.533 68.1333 131.266 70.4C127 72.6667 122.066 73.8 116.466 73.8H105.366ZM196.233 75.3C192.433 75.3 189.266 74.5333 186.733 73C184.266 71.4667 182.399 69.4333 181.133 66.9C179.933 64.3 179.333 61.4333 179.333 58.3V6.6H182.333V58.3C182.333 62.1667 183.433 65.4667 185.633 68.2C187.833 70.9333 191.366 72.3 196.233 72.3C201.099 72.3 204.633 70.9333 206.833 68.2C209.033 65.4667 210.133 62.1667 210.133 58.3V6.6H213.133V58.3C213.133 61.4333 212.499 64.3 211.233 66.9C210.033 69.4333 208.166 71.4667 205.633 73C203.166 74.5333 200.033 75.3 196.233 75.3ZM196.233 88.5C190.033 88.5 184.666 87.1667 180.133 84.5C175.666 81.7667 172.199 78.1 169.733 73.5C167.333 68.9 166.133 63.8333 166.133 58.3V6.6H169.133V58.3C169.133 63.3 170.199 67.8667 172.333 72C174.533 76.1333 177.633 79.4333 181.633 81.9C185.699 84.3 190.566 85.5 196.233 85.5C201.899 85.5 206.733 84.3 210.733 81.9C214.799 79.4333 217.899 76.1333 220.033 72C222.233 67.8667 223.333 63.3 223.333 58.3V6.6H226.333V58.3C226.333 63.8333 225.099 68.9 222.633 73.5C220.233 78.1 216.799 81.7667 212.333 84.5C207.866 87.1667 202.499 88.5 196.233 88.5ZM196.233 81.9C191.233 81.9 186.966 80.8333 183.433 78.7C179.966 76.5667 177.299 73.7333 175.433 70.2C173.633 66.6 172.733 62.6333 172.733 58.3V6.6H175.733V58.3C175.733 62.1 176.499 65.5667 178.033 68.7C179.633 71.7667 181.966 74.2333 185.033 76.1C188.099 77.9667 191.833 78.9 196.233 78.9C200.699 78.9 204.433 77.9667 207.433 76.1C210.499 74.2333 212.799 71.7667 214.333 68.7C215.933 65.5667 216.733 62.1 216.733 58.3V6.6H219.733V58.3C219.733 62.6333 218.799 66.6 216.933 70.2C215.133 73.7333 212.466 76.5667 208.933 78.7C205.466 80.8333 201.233 81.9 196.233 81.9ZM267.248 33.4L265.348 30.9L282.948 6.6H286.648L267.248 33.4ZM271.448 38.8L269.548 36.3L291.148 6.6H294.848L271.448 38.8ZM275.648 44.2L273.748 41.7L299.348 6.6H303.048L275.648 44.2ZM249.548 87V6.6H252.548V87H249.548ZM236.348 87V6.6H239.348V87H236.348ZM242.948 87V6.6H245.948V87H242.948ZM300.248 87L261.248 36.5L263.148 34L304.048 87H300.248ZM291.948 87L257.248 42.1L259.148 39.5L295.748 87H291.948ZM283.548 87L253.248 47.7L255.048 45.2L287.348 87H283.548Z" fill="#570808"/>
<path d="M312.447 87V14.2727H359.748V25.3168H325.621V45.0611H357.298V56.1051H325.621V75.956H360.032V87H312.447ZM373.189 87V14.2727H400.462C406.049 14.2727 410.736 15.2434 414.524 17.1847C418.336 19.1259 421.212 21.8485 423.153 25.3523C425.118 28.8324 426.101 32.8925 426.101 37.5327C426.101 42.1965 425.107 46.2448 423.118 49.6776C421.153 53.0866 418.253 55.7263 414.418 57.5966C410.582 59.4432 405.871 60.3665 400.284 60.3665H380.859V49.429H398.509C401.776 49.429 404.451 48.9792 406.534 48.0795C408.617 47.1562 410.156 45.8187 411.151 44.0668C412.169 42.2912 412.678 40.1132 412.678 37.5327C412.678 34.9522 412.169 32.7505 411.151 30.9276C410.133 29.081 408.582 27.6842 406.499 26.7372C404.415 25.7666 401.728 25.2812 398.438 25.2812H386.364V87H373.189ZM410.76 54.0455L428.764 87H414.062L396.378 54.0455H410.76ZM438.228 87V14.2727H465.501C471.088 14.2727 475.775 15.3144 479.563 17.3977C483.375 19.4811 486.251 22.3456 488.192 25.9915C490.157 29.6136 491.14 33.733 491.14 38.3494C491.14 43.0133 490.157 47.1562 488.192 50.7784C486.228 54.4006 483.327 57.2533 479.492 59.3366C475.657 61.3963 470.934 62.4261 465.323 62.4261H447.248V51.5952H463.548C466.815 51.5952 469.49 51.027 471.573 49.8906C473.656 48.7543 475.195 47.1918 476.19 45.2031C477.208 43.2145 477.717 40.9299 477.717 38.3494C477.717 35.7689 477.208 33.4962 476.19 31.5312C475.195 29.5663 473.645 28.0393 471.538 26.9503C469.454 25.8376 466.767 25.2812 463.477 25.2812H451.403V87H438.228Z" fill="#8B3A3A"/>
<path d="M24.8 87H24.3V87.5H24.8V87ZM24.8 84V83.5H24.3V84H24.8ZM51.3 81.3L51.4799 81.7665L51.4834 81.7651L51.3 81.3ZM63.6 73.5L63.2534 73.1396V73.1396L63.6 73.5ZM71.6 61.7L71.14 61.5038L71.1377 61.5096L71.6 61.7ZM71.6 31.9L71.1376 32.0904L71.1401 32.0961L71.6 31.9ZM63.6 20.1L63.9466 19.7396L63.6 20.1ZM51.3 12.4L51.1143 12.8643L51.1223 12.8673L51.3 12.4ZM24.8 9.6H24.3V10.1H24.8V9.6ZM24.8 6.6V6.1H24.3V6.6H24.8ZM52.6 9.6L52.7836 9.13492V9.13492L52.6 9.6ZM65.8 18L66.1471 17.6401V17.6401L65.8 18ZM74.5 30.7L74.9602 30.5046V30.5046L74.5 30.7ZM74.5 63L74.9602 63.1954L74.9612 63.1932L74.5 63ZM65.8 75.7L66.1471 76.0599V76.0599L65.8 75.7ZM52.6 84.1L52.7783 84.5672L52.7836 84.5651L52.6 84.1ZM18.2 87H17.7V87.5H18.2V87ZM18.2 6.6V6.1H17.7V6.6H18.2ZM21.2 6.6H21.7V6.1H21.2V6.6ZM21.2 87V87.5H21.7V87H21.2ZM5 87H4.5V87.5H5V87ZM5 6.6V6.1H4.5V6.6H5ZM8 6.6H8.5V6.1H8V6.6ZM8 87V87.5H8.5V87H8ZM11.6 87H11.1V87.5H11.6V87ZM11.6 6.6V6.1H11.1V6.6H11.6ZM14.6 6.6H15.1V6.1H14.6V6.6ZM14.6 87V87.5H15.1V87H14.6ZM24.8 80.4H24.3V80.9H24.8V80.4ZM24.8 77.4V76.9H24.3V77.4H24.8ZM52.5 73.5L52.7381 73.9396V73.9396L52.5 73.5ZM63.8 62.7L64.2299 62.9554L64.2314 62.9527L63.8 62.7ZM63.8 30.9L64.2298 30.6446V30.6446L63.8 30.9ZM52.5 20.1L52.7381 19.6604V19.6604L52.5 20.1ZM24.8 16.2H24.3V16.7H24.8V16.2ZM24.8 13.2V12.7H24.3V13.2H24.8ZM54.1 17.6L53.8567 18.0368L53.861 18.0392L54.1 17.6ZM66.5 29.5L66.0698 29.7547L66.0713 29.7572L66.5 29.5ZM66.5 64.2L66.9302 64.4547L66.5 64.2ZM54.1 76.1L53.861 75.6608L54.1 76.1ZM24.8 73.8H24.3V74.3H24.8V73.8ZM24.8 70.8V70.3H24.3V70.8H24.8ZM49.1 67.8L49.3329 68.2425V68.2425L49.1 67.8ZM58 59.4L58.4302 59.6549L58.4322 59.6514L58 59.4ZM58 34.2L57.5699 34.4549V34.4549L58 34.2ZM49.1 25.8L49.3329 25.3575V25.3575L49.1 25.8ZM24.8 22.8H24.3V23.3H24.8V22.8ZM24.8 19.8V19.3H24.3V19.8H24.8ZM50.7 23.3L50.4601 23.7387L50.4654 23.7416L50.7 23.3ZM60.7 32.8L60.2694 33.0541L60.2713 33.0572L60.7 32.8ZM60.7 60.9L61.1306 61.1541V61.1541L60.7 60.9ZM50.7 70.4L50.4654 69.9584V69.9584L50.7 70.4ZM24.8 87H25.3V84H24.8H24.3V87H24.8ZM24.8 84V84.5H35.8V84V83.5H24.8V84ZM35.8 84V84.5C41.5201 84.5 46.7488 83.5914 51.4799 81.7665L51.3 81.3L51.1201 80.8335C46.5179 82.6086 41.4133 83.5 35.8 83.5V84ZM51.3 81.3L51.4834 81.7651C56.2739 79.8759 60.4302 77.2415 63.9466 73.8604L63.6 73.5L63.2534 73.1396C59.8365 76.4251 55.7928 78.9907 51.1166 80.8349L51.3 81.3ZM63.6 73.5L63.9466 73.8604C67.4642 70.4781 70.1698 66.4865 72.0623 61.8904L71.6 61.7L71.1377 61.5096C69.2969 65.9801 66.6692 69.8552 63.2534 73.1396L63.6 73.5ZM71.6 61.7L72.0599 61.8961C74.0221 57.2951 75 52.2609 75 46.8H74.5H74C74 52.1391 73.0445 57.0382 71.1401 61.5039L71.6 61.7ZM74.5 46.8H75C75 41.3391 74.0221 36.3049 72.0599 31.7039L71.6 31.9L71.1401 32.0961C73.0445 36.5618 74 41.4609 74 46.8H74.5ZM71.6 31.9L72.0623 31.7096C70.1698 27.1135 67.4642 23.1219 63.9466 19.7396L63.6 20.1L63.2534 20.4604C66.6692 23.7448 69.2969 27.6199 71.1377 32.0904L71.6 31.9ZM63.6 20.1L63.9466 19.7396C60.4288 16.3572 56.2706 13.7553 51.4777 11.9326L51.3 12.4L51.1223 12.8673C55.7961 14.6447 59.8378 17.1762 63.2534 20.4604L63.6 20.1ZM51.3 12.4L51.4857 11.9358C46.7529 10.0426 41.5222 9.1 35.8 9.1V9.6V10.1C41.4111 10.1 46.5138 11.024 51.1143 12.8642L51.3 12.4ZM35.8 9.6V9.1H24.8V9.6V10.1H35.8V9.6ZM24.8 9.6H25.3V6.6H24.8H24.3V9.6H24.8ZM24.8 6.6V7.1H35.9V6.6V6.1H24.8V6.6ZM35.9 6.6V7.1C41.911 7.1 47.4145 8.09063 52.4164 10.0651L52.6 9.6L52.7836 9.13492C47.6522 7.10936 42.0224 6.1 35.9 6.1V6.6ZM52.6 9.6L52.4164 10.0651C57.4254 12.0423 61.769 14.8076 65.4529 18.3599L65.8 18L66.1471 17.6401C62.3643 13.9924 57.908 11.1577 52.7836 9.13492L52.6 9.6ZM65.8 18L65.4529 18.3599C69.1369 21.9123 71.9989 26.0894 74.0398 30.8954L74.5 30.7L74.9602 30.5046C72.8678 25.5773 69.9298 21.2877 66.1471 17.6401L65.8 18ZM74.5 30.7L74.0398 30.8954C76.0775 35.6938 77.1 40.9931 77.1 46.8H77.6H78.1C78.1 40.8736 77.0559 35.4395 74.9602 30.5046L74.5 30.7ZM77.6 46.8H77.1C77.1 52.6068 76.0775 57.9403 74.0388 62.8068L74.5 63L74.9612 63.1932C77.0559 58.193 78.1 52.7265 78.1 46.8H77.6ZM74.5 63L74.0398 62.8046C71.9989 67.6106 69.1369 71.7877 65.4529 75.3401L65.8 75.7L66.1471 76.0599C69.9298 72.4123 72.8678 68.1227 74.9602 63.1954L74.5 63ZM65.8 75.7L65.4529 75.3401C61.769 78.8924 57.4254 81.6577 52.4164 83.6349L52.6 84.1L52.7836 84.5651C57.908 82.5423 62.3643 79.7076 66.1471 76.0599L65.8 75.7ZM52.6 84.1L52.4217 83.6329C47.4184 85.542 41.9129 86.5 35.9 86.5V87V87.5C42.0204 87.5 47.6483 86.5246 52.7783 84.5671L52.6 84.1ZM35.9 87V86.5H24.8V87V87.5H35.9V87ZM18.2 87H18.7V6.6H18.2H17.7V87H18.2ZM18.2 6.6V7.1H21.2V6.6V6.1H18.2V6.6ZM21.2 6.6H20.7V87H21.2H21.7V6.6H21.2ZM21.2 87V86.5H18.2V87V87.5H21.2V87ZM5 87H5.5V6.6H5H4.5V87H5ZM5 6.6V7.1H8V6.6V6.1H5V6.6ZM8 6.6H7.5V87H8H8.5V6.6H8ZM8 87V86.5H5V87V87.5H8V87ZM11.6 87H12.1V6.6H11.6H11.1V87H11.6ZM11.6 6.6V7.1H14.6V6.6V6.1H11.6V6.6ZM14.6 6.6H14.1V87H14.6H15.1V6.6H14.6ZM14.6 87V86.5H11.6V87V87.5H14.6V87ZM24.8 80.4H25.3V77.4H24.8H24.3V80.4H24.8ZM24.8 77.4V77.9H35.8V77.4V76.9H24.8V77.4ZM35.8 77.4V77.9C42.2031 77.9 47.8541 76.5852 52.7381 73.9396L52.5 73.5L52.2619 73.0604C47.5459 75.6148 42.0636 76.9 35.8 76.9V77.4ZM52.5 73.5L52.7381 73.9396C57.6158 71.2976 61.4494 67.6346 64.2298 62.9554L63.8 62.7L63.3702 62.4446C60.6839 66.9654 56.9842 70.5024 52.2619 73.0604L52.5 73.5ZM63.8 62.7L64.2314 62.9527C67.014 58.2021 68.4 52.8133 68.4 46.8H67.9H67.4C67.4 52.6534 66.0527 57.8646 63.3686 62.4473L63.8 62.7ZM67.9 46.8H68.4C68.4 40.7213 67.0145 35.3309 64.2298 30.6446L63.8 30.9L63.3702 31.1554C66.0522 35.6691 67.4 40.8787 67.4 46.8H67.9ZM63.8 30.9L64.2298 30.6446C61.4494 25.9654 57.6158 22.3024 52.7381 19.6604L52.5 20.1L52.2619 20.5396C56.9842 23.0976 60.6839 26.6346 63.3702 31.1554L63.8 30.9ZM52.5 20.1L52.7381 19.6604C47.8541 17.0148 42.2031 15.7 35.8 15.7V16.2V16.7C42.0636 16.7 47.5459 17.9852 52.2619 20.5396L52.5 20.1ZM35.8 16.2V15.7H24.8V16.2V16.7H35.8V16.2ZM24.8 16.2H25.3V13.2H24.8H24.3V16.2H24.8ZM24.8 13.2V13.7H35.9V13.2V12.7H24.8V13.2ZM35.9 13.2V13.7C42.6935 13.7 48.6743 15.1504 53.8567 18.0368L54.1 17.6L54.3433 17.1632C48.9924 14.1829 42.8398 12.7 35.9 12.7V13.2ZM54.1 17.6L53.861 18.0392C59.05 20.8635 63.1166 24.7671 66.0698 29.7547L66.5 29.5L66.9302 29.2453C63.8834 24.0995 59.6834 20.0698 54.339 17.1608L54.1 17.6ZM66.5 29.5L66.0713 29.7572C69.0192 34.6705 70.5 40.3461 70.5 46.8H71H71.5C71.5 40.1872 69.9808 34.3295 66.9287 29.2427L66.5 29.5ZM71 46.8H70.5C70.5 53.2538 69.0192 58.964 66.0698 63.9453L66.5 64.2L66.9302 64.4547C69.9808 59.3027 71.5 53.4129 71.5 46.8H71ZM66.5 64.2L66.0698 63.9453C63.1166 68.9328 59.05 72.8364 53.861 75.6608L54.1 76.1L54.339 76.5392C59.6834 73.6302 63.8834 69.6005 66.9302 64.4547L66.5 64.2ZM54.1 76.1L53.861 75.6608C48.6777 78.4821 42.6954 79.9 35.9 79.9V80.4V80.9C42.8379 80.9 48.989 79.4512 54.339 76.5392L54.1 76.1ZM35.9 80.4V79.9H24.8V80.4V80.9H35.9V80.4ZM24.8 73.8H25.3V70.8H24.8H24.3V73.8H24.8ZM24.8 70.8V71.3H35.8V70.8V70.3H24.8V70.8ZM35.8 70.8V71.3C40.9332 71.3 45.4492 70.2865 49.3329 68.2425L49.1 67.8L48.8671 67.3575C45.1508 69.3135 40.8001 70.3 35.8 70.3V70.8ZM49.1 67.8L49.3329 68.2425C53.2125 66.2006 56.2484 63.3366 58.4301 59.6549L58 59.4L57.5699 59.1451C55.485 62.6634 52.5875 65.3994 48.8671 67.3575L49.1 67.8ZM58 59.4L58.4322 59.6514C60.6149 55.8999 61.7 51.6112 61.7 46.8H61.2H60.7C60.7 51.4555 59.6518 55.5668 57.5678 59.1486L58 59.4ZM61.2 46.8H61.7C61.7 41.9237 60.6156 37.633 58.4301 33.9451L58 34.2L57.5699 34.4549C59.6511 37.967 60.7 42.0763 60.7 46.8H61.2ZM58 34.2L58.4301 33.9451C56.2484 30.2634 53.2125 27.3994 49.3329 25.3575L49.1 25.8L48.8671 26.2425C52.5875 28.2006 55.485 30.9366 57.5699 34.4549L58 34.2ZM49.1 25.8L49.3329 25.3575C45.4492 23.3135 40.9332 22.3 35.8 22.3V22.8V23.3C40.8001 23.3 45.1508 24.2865 48.8671 26.2425L49.1 25.8ZM35.8 22.8V22.3H24.8V22.8V23.3H35.8V22.8ZM24.8 22.8H25.3V19.8H24.8H24.3V22.8H24.8ZM24.8 19.8V20.3H35.9V19.8V19.3H24.8V19.8ZM35.9 19.8V20.3C41.429 20.3 46.2775 21.4513 50.4601 23.7387L50.7 23.3L50.9399 22.8613C46.5892 20.482 41.571 19.3 35.9 19.3V19.8ZM50.7 23.3L50.4654 23.7416C54.6527 25.966 57.9174 29.0687 60.2694 33.0541L60.7 32.8L61.1306 32.5459C58.6827 28.3979 55.2806 25.1673 50.9346 22.8584L50.7 23.3ZM60.7 32.8L60.2713 33.0572C62.6183 36.9689 63.8 41.544 63.8 46.8H64.3H64.8C64.8 41.3893 63.5817 36.6311 61.1288 32.5427L60.7 32.8ZM64.3 46.8H63.8C63.8 52.0558 62.6183 56.6658 60.2694 60.6459L60.7 60.9L61.1306 61.1541C63.5817 57.0009 64.8 52.2109 64.8 46.8H64.3ZM60.7 60.9L60.2694 60.6459C57.9174 64.6313 54.6527 67.7339 50.4654 69.9584L50.7 70.4L50.9346 70.8416C55.2806 68.5327 58.6827 65.302 61.1306 61.1541L60.7 60.9ZM50.7 70.4L50.4654 69.9584C46.2817 72.181 41.4313 73.3 35.9 73.3V73.8V74.3C41.5687 74.3 46.585 73.1523 50.9346 70.8416L50.7 70.4ZM35.9 73.8V73.3H24.8V73.8V74.3H35.9V73.8ZM105.366 87H104.866V87.5H105.366V87ZM105.366 84V83.5H104.866V84H105.366ZM131.866 81.3L132.046 81.7665L132.05 81.7651L131.866 81.3ZM144.166 73.5L143.82 73.1396V73.1396L144.166 73.5ZM152.166 61.7L151.706 61.5038L151.704 61.5096L152.166 61.7ZM152.166 31.9L151.704 32.0904L151.706 32.0961L152.166 31.9ZM144.166 20.1L144.513 19.7396L144.166 20.1ZM131.866 12.4L131.681 12.8643L131.689 12.8673L131.866 12.4ZM105.366 9.6H104.866V10.1H105.366V9.6ZM105.366 6.6V6.1H104.866V6.6H105.366ZM133.166 9.6L133.35 9.13492V9.13492L133.166 9.6ZM146.366 18L146.713 17.6401V17.6401L146.366 18ZM155.066 30.7L155.527 30.5046V30.5046L155.066 30.7ZM155.066 63L155.527 63.1954L155.528 63.1932L155.066 63ZM146.366 75.7L146.713 76.0599V76.0599L146.366 75.7ZM133.166 84.1L133.345 84.5672L133.35 84.5651L133.166 84.1ZM98.7664 87H98.2664V87.5H98.7664V87ZM98.7664 6.6V6.1H98.2664V6.6H98.7664ZM101.766 6.6H102.266V6.1H101.766V6.6ZM101.766 87V87.5H102.266V87H101.766ZM85.5664 87H85.0664V87.5H85.5664V87ZM85.5664 6.6V6.1H85.0664V6.6H85.5664ZM88.5664 6.6H89.0664V6.1H88.5664V6.6ZM88.5664 87V87.5H89.0664V87H88.5664ZM92.1664 87H91.6664V87.5H92.1664V87ZM92.1664 6.6V6.1H91.6664V6.6H92.1664ZM95.1664 6.6H95.6664V6.1H95.1664V6.6ZM95.1664 87V87.5H95.6664V87H95.1664ZM105.366 80.4H104.866V80.9H105.366V80.4ZM105.366 77.4V76.9H104.866V77.4H105.366ZM133.066 73.5L133.305 73.9396V73.9396L133.066 73.5ZM144.366 62.7L144.796 62.9554L144.798 62.9527L144.366 62.7ZM144.366 30.9L144.796 30.6446V30.6446L144.366 30.9ZM133.066 20.1L133.305 19.6604V19.6604L133.066 20.1ZM105.366 16.2H104.866V16.7H105.366V16.2ZM105.366 13.2V12.7H104.866V13.2H105.366ZM134.666 17.6L134.423 18.0368L134.427 18.0392L134.666 17.6ZM147.066 29.5L146.636 29.7547L146.638 29.7572L147.066 29.5ZM147.066 64.2L147.497 64.4547L147.066 64.2ZM134.666 76.1L134.427 75.6608L134.666 76.1ZM105.366 73.8H104.866V74.3H105.366V73.8ZM105.366 70.8V70.3H104.866V70.8H105.366ZM129.666 67.8L129.899 68.2425V68.2425L129.666 67.8ZM138.566 59.4L138.997 59.6549L138.999 59.6514L138.566 59.4ZM138.566 34.2L138.136 34.4549V34.4549L138.566 34.2ZM129.666 25.8L129.899 25.3575V25.3575L129.666 25.8ZM105.366 22.8H104.866V23.3H105.366V22.8ZM105.366 19.8V19.3H104.866V19.8H105.366ZM131.266 23.3L131.026 23.7387L131.032 23.7416L131.266 23.3ZM141.266 32.8L140.836 33.0541L140.838 33.0572L141.266 32.8ZM141.266 60.9L141.697 61.1541V61.1541L141.266 60.9ZM131.266 70.4L131.032 69.9584V69.9584L131.266 70.4ZM105.366 87H105.866V84H105.366H104.866V87H105.366ZM105.366 84V84.5H116.366V84V83.5H105.366V84ZM116.366 84V84.5C122.086 84.5 127.315 83.5914 132.046 81.7665L131.866 81.3L131.686 80.8335C127.084 82.6086 121.98 83.5 116.366 83.5V84ZM131.866 81.3L132.05 81.7651C136.84 79.8759 140.997 77.2415 144.513 73.8604L144.166 73.5L143.82 73.1396C140.403 76.4251 136.359 78.9907 131.683 80.8349L131.866 81.3ZM144.166 73.5L144.513 73.8604C148.031 70.4781 150.736 66.4865 152.629 61.8904L152.166 61.7L151.704 61.5096C149.863 65.9801 147.236 69.8552 143.82 73.1396L144.166 73.5ZM152.166 61.7L152.626 61.8961C154.589 57.2951 155.566 52.2609 155.566 46.8H155.066H154.566C154.566 52.1391 153.611 57.0382 151.706 61.5039L152.166 61.7ZM155.066 46.8H155.566C155.566 41.3391 154.589 36.3049 152.626 31.7039L152.166 31.9L151.706 32.0961C153.611 36.5618 154.566 41.4609 154.566 46.8H155.066ZM152.166 31.9L152.629 31.7096C150.736 27.1135 148.031 23.1219 144.513 19.7396L144.166 20.1L143.82 20.4604C147.236 23.7448 149.863 27.6199 151.704 32.0904L152.166 31.9ZM144.166 20.1L144.513 19.7396C140.995 16.3572 136.837 13.7553 132.044 11.9326L131.866 12.4L131.689 12.8673C136.363 14.6447 140.404 17.1762 143.82 20.4604L144.166 20.1ZM131.866 12.4L132.052 11.9358C127.319 10.0426 122.089 9.1 116.366 9.1V9.6V10.1C121.978 10.1 127.08 11.024 131.681 12.8642L131.866 12.4ZM116.366 9.6V9.1H105.366V9.6V10.1H116.366V9.6ZM105.366 9.6H105.866V6.6H105.366H104.866V9.6H105.366ZM105.366 6.6V7.1H116.466V6.6V6.1H105.366V6.6ZM116.466 6.6V7.1C122.477 7.1 127.981 8.09063 132.983 10.0651L133.166 9.6L133.35 9.13492C128.219 7.10936 122.589 6.1 116.466 6.1V6.6ZM133.166 9.6L132.983 10.0651C137.992 12.0423 142.335 14.8076 146.019 18.3599L146.366 18L146.713 17.6401C142.931 13.9924 138.474 11.1577 133.35 9.13492L133.166 9.6ZM146.366 18L146.019 18.3599C149.703 21.9123 152.565 26.0894 154.606 30.8954L155.066 30.7L155.527 30.5046C153.434 25.5773 150.496 21.2877 146.713 17.6401L146.366 18ZM155.066 30.7L154.606 30.8954C156.644 35.6938 157.666 40.9931 157.666 46.8H158.166H158.666C158.666 40.8736 157.622 35.4395 155.527 30.5046L155.066 30.7ZM158.166 46.8H157.666C157.666 52.6068 156.644 57.9403 154.605 62.8068L155.066 63L155.528 63.1932C157.622 58.193 158.666 52.7265 158.666 46.8H158.166ZM155.066 63L154.606 62.8046C152.565 67.6106 149.703 71.7877 146.019 75.3401L146.366 75.7L146.713 76.0599C150.496 72.4123 153.434 68.1227 155.527 63.1954L155.066 63ZM146.366 75.7L146.019 75.3401C142.335 78.8924 137.992 81.6577 132.983 83.6349L133.166 84.1L133.35 84.5651C138.474 82.5423 142.931 79.7076 146.713 76.0599L146.366 75.7ZM133.166 84.1L132.988 83.6329C127.985 85.542 122.479 86.5 116.466 86.5V87V87.5C122.587 87.5 128.215 86.5246 133.345 84.5671L133.166 84.1ZM116.466 87V86.5H105.366V87V87.5H116.466V87ZM98.7664 87H99.2664V6.6H98.7664H98.2664V87H98.7664ZM98.7664 6.6V7.1H101.766V6.6V6.1H98.7664V6.6ZM101.766 6.6H101.266V87H101.766H102.266V6.6H101.766ZM101.766 87V86.5H98.7664V87V87.5H101.766V87ZM85.5664 87H86.0664V6.6H85.5664H85.0664V87H85.5664ZM85.5664 6.6V7.1H88.5664V6.6V6.1H85.5664V6.6ZM88.5664 6.6H88.0664V87H88.5664H89.0664V6.6H88.5664ZM88.5664 87V86.5H85.5664V87V87.5H88.5664V87ZM92.1664 87H92.6664V6.6H92.1664H91.6664V87H92.1664ZM92.1664 6.6V7.1H95.1664V6.6V6.1H92.1664V6.6ZM95.1664 6.6H94.6664V87H95.1664H95.6664V6.6H95.1664ZM95.1664 87V86.5H92.1664V87V87.5H95.1664V87ZM105.366 80.4H105.866V77.4H105.366H104.866V80.4H105.366ZM105.366 77.4V77.9H116.366V77.4V76.9H105.366V77.4ZM116.366 77.4V77.9C122.77 77.9 128.42 76.5852 133.305 73.9396L133.066 73.5L132.828 73.0604C128.112 75.6148 122.63 76.9 116.366 76.9V77.4ZM133.066 73.5L133.305 73.9396C138.182 71.2976 142.016 67.6346 144.796 62.9554L144.366 62.7L143.937 62.4446C141.25 66.9654 137.551 70.5024 132.828 73.0604L133.066 73.5ZM144.366 62.7L144.798 62.9527C147.58 58.2021 148.966 52.8133 148.966 46.8H148.466H147.966C147.966 52.6534 146.619 57.8646 143.935 62.4473L144.366 62.7ZM148.466 46.8H148.966C148.966 40.7213 147.581 35.3309 144.796 30.6446L144.366 30.9L143.937 31.1554C146.619 35.6691 147.966 40.8787 147.966 46.8H148.466ZM144.366 30.9L144.796 30.6446C142.016 25.9654 138.182 22.3024 133.305 19.6604L133.066 20.1L132.828 20.5396C137.551 23.0976 141.25 26.6346 143.937 31.1554L144.366 30.9ZM133.066 20.1L133.305 19.6604C128.42 17.0148 122.77 15.7 116.366 15.7V16.2V16.7C122.63 16.7 128.112 17.9852 132.828 20.5396L133.066 20.1ZM116.366 16.2V15.7H105.366V16.2V16.7H116.366V16.2ZM105.366 16.2H105.866V13.2H105.366H104.866V16.2H105.366ZM105.366 13.2V13.7H116.466V13.2V12.7H105.366V13.2ZM116.466 13.2V13.7C123.26 13.7 129.241 15.1504 134.423 18.0368L134.666 17.6L134.91 17.1632C129.559 14.1829 123.406 12.7 116.466 12.7V13.2ZM134.666 17.6L134.427 18.0392C139.616 20.8635 143.683 24.7671 146.636 29.7547L147.066 29.5L147.497 29.2453C144.45 24.0995 140.25 20.0698 134.905 17.1608L134.666 17.6ZM147.066 29.5L146.638 29.7572C149.586 34.6705 151.066 40.3461 151.066 46.8H151.566H152.066C152.066 40.1872 150.547 34.3295 147.495 29.2427L147.066 29.5ZM151.566 46.8H151.066C151.066 53.2538 149.586 58.964 146.636 63.9453L147.066 64.2L147.497 64.4547C150.547 59.3027 152.066 53.4129 152.066 46.8H151.566ZM147.066 64.2L146.636 63.9453C143.683 68.9328 139.616 72.8364 134.427 75.6608L134.666 76.1L134.905 76.5392C140.25 73.6302 144.45 69.6005 147.497 64.4547L147.066 64.2ZM134.666 76.1L134.427 75.6608C129.244 78.4821 123.262 79.9 116.466 79.9V80.4V80.9C123.404 80.9 129.555 79.4512 134.905 76.5392L134.666 76.1ZM116.466 80.4V79.9H105.366V80.4V80.9H116.466V80.4ZM105.366 73.8H105.866V70.8H105.366H104.866V73.8H105.366ZM105.366 70.8V71.3H116.366V70.8V70.3H105.366V70.8ZM116.366 70.8V71.3C121.5 71.3 126.016 70.2865 129.899 68.2425L129.666 67.8L129.434 67.3575C125.717 69.3135 121.367 70.3 116.366 70.3V70.8ZM129.666 67.8L129.899 68.2425C133.779 66.2006 136.815 63.3366 138.997 59.6549L138.566 59.4L138.136 59.1451C136.051 62.6634 133.154 65.3994 129.434 67.3575L129.666 67.8ZM138.566 59.4L138.999 59.6514C141.181 55.8999 142.266 51.6112 142.266 46.8H141.766H141.266C141.266 51.4555 140.218 55.5668 138.134 59.1486L138.566 59.4ZM141.766 46.8H142.266C142.266 41.9237 141.182 37.633 138.997 33.9451L138.566 34.2L138.136 34.4549C140.217 37.967 141.266 42.0763 141.266 46.8H141.766ZM138.566 34.2L138.997 33.9451C136.815 30.2634 133.779 27.3994 129.899 25.3575L129.666 25.8L129.434 26.2425C133.154 28.2006 136.051 30.9366 138.136 34.4549L138.566 34.2ZM129.666 25.8L129.899 25.3575C126.016 23.3135 121.5 22.3 116.366 22.3V22.8V23.3C121.367 23.3 125.717 24.2865 129.434 26.2425L129.666 25.8ZM116.366 22.8V22.3H105.366V22.8V23.3H116.366V22.8ZM105.366 22.8H105.866V19.8H105.366H104.866V22.8H105.366ZM105.366 19.8V20.3H116.466V19.8V19.3H105.366V19.8ZM116.466 19.8V20.3C121.995 20.3 126.844 21.4513 131.027 23.7387L131.266 23.3L131.506 22.8613C127.156 20.482 122.137 19.3 116.466 19.3V19.8ZM131.266 23.3L131.032 23.7416C135.219 25.966 138.484 29.0687 140.836 33.0541L141.266 32.8L141.697 32.5459C139.249 28.3979 135.847 25.1673 131.501 22.8584L131.266 23.3ZM141.266 32.8L140.838 33.0572C143.185 36.9689 144.366 41.544 144.366 46.8H144.866H145.366C145.366 41.3893 144.148 36.6311 141.695 32.5427L141.266 32.8ZM144.866 46.8H144.366C144.366 52.0558 143.185 56.6658 140.836 60.6459L141.266 60.9L141.697 61.1541C144.148 57.0009 145.366 52.2109 145.366 46.8H144.866ZM141.266 60.9L140.836 60.6459C138.484 64.6313 135.219 67.7339 131.032 69.9584L131.266 70.4L131.501 70.8416C135.847 68.5327 139.249 65.302 141.697 61.1541L141.266 60.9ZM131.266 70.4L131.032 69.9584C126.848 72.181 121.998 73.3 116.466 73.3V73.8V74.3C122.135 74.3 127.151 73.1523 131.501 70.8416L131.266 70.4ZM116.466 73.8V73.3H105.366V73.8V74.3H116.466V73.8ZM186.733 73L186.469 73.4247L186.474 73.4277L186.733 73ZM181.133 66.9L180.679 67.1095L180.682 67.1166L180.686 67.1236L181.133 66.9ZM179.333 6.6V6.1H178.833V6.6H179.333ZM182.333 6.6H182.833V6.1H182.333V6.6ZM185.633 68.2L185.243 68.5135V68.5135L185.633 68.2ZM210.133 6.6V6.1H209.633V6.6H210.133ZM213.133 6.6H213.633V6.1H213.133V6.6ZM211.233 66.9L210.783 66.681L210.781 66.686L211.233 66.9ZM205.633 73L205.374 72.5722L205.369 72.5754L205.633 73ZM180.133 84.5L179.872 84.9266L179.879 84.931L180.133 84.5ZM169.733 73.5L169.289 73.7313L169.292 73.7363L169.733 73.5ZM166.133 6.6V6.1H165.633V6.6H166.133ZM169.133 6.6H169.633V6.1H169.133V6.6ZM172.333 72L171.888 72.2293L171.891 72.2349L172.333 72ZM181.633 81.9L181.37 82.3257L181.379 82.3306L181.633 81.9ZM210.733 81.9L210.99 82.3288L210.992 82.3275L210.733 81.9ZM220.033 72L219.591 71.7651L219.589 71.7707L220.033 72ZM223.333 6.6V6.1H222.833V6.6H223.333ZM226.333 6.6H226.833V6.1H226.333V6.6ZM222.633 73.5L222.192 73.2637L222.19 73.2687L222.633 73.5ZM212.333 84.5L212.589 84.9293L212.594 84.9265L212.333 84.5ZM183.433 78.7L183.171 79.1258L183.174 79.128L183.433 78.7ZM175.433 70.2L174.985 70.4237L174.991 70.4336L175.433 70.2ZM172.733 6.6V6.1H172.233V6.6H172.733ZM175.733 6.6H176.233V6.1H175.733V6.6ZM178.033 68.7L177.584 68.9198L177.59 68.9313L178.033 68.7ZM185.033 76.1L184.773 76.5271V76.5271L185.033 76.1ZM207.433 76.1L207.173 75.6729L207.169 75.6755L207.433 76.1ZM214.333 68.7L213.887 68.4726L213.886 68.4764L214.333 68.7ZM216.733 6.6V6.1H216.233V6.6H216.733ZM219.733 6.6H220.233V6.1H219.733V6.6ZM216.933 70.2L216.489 69.9698L216.487 69.973L216.933 70.2ZM208.933 78.7L208.674 78.2719L208.671 78.2742L208.933 78.7ZM196.233 75.3V74.8C192.499 74.8 189.428 74.0467 186.992 72.5723L186.733 73L186.474 73.4277C189.105 75.02 192.367 75.8 196.233 75.8V75.3ZM186.733 73L186.997 72.5754C184.607 71.0895 182.804 69.1249 181.58 66.6764L181.133 66.9L180.686 67.1236C181.995 69.7418 183.926 71.8438 186.469 73.4246L186.733 73ZM181.133 66.9L181.587 66.6905C180.42 64.1621 179.833 61.3679 179.833 58.3H179.333H178.833C178.833 61.4988 179.446 64.4379 180.679 67.1095L181.133 66.9ZM179.333 58.3H179.833V6.6H179.333H178.833V58.3H179.333ZM179.333 6.6V7.1H182.333V6.6V6.1H179.333V6.6ZM182.333 6.6H181.833V58.3H182.333H182.833V6.6H182.333ZM182.333 58.3H181.833C181.833 62.2683 182.964 65.6821 185.243 68.5135L185.633 68.2L186.022 67.8865C183.901 65.2512 182.833 62.065 182.833 58.3H182.333ZM185.633 68.2L185.243 68.5135C187.571 71.4057 191.277 72.8 196.233 72.8V72.3V71.8C191.456 71.8 188.094 70.461 186.022 67.8865L185.633 68.2ZM196.233 72.3V72.8C201.189 72.8 204.894 71.4057 207.222 68.5135L206.833 68.2L206.443 67.8865C204.371 70.461 201.01 71.8 196.233 71.8V72.3ZM206.833 68.2L207.222 68.5135C209.501 65.6821 210.633 62.2683 210.633 58.3H210.133H209.633C209.633 62.065 208.564 65.2512 206.443 67.8865L206.833 68.2ZM210.133 58.3H210.633V6.6H210.133H209.633V58.3H210.133ZM210.133 6.6V7.1H213.133V6.6V6.1H210.133V6.6ZM213.133 6.6H212.633V58.3H213.133H213.633V6.6H213.133ZM213.133 58.3H212.633C212.633 61.3639 212.014 64.1548 210.783 66.681L211.233 66.9L211.682 67.119C212.985 64.4452 213.633 61.5028 213.633 58.3H213.133ZM211.233 66.9L210.781 66.686C209.625 69.1256 207.828 71.0867 205.374 72.5723L205.633 73L205.892 73.4277C208.504 71.8467 210.44 69.7411 211.685 67.114L211.233 66.9ZM205.633 73L205.369 72.5754C203.002 74.0464 199.968 74.8 196.233 74.8V75.3V75.8C200.098 75.8 203.33 75.0202 205.897 73.4246L205.633 73ZM196.233 88.5V88C190.106 88 184.83 86.683 180.386 84.069L180.133 84.5L179.879 84.931C184.502 87.6503 189.96 89 196.233 89V88.5ZM180.133 84.5L180.394 84.0735C176.003 81.3864 172.598 77.7852 170.173 73.2637L169.733 73.5L169.292 73.7363C171.801 78.4148 175.33 82.147 179.872 84.9265L180.133 84.5ZM169.733 73.5L170.176 73.2687C167.816 68.7448 166.633 63.7583 166.633 58.3H166.133H165.633C165.633 63.9084 166.85 69.0552 169.29 73.7313L169.733 73.5ZM166.133 58.3H166.633V6.6H166.133H165.633V58.3H166.133ZM166.133 6.6V7.1H169.133V6.6V6.1H166.133V6.6ZM169.133 6.6H168.633V58.3H169.133H169.633V6.6H169.133ZM169.133 58.3H168.633C168.633 63.3737 169.716 68.0198 171.889 72.2293L172.333 72L172.777 71.7707C170.683 67.7135 169.633 63.2263 169.633 58.3H169.133ZM172.333 72L171.891 72.2349C174.133 76.4469 177.295 79.8125 181.37 82.3256L181.633 81.9L181.895 81.4744C177.97 79.0541 174.932 75.8198 172.774 71.7651L172.333 72ZM181.633 81.9L181.379 82.3306C185.536 84.7844 190.495 86 196.233 86V85.5V85C190.638 85 185.863 83.8156 181.887 81.4694L181.633 81.9ZM196.233 85.5V86C201.971 86 206.897 84.7845 210.99 82.3287L210.733 81.9L210.476 81.4713C206.568 83.8155 201.828 85 196.233 85V85.5ZM210.733 81.9L210.992 82.3275C215.136 79.8142 218.301 76.4464 220.477 72.2293L220.033 72L219.589 71.7707C217.498 75.8203 214.463 79.0525 210.474 81.4725L210.733 81.9ZM220.033 72L220.474 72.2349C222.715 68.0244 223.833 63.3762 223.833 58.3H223.333H222.833C222.833 63.2238 221.75 67.7089 219.591 71.7651L220.033 72ZM223.333 58.3H223.833V6.6H223.333H222.833V58.3H223.333ZM223.333 6.6V7.1H226.333V6.6V6.1H223.333V6.6ZM226.333 6.6H225.833V58.3H226.333H226.833V6.6H226.333ZM226.333 58.3H225.833C225.833 63.756 224.618 68.7408 222.192 73.2637L222.633 73.5L223.073 73.7363C225.581 69.0592 226.833 63.9107 226.833 58.3H226.333ZM222.633 73.5L222.19 73.2687C219.832 77.7875 216.462 81.3871 212.072 84.0735L212.333 84.5L212.594 84.9265C217.137 82.1463 220.634 78.4125 223.076 73.7313L222.633 73.5ZM212.333 84.5L212.077 84.0707C207.702 86.6824 202.428 88 196.233 88V88.5V89C202.571 89 208.03 87.6509 212.589 84.9293L212.333 84.5ZM196.233 81.9V81.4C191.305 81.4 187.132 80.3492 183.691 78.272L183.433 78.7L183.174 79.128C186.801 81.3175 191.161 82.4 196.233 82.4V81.9ZM183.433 78.7L183.695 78.2742C180.303 76.1868 177.699 73.4192 175.875 69.9664L175.433 70.2L174.991 70.4336C176.9 74.0475 179.629 76.9466 183.171 79.1258L183.433 78.7ZM175.433 70.2L175.88 69.9764C174.117 66.4511 173.233 62.5618 173.233 58.3H172.733H172.233C172.233 62.7049 173.148 66.7489 174.986 70.4236L175.433 70.2ZM172.733 58.3H173.233V6.6H172.733H172.233V58.3H172.733ZM172.733 6.6V7.1H175.733V6.6V6.1H172.733V6.6ZM175.733 6.6H175.233V58.3H175.733H176.233V6.6H175.733ZM175.733 58.3H175.233C175.233 62.1693 176.014 65.7121 177.584 68.9198L178.033 68.7L178.482 68.4802C176.985 65.4213 176.233 62.0307 176.233 58.3H175.733ZM178.033 68.7L177.59 68.9313C179.233 72.0818 181.631 74.615 184.773 76.5271L185.033 76.1L185.293 75.6729C182.301 73.8517 180.032 71.4515 178.476 68.4687L178.033 68.7ZM185.033 76.1L184.773 76.5271C187.934 78.4512 191.762 79.4 196.233 79.4V78.9V78.4C191.904 78.4 188.265 77.4822 185.293 75.6729L185.033 76.1ZM196.233 78.9V79.4C200.768 79.4 204.599 78.452 207.697 76.5245L207.433 76.1L207.169 75.6755C204.266 77.4813 200.631 78.4 196.233 78.4V78.9ZM207.433 76.1L207.693 76.5271C210.836 74.614 213.203 72.0784 214.78 68.9236L214.333 68.7L213.886 68.4764C212.396 71.4549 210.163 73.8527 207.173 75.6729L207.433 76.1ZM214.333 68.7L214.778 68.9274C216.417 65.7181 217.233 62.1726 217.233 58.3H216.733H216.233C216.233 62.0274 215.449 65.4152 213.888 68.4726L214.333 68.7ZM216.733 58.3H217.233V6.6H216.733H216.233V58.3H216.733ZM216.733 6.6V7.1H219.733V6.6V6.1H216.733V6.6ZM219.733 6.6H219.233V58.3H219.733H220.233V6.6H219.733ZM219.733 58.3H219.233C219.233 62.5589 218.316 66.4458 216.489 69.9698L216.933 70.2L217.377 70.4302C219.283 66.7542 220.233 62.7078 220.233 58.3H219.733ZM216.933 70.2L216.487 69.973C214.731 73.4197 212.131 76.1848 208.674 78.272L208.933 78.7L209.191 79.128C212.801 76.9485 215.534 74.047 217.378 70.427L216.933 70.2ZM208.933 78.7L208.671 78.2742C205.299 80.349 201.161 81.4 196.233 81.4V81.9V82.4C201.304 82.4 205.633 81.3176 209.195 79.1258L208.933 78.7ZM267.248 33.4L266.85 33.7025L267.257 34.2392L267.653 33.6932L267.248 33.4ZM265.348 30.9L264.943 30.6067L264.725 30.9072L264.95 31.2025L265.348 30.9ZM282.948 6.6V6.1H282.692L282.543 6.3067L282.948 6.6ZM286.648 6.6L287.053 6.89318L287.627 6.1H286.648V6.6ZM271.448 38.8L271.05 39.1025L271.457 39.6382L271.852 39.0939L271.448 38.8ZM269.548 36.3L269.143 36.0059L268.925 36.3066L269.15 36.6025L269.548 36.3ZM291.148 6.6V6.1H290.893L290.743 6.30592L291.148 6.6ZM294.848 6.6L295.252 6.89394L295.829 6.1H294.848V6.6ZM275.648 44.2L275.25 44.5025L275.656 45.0374L276.052 44.4945L275.648 44.2ZM273.748 41.7L273.344 41.4054L273.124 41.7061L273.35 42.0025L273.748 41.7ZM299.348 6.6V6.1H299.093L298.944 6.30537L299.348 6.6ZM303.048 6.6L303.452 6.89447L304.031 6.1H303.048V6.6ZM249.548 87H249.048V87.5H249.548V87ZM249.548 6.6V6.1H249.048V6.6H249.548ZM252.548 6.6H253.048V6.1H252.548V6.6ZM252.548 87V87.5H253.048V87H252.548ZM236.348 87H235.848V87.5H236.348V87ZM236.348 6.6V6.1H235.848V6.6H236.348ZM239.348 6.6H239.848V6.1H239.348V6.6ZM239.348 87V87.5H239.848V87H239.348ZM242.948 87H242.448V87.5H242.948V87ZM242.948 6.6V6.1H242.448V6.6H242.948ZM245.948 6.6H246.448V6.1H245.948V6.6ZM245.948 87V87.5H246.448V87H245.948ZM300.248 87L299.852 87.3056L300.002 87.5H300.248V87ZM261.248 36.5L260.85 36.1975L260.618 36.5024L260.852 36.8056L261.248 36.5ZM263.148 34L263.543 33.6945L263.145 33.1777L262.75 33.6975L263.148 34ZM304.048 87V87.5H305.065L304.444 86.6945L304.048 87ZM291.948 87L291.552 87.3057L291.702 87.5H291.948V87ZM257.248 42.1L256.844 41.805L256.622 42.1084L256.852 42.4057L257.248 42.1ZM259.148 39.5L259.544 39.1948L259.137 38.6671L258.744 39.205L259.148 39.5ZM295.748 87V87.5H296.764L296.144 86.6948L295.748 87ZM283.548 87L283.152 87.3053L283.302 87.5H283.548V87ZM253.248 47.7L252.842 47.4078L252.624 47.7102L252.852 48.0053L253.248 47.7ZM255.048 45.2L255.443 44.8943L255.034 44.3639L254.642 44.9078L255.048 45.2ZM287.348 87V87.5H288.366L287.743 86.6943L287.348 87ZM267.248 33.4L267.646 33.0975L265.746 30.5975L265.348 30.9L264.95 31.2025L266.85 33.7025L267.248 33.4ZM265.348 30.9L265.753 31.1933L283.353 6.89329L282.948 6.6L282.543 6.3067L264.943 30.6067L265.348 30.9ZM282.948 6.6V7.1H286.648V6.6V6.1H282.948V6.6ZM286.648 6.6L286.243 6.30681L266.843 33.1068L267.248 33.4L267.653 33.6932L287.053 6.89318L286.648 6.6ZM271.448 38.8L271.846 38.4975L269.946 35.9975L269.548 36.3L269.15 36.6025L271.05 39.1025L271.448 38.8ZM269.548 36.3L269.952 36.5941L291.552 6.89408L291.148 6.6L290.743 6.30592L269.143 36.0059L269.548 36.3ZM291.148 6.6V7.1H294.848V6.6V6.1H291.148V6.6ZM294.848 6.6L294.443 6.30606L271.043 38.5061L271.448 38.8L271.852 39.0939L295.252 6.89394L294.848 6.6ZM275.648 44.2L276.046 43.8975L274.146 41.3975L273.748 41.7L273.35 42.0025L275.25 44.5025L275.648 44.2ZM273.748 41.7L274.152 41.9946L299.752 6.89463L299.348 6.6L298.944 6.30537L273.344 41.4054L273.748 41.7ZM299.348 6.6V7.1H303.048V6.6V6.1H299.348V6.6ZM303.048 6.6L302.644 6.30553L275.244 43.9055L275.648 44.2L276.052 44.4945L303.452 6.89447L303.048 6.6ZM249.548 87H250.048V6.6H249.548H249.048V87H249.548ZM249.548 6.6V7.1H252.548V6.6V6.1H249.548V6.6ZM252.548 6.6H252.048V87H252.548H253.048V6.6H252.548ZM252.548 87V86.5H249.548V87V87.5H252.548V87ZM236.348 87H236.848V6.6H236.348H235.848V87H236.348ZM236.348 6.6V7.1H239.348V6.6V6.1H236.348V6.6ZM239.348 6.6H238.848V87H239.348H239.848V6.6H239.348ZM239.348 87V86.5H236.348V87V87.5H239.348V87ZM242.948 87H243.448V6.6H242.948H242.448V87H242.948ZM242.948 6.6V7.1H245.948V6.6V6.1H242.948V6.6ZM245.948 6.6H245.448V87H245.948H246.448V6.6H245.948ZM245.948 87V86.5H242.948V87V87.5H245.948V87ZM300.248 87L300.643 86.6944L261.643 36.1944L261.248 36.5L260.852 36.8056L299.852 87.3056L300.248 87ZM261.248 36.5L261.646 36.8025L263.546 34.3025L263.148 34L262.75 33.6975L260.85 36.1975L261.248 36.5ZM263.148 34L262.752 34.3055L303.652 87.3055L304.048 87L304.444 86.6945L263.543 33.6945L263.148 34ZM304.048 87V86.5H300.248V87V87.5H304.048V87ZM291.948 87L292.343 86.6943L257.643 41.7942L257.248 42.1L256.852 42.4057L291.552 87.3057L291.948 87ZM257.248 42.1L257.651 42.395L259.551 39.795L259.148 39.5L258.744 39.205L256.844 41.805L257.248 42.1ZM259.148 39.5L258.752 39.8052L295.352 87.3052L295.748 87L296.144 86.6948L259.544 39.1948L259.148 39.5ZM295.748 87V86.5H291.948V87V87.5H295.748V87ZM283.548 87L283.944 86.6947L253.644 47.3947L253.248 47.7L252.852 48.0053L283.152 87.3053L283.548 87ZM253.248 47.7L253.653 47.9922L255.453 45.4921L255.048 45.2L254.642 44.9078L252.842 47.4078L253.248 47.7ZM255.048 45.2L254.652 45.5057L286.952 87.3057L287.348 87L287.743 86.6943L255.443 44.8943L255.048 45.2ZM287.348 87V86.5H283.548V87V87.5H287.348V87ZM312.447 87H311.947V87.5H312.447V87ZM312.447 14.2727V13.7727H311.947V14.2727H312.447ZM359.748 14.2727H360.248V13.7727H359.748V14.2727ZM359.748 25.3168V25.8168H360.248V25.3168H359.748ZM325.621 25.3168V24.8168H325.121V25.3168H325.621ZM325.621 45.0611H325.121V45.5611H325.621V45.0611ZM357.298 45.0611H357.798V44.5611H357.298V45.0611ZM357.298 56.1051V56.6051H357.798V56.1051H357.298ZM325.621 56.1051V55.6051H325.121V56.1051H325.621ZM325.621 75.956H325.121V76.456H325.621V75.956ZM360.032 75.956H360.532V75.456H360.032V75.956ZM360.032 87V87.5H360.532V87H360.032ZM312.447 87H312.947V14.2727H312.447H311.947V87H312.447ZM312.447 14.2727V14.7727H359.748V14.2727V13.7727H312.447V14.2727ZM359.748 14.2727H359.248V25.3168H359.748H360.248V14.2727H359.748ZM359.748 25.3168V24.8168H325.621V25.3168V25.8168H359.748V25.3168ZM325.621 25.3168H325.121V45.0611H325.621H326.121V25.3168H325.621ZM325.621 45.0611V45.5611H357.298V45.0611V44.5611H325.621V45.0611ZM357.298 45.0611H356.798V56.1051H357.298H357.798V45.0611H357.298ZM357.298 56.1051V55.6051H325.621V56.1051V56.6051H357.298V56.1051ZM325.621 56.1051H325.121V75.956H325.621H326.121V56.1051H325.621ZM325.621 75.956V76.456H360.032V75.956V75.456H325.621V75.956ZM360.032 75.956H359.532V87H360.032H360.532V75.956H360.032ZM360.032 87V86.5H312.447V87V87.5H360.032V87ZM373.189 87H372.689V87.5H373.189V87ZM373.189 14.2727V13.7727H372.689V14.2727H373.189ZM414.524 17.1847L414.296 17.6296L414.297 17.6302L414.524 17.1847ZM423.153 25.3523L422.716 25.5946L422.718 25.5981L423.153 25.3523ZM423.118 49.6776L422.685 49.4269L422.685 49.4279L423.118 49.6776ZM414.418 57.5966L414.635 58.0471L414.637 58.046L414.418 57.5966ZM380.859 60.3665H380.359V60.8665H380.859V60.3665ZM380.859 49.429V48.929H380.359V49.429H380.859ZM406.534 48.0795L406.732 48.5386L406.737 48.5367L406.534 48.0795ZM411.151 44.0668L410.717 43.8181L410.716 43.82L411.151 44.0668ZM411.151 30.9276L410.713 31.1689L410.714 31.1713L411.151 30.9276ZM406.499 26.7372L406.287 27.1905L406.292 27.1924L406.499 26.7372ZM386.364 25.2812V24.7812H385.864V25.2812H386.364ZM386.364 87V87.5H386.864V87H386.364ZM410.76 54.0455L411.199 53.8057L411.057 53.5455H410.76V54.0455ZM428.764 87V87.5H429.607L429.203 86.7603L428.764 87ZM414.062 87L413.622 87.2364L413.763 87.5H414.062V87ZM396.378 54.0455V53.5455H395.542L395.937 54.2819L396.378 54.0455ZM373.189 87H373.689V14.2727H373.189H372.689V87H373.189ZM373.189 14.2727V14.7727H400.462V14.2727V13.7727H373.189V14.2727ZM400.462 14.2727V14.7727C405.993 14.7727 410.597 15.734 414.296 17.6296L414.524 17.1847L414.752 16.7397C410.875 14.7527 406.104 13.7727 400.462 13.7727V14.2727ZM414.524 17.1847L414.297 17.6302C418.026 19.5295 420.826 22.184 422.716 25.5946L423.153 25.3523L423.591 25.11C421.598 21.5129 418.645 18.7224 414.751 16.7391L414.524 17.1847ZM423.153 25.3523L422.718 25.5981C424.634 28.9919 425.601 32.9647 425.601 37.5327H426.101H426.601C426.601 32.8204 425.603 28.6729 423.589 25.1064L423.153 25.3523ZM426.101 37.5327H425.601C425.601 42.1241 424.623 46.0827 422.685 49.4269L423.118 49.6776L423.551 49.9282C425.591 46.4068 426.601 42.2689 426.601 37.5327H426.101ZM423.118 49.6776L422.685 49.4279C420.774 52.7432 417.952 55.3168 414.198 57.1472L414.418 57.5966L414.637 58.046C418.554 56.1359 421.532 53.4301 423.551 49.9272L423.118 49.6776ZM414.418 57.5966L414.201 57.1461C410.451 58.9516 405.819 59.8665 400.284 59.8665V60.3665V60.8665C405.924 60.8665 410.714 59.9348 414.635 58.0471L414.418 57.5966ZM400.284 60.3665V59.8665H380.859V60.3665V60.8665H400.284V60.3665ZM380.859 60.3665H381.359V49.429H380.859H380.359V60.3665H380.859ZM380.859 49.429V49.929H398.509V49.429V48.929H380.859V49.429ZM398.509 49.429V49.929C401.816 49.929 404.565 49.4744 406.732 48.5386L406.534 48.0795L406.336 47.6205C404.336 48.484 401.735 48.929 398.509 48.929V49.429ZM406.534 48.0795L406.737 48.5367C408.905 47.5759 410.531 46.1707 411.585 44.3136L411.151 44.0668L410.716 43.82C409.781 45.4667 408.33 46.7366 406.332 47.6224L406.534 48.0795ZM411.151 44.0668L411.584 44.3155C412.656 42.4469 413.178 40.178 413.178 37.5327H412.678H412.178C412.178 40.0483 411.681 42.1355 410.717 43.8181L411.151 44.0668ZM412.678 37.5327H413.178C413.178 34.8867 412.655 32.5968 411.587 30.6838L411.151 30.9276L410.714 31.1713C411.682 32.9041 412.178 35.0176 412.178 37.5327H412.678ZM411.151 30.9276L411.588 30.6862C410.514 28.7371 408.878 27.2695 406.705 26.282L406.499 26.7372L406.292 27.1924C408.286 28.0988 409.751 29.4248 410.713 31.1689L411.151 30.9276ZM406.499 26.7372L406.71 26.284C404.538 25.2722 401.772 24.7812 398.438 24.7812V25.2812V25.7812C401.684 25.7812 404.292 26.2609 406.287 27.1904L406.499 26.7372ZM398.438 25.2812V24.7812H386.364V25.2812V25.7812H398.438V25.2812ZM386.364 25.2812H385.864V87H386.364H386.864V25.2812H386.364ZM386.364 87V86.5H373.189V87V87.5H386.364V87ZM410.76 54.0455L410.321 54.2852L428.325 87.2397L428.764 87L429.203 86.7603L411.199 53.8057L410.76 54.0455ZM428.764 87V86.5H414.062V87V87.5H428.764V87ZM414.062 87L414.503 86.7636L396.818 53.809L396.378 54.0455L395.937 54.2819L413.622 87.2364L414.062 87ZM396.378 54.0455V54.5455H410.76V54.0455V53.5455H396.378V54.0455ZM438.228 87H437.728V87.5H438.228V87ZM438.228 14.2727V13.7727H437.728V14.2727H438.228ZM479.563 17.3977L479.322 17.8358L479.323 17.8365L479.563 17.3977ZM488.192 25.9915L487.751 26.2265L487.753 26.2299L488.192 25.9915ZM488.192 50.7784L488.632 51.0168V51.0168L488.192 50.7784ZM479.492 59.3366L479.729 59.7771L479.731 59.776L479.492 59.3366ZM447.248 62.4261H446.748V62.9261H447.248V62.4261ZM447.248 51.5952V51.0952H446.748V51.5952H447.248ZM471.573 49.8906L471.813 50.3296V50.3296L471.573 49.8906ZM476.19 45.2031L475.745 44.9753L475.742 44.9795L476.19 45.2031ZM476.19 31.5312L475.743 31.757L475.746 31.7613L476.19 31.5312ZM471.538 26.9503L471.302 27.3914L471.308 27.3945L471.538 26.9503ZM451.403 25.2812V24.7812H450.903V25.2812H451.403ZM451.403 87V87.5H451.903V87H451.403ZM438.228 87H438.728V14.2727H438.228H437.728V87H438.228ZM438.228 14.2727V14.7727H465.501V14.2727V13.7727H438.228V14.2727ZM465.501 14.2727V14.7727C471.028 14.7727 475.627 15.8033 479.322 17.8358L479.563 17.3977L479.804 16.9596C475.924 14.8255 471.148 13.7727 465.501 13.7727V14.2727ZM479.563 17.3977L479.323 17.8365C483.054 19.8755 485.858 22.6713 487.751 26.2265L488.192 25.9915L488.634 25.7565C486.644 22.02 483.696 19.0866 479.803 16.959L479.563 17.3977ZM488.192 25.9915L487.753 26.2299C489.674 29.7704 490.64 33.806 490.64 38.3494H491.14H491.64C491.64 33.6599 490.641 29.4569 488.632 25.7531L488.192 25.9915ZM491.14 38.3494H490.64C490.64 42.9411 489.673 47.0002 487.753 50.54L488.192 50.7784L488.632 51.0168C490.642 47.3123 491.64 43.0854 491.64 38.3494H491.14ZM488.192 50.7784L487.753 50.54C485.837 54.072 483.009 56.8572 479.254 58.8973L479.492 59.3366L479.731 59.776C483.646 57.6494 486.618 54.7291 488.632 51.0168L488.192 50.7784ZM479.492 59.3366L479.256 58.8961C475.511 60.9071 470.875 61.9261 465.323 61.9261V62.4261V62.9261C470.993 62.9261 475.803 61.8855 479.729 59.7771L479.492 59.3366ZM465.323 62.4261V61.9261H447.248V62.4261V62.9261H465.323V62.4261ZM447.248 62.4261H447.748V51.5952H447.248H446.748V62.4261H447.248ZM447.248 51.5952V52.0952H463.548V51.5952V51.0952H447.248V51.5952ZM463.548 51.5952V52.0952C466.868 52.0952 469.633 51.5182 471.813 50.3296L471.573 49.8906L471.334 49.4517C469.346 50.5357 466.761 51.0952 463.548 51.0952V51.5952ZM471.573 49.8906L471.813 50.3296C473.979 49.1478 475.594 47.513 476.637 45.4267L476.19 45.2031L475.742 44.9795C474.797 46.8706 473.334 48.3607 471.334 49.4517L471.573 49.8906ZM476.19 45.2031L476.635 45.431C477.694 43.3616 478.217 40.9968 478.217 38.3494H477.717H477.217C477.217 40.863 476.721 43.0674 475.745 44.9753L476.19 45.2031ZM477.717 38.3494H478.217C478.217 35.7022 477.694 33.3482 476.634 31.3012L476.19 31.5312L475.746 31.7613C476.721 33.6442 477.217 35.8357 477.217 38.3494H477.717ZM476.19 31.5312L476.636 31.3055C475.59 29.2394 473.96 27.6394 471.767 26.5061L471.538 26.9503L471.308 27.3945C473.329 28.4392 474.8 29.8932 475.743 31.757L476.19 31.5312ZM471.538 26.9503L471.773 26.5092C469.595 25.3456 466.819 24.7812 463.477 24.7812V25.2812V25.7812C466.716 25.7812 469.314 26.3296 471.302 27.3913L471.538 26.9503ZM463.477 25.2812V24.7812H451.403V25.2812V25.7812H463.477V25.2812ZM451.403 25.2812H450.903V87H451.403H451.903V25.2812H451.403ZM451.403 87V86.5H438.228V87V87.5H451.403V87Z" fill="#570808" mask="url(#path-1-outside-1_149_13)"/>
</g>
<defs>
<clipPath id="clip0_149_13">
<rect width="80" height="92" fill="white"/>
</clipPath>
</defs>
</svg>
