<svg width="200" height="200" viewBox="0 0 200 200" fill="none" xmlns="http://www.w3.org/2000/svg">
<rect x="20" y="20" width="75" height="75" fill="#6366F1"/>
<rect x="20" y="105" width="75" height="75" fill="#EEF2FF"/>
<rect x="105" y="20" width="75" height="75" fill="#8A8CF4"/>
<rect x="105" y="105" width="75" height="75" fill="#F6F9FE"/>
<rect x="20" y="20" width="8" height="8" fill="#F6F9FE" fill-opacity="0.5"/>
<rect x="105" y="20" width="8" height="8" fill="#F6F9FE" fill-opacity="0.5"/>
<rect x="105" y="105" width="8" height="8" fill="#6366F1" fill-opacity="0.5"/>
<rect x="20" y="105" width="8" height="8" fill="#6366F1" fill-opacity="0.5"/>
<rect x="20" y="87" width="8" height="8" fill="#F6F9FE" fill-opacity="0.5"/>
<rect x="105" y="87" width="8" height="8" fill="#F6F9FE" fill-opacity="0.5"/>
<rect x="105" y="172" width="8" height="8" fill="#6366F1" fill-opacity="0.5"/>
<rect x="20" y="172" width="8" height="8" fill="#6366F1" fill-opacity="0.5"/>
<rect x="87" y="20" width="8" height="8" fill="#F6F9FE" fill-opacity="0.5"/>
<rect x="172" y="20" width="8" height="8" fill="#F6F9FE" fill-opacity="0.5"/>
<rect x="172" y="105" width="8" height="8" fill="#6366F1" fill-opacity="0.5"/>
<rect x="87" y="105" width="8" height="8" fill="#6366F1" fill-opacity="0.5"/>
<rect x="87" y="87" width="8" height="8" fill="#F6F9FE" fill-opacity="0.5"/>
<rect x="172" y="87" width="8" height="8" fill="#F6F9FE" fill-opacity="0.5"/>
<rect x="172" y="172" width="8" height="8" fill="#6366F1" fill-opacity="0.5"/>
<rect x="87" y="172" width="8" height="8" fill="#6366F1" fill-opacity="0.5"/>
</svg>
