<svg width="1000" height="220" viewBox="0 0 1000 220" fill="none" xmlns="http://www.w3.org/2000/svg">
<path d="M67.3467 186.121V180.301H88.684C99.6761 180.301 109.698 178.556 118.75 175.064C127.932 171.443 135.885 166.4 142.609 159.934C149.334 153.468 154.506 145.838 158.127 137.045C161.878 128.251 163.753 118.617 163.753 108.142C163.753 97.6677 161.878 88.0335 158.127 79.24C154.506 70.4465 149.334 62.8166 142.609 56.3508C135.885 49.885 127.932 44.9062 118.75 41.4147C109.698 37.7937 99.6761 35.9833 88.684 35.9833H67.3467V30.1641H88.878C100.646 30.1641 111.444 32.1038 121.272 35.9833C131.1 39.8629 139.635 45.2942 146.877 52.2773C154.119 59.2604 159.744 67.472 163.753 76.9123C167.762 86.3525 169.766 96.7624 169.766 108.142C169.766 119.522 167.762 129.997 163.753 139.566C159.744 149.007 154.119 157.218 146.877 164.201C139.635 171.185 131.1 176.616 121.272 180.495C111.444 184.246 100.646 186.121 88.878 186.121H67.3467ZM54.5443 186.121V30.1641H60.3636V186.121H54.5443ZM28.9395 186.121V30.1641H34.7587V186.121H28.9395ZM41.7419 186.121V30.1641H47.5611V186.121H41.7419ZM67.3467 173.318V167.499H88.684C100.969 167.499 111.767 164.977 121.078 159.934C130.389 154.891 137.695 147.907 142.997 138.985C148.299 129.932 150.95 119.652 150.95 108.142C150.95 96.5038 148.299 86.2231 142.997 77.3002C137.695 68.3773 130.389 61.3942 121.078 56.3508C111.767 51.3074 100.969 48.7858 88.684 48.7858H67.3467V42.9665H88.878C102.198 42.9665 113.965 45.8115 124.182 51.5014C134.398 57.0621 142.415 64.7564 148.235 74.5845C154.054 84.2833 156.964 95.4693 156.964 108.142C156.964 120.815 154.054 132.066 148.235 141.894C142.415 151.722 134.398 159.417 124.182 164.977C113.965 170.538 102.198 173.318 88.878 173.318H67.3467ZM67.3467 160.516V154.697H88.684C98.5122 154.697 107.112 152.757 114.483 148.877C121.854 144.998 127.609 139.566 131.747 132.583C135.885 125.471 137.954 117.324 137.954 108.142C137.954 98.8315 135.885 90.6845 131.747 83.7014C127.609 76.7183 121.854 71.287 114.483 67.4074C107.112 63.5279 98.5122 61.5882 88.684 61.5882H67.3467V55.7689H88.878C99.7407 55.7689 109.31 58.032 117.586 62.558C125.863 66.9549 132.329 73.0973 136.984 80.9857C141.639 88.7448 143.967 97.7971 143.967 108.142C143.967 118.488 141.639 127.605 136.984 135.493C132.329 143.381 125.863 149.524 117.586 153.921C109.31 158.318 99.7407 160.516 88.878 160.516H67.3467ZM223.625 186.121V180.301H244.963C255.955 180.301 265.978 178.556 275.029 175.064C284.212 171.443 292.165 166.4 298.888 159.934C305.613 153.468 310.786 145.838 314.406 137.045C318.158 128.251 320.031 118.617 320.031 108.142C320.031 97.6677 318.158 88.0335 314.406 79.24C310.786 70.4465 305.613 62.8166 298.888 56.3508C292.165 49.885 284.212 44.9062 275.029 41.4147C265.978 37.7937 255.955 35.9833 244.963 35.9833H223.625V30.1641H245.157C256.925 30.1641 267.724 32.1038 277.551 35.9833C287.379 39.8629 295.914 45.2942 303.155 52.2773C310.398 59.2604 316.024 67.472 320.031 76.9123C324.041 86.3525 326.045 96.7624 326.045 108.142C326.045 119.522 324.041 129.997 320.031 139.566C316.024 149.007 310.398 157.218 303.155 164.201C295.914 171.185 287.379 176.616 277.551 180.495C267.724 184.246 256.925 186.121 245.157 186.121H223.625ZM210.824 186.121V30.1641H216.642V186.121H210.824ZM185.219 186.121V30.1641H191.038V186.121H185.219ZM198.021 186.121V30.1641H203.841V186.121H198.021ZM223.625 173.318V167.499H244.963C257.249 167.499 268.046 164.977 277.357 159.934C286.667 154.891 293.975 147.907 299.276 138.985C304.579 129.932 307.229 119.652 307.229 108.142C307.229 96.5038 304.579 86.2231 299.276 77.3002C293.975 68.3773 286.667 61.3942 277.357 56.3508C268.046 51.3074 257.249 48.7858 244.963 48.7858H223.625V42.9665H245.157C258.477 42.9665 270.245 45.8115 280.46 51.5014C290.677 57.0621 298.694 64.7564 304.513 74.5845C310.333 84.2833 313.242 95.4693 313.242 108.142C313.242 120.815 310.333 132.066 304.513 141.894C298.694 151.722 290.677 159.417 280.46 164.977C270.245 170.538 258.477 173.318 245.157 173.318H223.625ZM223.625 160.516V154.697H244.963C254.791 154.697 263.39 152.757 270.761 148.877C278.133 144.998 283.888 139.566 288.025 132.583C292.165 125.471 294.233 117.324 294.233 108.142C294.233 98.8315 292.165 90.6845 288.025 83.7014C283.888 76.7183 278.133 71.287 270.761 67.4074C263.39 63.5279 254.791 61.5882 244.963 61.5882H223.625V55.7689H245.157C256.019 55.7689 265.59 58.032 273.865 62.558C282.142 66.9549 288.607 73.0973 293.263 80.9857C297.918 88.7448 300.246 97.7971 300.246 108.142C300.246 118.488 297.918 127.605 293.263 135.493C288.607 143.381 282.142 149.524 273.865 153.921C265.59 158.318 256.019 160.516 245.157 160.516H223.625ZM399.885 163.426C392.514 163.426 386.371 161.938 381.458 158.964C376.672 155.99 373.051 152.046 370.595 147.132C368.267 142.088 367.103 136.527 367.103 130.45V30.1641H372.923V130.45C372.923 137.95 375.056 144.351 379.324 149.653C383.591 154.955 390.445 157.606 399.885 157.606C409.324 157.606 416.179 154.955 420.447 149.653C424.714 144.351 426.848 137.95 426.848 130.45V30.1641H432.667V130.45C432.667 136.527 431.438 142.088 428.982 147.132C426.654 152.046 423.033 155.99 418.119 158.964C413.334 161.938 407.256 163.426 399.885 163.426ZM399.885 189.03C387.859 189.03 377.448 186.444 368.655 181.271C359.99 175.969 353.265 168.857 348.482 159.934C343.826 151.011 341.499 141.183 341.499 130.45V30.1641H347.318V130.45C347.318 140.148 349.386 149.007 353.525 157.024C357.793 165.042 363.806 171.443 371.565 176.228C379.452 180.883 388.893 183.211 399.885 183.211C410.876 183.211 420.253 180.883 428.012 176.228C435.899 171.443 441.912 165.042 446.052 157.024C450.319 149.007 452.453 140.148 452.453 130.45V30.1641H458.272V130.45C458.272 141.183 455.878 151.011 451.095 159.934C446.44 168.857 439.778 175.969 431.116 181.271C422.451 186.444 412.04 189.03 399.885 189.03ZM399.885 176.228C390.187 176.228 381.91 174.159 375.056 170.021C368.331 165.883 363.158 160.386 359.538 153.533C356.047 146.55 354.301 138.855 354.301 130.45V30.1641H360.12V130.45C360.12 137.821 361.606 144.545 364.582 150.623C367.685 156.572 372.211 161.356 378.16 164.977C384.107 168.598 391.35 170.409 399.885 170.409C408.548 170.409 415.791 168.598 421.611 164.977C427.558 161.356 432.019 156.572 434.995 150.623C438.099 144.545 439.65 137.821 439.65 130.45V30.1641H445.47V130.45C445.47 138.855 443.658 146.55 440.038 153.533C436.547 160.386 431.374 165.883 424.52 170.021C417.795 174.159 409.584 176.228 399.885 176.228ZM537.637 82.1496L533.952 77.3002L568.092 30.1641H575.269L537.637 82.1496ZM545.784 92.6243L542.099 87.7749L583.998 30.1641H591.175L545.784 92.6243ZM553.931 103.099L550.246 98.2496L599.904 30.1641H607.081L553.931 103.099ZM503.304 186.121V30.1641H509.123V186.121H503.304ZM477.699 186.121V30.1641H483.518V186.121H477.699ZM490.501 186.121V30.1641H496.32V186.121H490.501ZM601.649 186.121L525.999 88.1629L529.684 83.3135L609.021 186.121H601.649ZM585.549 186.121L518.24 99.0255L521.925 93.9821L592.92 186.121H585.549ZM569.255 186.121L510.481 109.888L513.972 105.039L576.627 186.121H569.255Z" fill="#6366F1"/>
<path d="M625.312 186.12V45.0464H717.065V66.4693H650.867V104.768H712.313V126.191H650.867V164.697H717.616V186.12H625.312ZM743.137 186.12V45.0464H796.04C806.878 45.0464 815.969 46.9293 823.317 50.695C830.712 54.4604 836.29 59.7416 840.056 66.5381C843.867 73.2887 845.774 81.1643 845.774 90.1652C845.774 99.2118 843.846 107.065 839.988 113.723C836.176 120.336 830.551 125.456 823.112 129.084C815.671 132.666 806.533 134.457 795.695 134.457H758.015V113.241H792.252C798.589 113.241 803.778 112.369 807.819 110.623C811.859 108.832 814.844 106.238 816.774 102.84C818.749 99.3955 819.737 95.1707 819.737 90.1652C819.737 85.1596 818.749 80.8889 816.774 77.3529C814.8 73.7709 811.791 71.0615 807.751 69.2245C803.708 67.3418 798.496 66.4002 792.114 66.4002H768.694V186.12H743.137ZM816.016 122.196L850.939 186.12H822.421L788.118 122.196H816.016ZM869.297 186.12V45.0464H922.2C933.038 45.0464 942.129 47.067 949.477 51.1081C956.872 55.1494 962.45 60.7059 966.215 67.778C970.027 74.804 971.934 82.7947 971.934 91.7494C971.934 100.796 970.027 108.832 966.215 115.859C962.406 122.885 956.779 128.418 949.34 132.46C941.901 136.455 932.739 138.452 921.855 138.452H886.794V117.443H918.412C924.749 117.443 929.938 116.341 933.979 114.137C938.019 111.932 941.004 108.902 942.934 105.044C944.909 101.187 945.897 96.7549 945.897 91.7494C945.897 86.7438 944.909 82.3353 942.934 78.5237C941.004 74.7123 937.998 71.7503 933.911 69.6379C929.868 67.4795 924.656 66.4002 918.274 66.4002H894.854V186.12H869.297Z" fill="#EEF2FF"/>
<mask id="mask0_307_16" style="mask-type:luminance" maskUnits="userSpaceOnUse" x="27" y="29" width="947" height="161">
<path d="M973.602 29H27V190H973.602V29Z" fill="white"/>
<path d="M67.3467 186.121V180.301H88.684C99.6761 180.301 109.698 178.556 118.75 175.064C127.932 171.443 135.885 166.4 142.609 159.934C149.334 153.468 154.506 145.838 158.127 137.045C161.878 128.251 163.753 118.617 163.753 108.142C163.753 97.6677 161.878 88.0335 158.127 79.24C154.506 70.4465 149.334 62.8166 142.609 56.3508C135.885 49.885 127.932 44.9062 118.75 41.4147C109.698 37.7937 99.6761 35.9833 88.684 35.9833H67.3467V30.1641H88.878C100.646 30.1641 111.444 32.1038 121.272 35.9833C131.1 39.8629 139.635 45.2942 146.877 52.2773C154.119 59.2604 159.744 67.472 163.753 76.9123C167.762 86.3525 169.766 96.7624 169.766 108.142C169.766 119.522 167.762 129.997 163.753 139.566C159.744 149.007 154.119 157.218 146.877 164.201C139.635 171.185 131.1 176.616 121.272 180.495C111.444 184.246 100.646 186.121 88.878 186.121H67.3467ZM54.5443 186.121V30.1641H60.3636V186.121H54.5443ZM28.9395 186.121V30.1641H34.7587V186.121H28.9395ZM41.7419 186.121V30.1641H47.5611V186.121H41.7419ZM67.3467 173.318V167.499H88.684C100.969 167.499 111.767 164.977 121.078 159.934C130.389 154.891 137.695 147.907 142.997 138.985C148.299 129.932 150.95 119.652 150.95 108.142C150.95 96.5038 148.299 86.2231 142.997 77.3002C137.695 68.3773 130.389 61.3942 121.078 56.3508C111.767 51.3074 100.969 48.7858 88.684 48.7858H67.3467V42.9665H88.878C102.198 42.9665 113.965 45.8115 124.182 51.5014C134.398 57.0621 142.415 64.7564 148.235 74.5845C154.054 84.2833 156.964 95.4693 156.964 108.142C156.964 120.815 154.054 132.066 148.235 141.894C142.415 151.722 134.398 159.417 124.182 164.977C113.965 170.538 102.198 173.318 88.878 173.318H67.3467ZM67.3467 160.516V154.697H88.684C98.5122 154.697 107.112 152.757 114.483 148.877C121.854 144.998 127.609 139.566 131.747 132.583C135.885 125.471 137.954 117.324 137.954 108.142C137.954 98.8315 135.885 90.6845 131.747 83.7014C127.609 76.7183 121.854 71.287 114.483 67.4074C107.112 63.5279 98.5122 61.5882 88.684 61.5882H67.3467V55.7689H88.878C99.7407 55.7689 109.31 58.032 117.586 62.558C125.863 66.9549 132.329 73.0973 136.984 80.9857C141.639 88.7448 143.967 97.7971 143.967 108.142C143.967 118.488 141.639 127.605 136.984 135.493C132.329 143.381 125.863 149.524 117.586 153.921C109.31 158.318 99.7407 160.516 88.878 160.516H67.3467ZM223.625 186.121V180.301H244.963C255.955 180.301 265.978 178.556 275.029 175.064C284.212 171.443 292.165 166.4 298.888 159.934C305.613 153.468 310.786 145.838 314.406 137.045C318.158 128.251 320.031 118.617 320.031 108.142C320.031 97.6677 318.158 88.0335 314.406 79.24C310.786 70.4465 305.613 62.8166 298.888 56.3508C292.165 49.885 284.212 44.9062 275.029 41.4147C265.978 37.7937 255.955 35.9833 244.963 35.9833H223.625V30.1641H245.157C256.925 30.1641 267.724 32.1038 277.551 35.9833C287.379 39.8629 295.914 45.2942 303.155 52.2773C310.398 59.2604 316.024 67.472 320.031 76.9123C324.041 86.3525 326.045 96.7624 326.045 108.142C326.045 119.522 324.041 129.997 320.031 139.566C316.024 149.007 310.398 157.218 303.155 164.201C295.914 171.185 287.379 176.616 277.551 180.495C267.724 184.246 256.925 186.121 245.157 186.121H223.625ZM210.824 186.121V30.1641H216.642V186.121H210.824ZM185.219 186.121V30.1641H191.038V186.121H185.219ZM198.021 186.121V30.1641H203.841V186.121H198.021ZM223.625 173.318V167.499H244.963C257.249 167.499 268.046 164.977 277.357 159.934C286.667 154.891 293.975 147.907 299.276 138.985C304.579 129.932 307.229 119.652 307.229 108.142C307.229 96.5038 304.579 86.2231 299.276 77.3002C293.975 68.3773 286.667 61.3942 277.357 56.3508C268.046 51.3074 257.249 48.7858 244.963 48.7858H223.625V42.9665H245.157C258.477 42.9665 270.245 45.8115 280.46 51.5014C290.677 57.0621 298.694 64.7564 304.513 74.5845C310.333 84.2833 313.242 95.4693 313.242 108.142C313.242 120.815 310.333 132.066 304.513 141.894C298.694 151.722 290.677 159.417 280.46 164.977C270.245 170.538 258.477 173.318 245.157 173.318H223.625ZM223.625 160.516V154.697H244.963C254.791 154.697 263.39 152.757 270.761 148.877C278.133 144.998 283.888 139.566 288.025 132.583C292.165 125.471 294.233 117.324 294.233 108.142C294.233 98.8315 292.165 90.6845 288.025 83.7014C283.888 76.7183 278.133 71.287 270.761 67.4074C263.39 63.5279 254.791 61.5882 244.963 61.5882H223.625V55.7689H245.157C256.019 55.7689 265.59 58.032 273.865 62.558C282.142 66.9549 288.607 73.0973 293.263 80.9857C297.918 88.7448 300.246 97.7971 300.246 108.142C300.246 118.488 297.918 127.605 293.263 135.493C288.607 143.381 282.142 149.524 273.865 153.921C265.59 158.318 256.019 160.516 245.157 160.516H223.625ZM399.885 163.426C392.514 163.426 386.371 161.938 381.458 158.964C376.672 155.99 373.051 152.046 370.595 147.132C368.267 142.088 367.103 136.527 367.103 130.45V30.1641H372.923V130.45C372.923 137.95 375.056 144.351 379.324 149.653C383.591 154.955 390.445 157.606 399.885 157.606C409.324 157.606 416.179 154.955 420.447 149.653C424.714 144.351 426.848 137.95 426.848 130.45V30.1641H432.667V130.45C432.667 136.527 431.438 142.088 428.982 147.132C426.654 152.046 423.033 155.99 418.119 158.964C413.334 161.938 407.256 163.426 399.885 163.426ZM399.885 189.03C387.859 189.03 377.448 186.444 368.655 181.271C359.99 175.969 353.265 168.857 348.482 159.934C343.826 151.011 341.499 141.183 341.499 130.45V30.1641H347.318V130.45C347.318 140.148 349.386 149.007 353.525 157.024C357.793 165.042 363.806 171.443 371.565 176.228C379.452 180.883 388.893 183.211 399.885 183.211C410.876 183.211 420.253 180.883 428.012 176.228C435.899 171.443 441.912 165.042 446.052 157.024C450.319 149.007 452.453 140.148 452.453 130.45V30.1641H458.272V130.45C458.272 141.183 455.878 151.011 451.095 159.934C446.44 168.857 439.778 175.969 431.116 181.271C422.451 186.444 412.04 189.03 399.885 189.03ZM399.885 176.228C390.187 176.228 381.91 174.159 375.056 170.021C368.331 165.883 363.158 160.386 359.538 153.533C356.047 146.55 354.301 138.855 354.301 130.45V30.1641H360.12V130.45C360.12 137.821 361.606 144.545 364.582 150.623C367.685 156.572 372.211 161.356 378.16 164.977C384.107 168.598 391.35 170.409 399.885 170.409C408.548 170.409 415.791 168.598 421.611 164.977C427.558 161.356 432.019 156.572 434.995 150.623C438.099 144.545 439.65 137.821 439.65 130.45V30.1641H445.47V130.45C445.47 138.855 443.658 146.55 440.038 153.533C436.547 160.386 431.374 165.883 424.52 170.021C417.795 174.159 409.584 176.228 399.885 176.228ZM537.637 82.1496L533.952 77.3002L568.092 30.1641H575.269L537.637 82.1496ZM545.784 92.6243L542.099 87.7749L583.998 30.1641H591.175L545.784 92.6243ZM553.931 103.099L550.246 98.2496L599.904 30.1641H607.081L553.931 103.099ZM503.304 186.121V30.1641H509.123V186.121H503.304ZM477.699 186.121V30.1641H483.518V186.121H477.699ZM490.501 186.121V30.1641H496.32V186.121H490.501ZM601.649 186.121L525.999 88.1629L529.684 83.3135L609.021 186.121H601.649ZM585.549 186.121L518.24 99.0255L521.925 93.9821L592.92 186.121H585.549ZM569.255 186.121L510.481 109.888L513.972 105.039L576.627 186.121H569.255Z" fill="black"/>
<path d="M625.312 186.12V45.0464H717.065V66.4693H650.867V104.768H712.313V126.191H650.867V164.697H717.616V186.12H625.312ZM743.137 186.12V45.0464H796.04C806.878 45.0464 815.969 46.9293 823.317 50.695C830.712 54.4604 836.29 59.7416 840.056 66.5381C843.867 73.2887 845.774 81.1643 845.774 90.1652C845.774 99.2118 843.846 107.065 839.988 113.723C836.176 120.336 830.551 125.456 823.112 129.084C815.671 132.666 806.533 134.457 795.695 134.457H758.015V113.241H792.252C798.589 113.241 803.778 112.369 807.819 110.623C811.859 108.832 814.844 106.238 816.774 102.84C818.749 99.3955 819.737 95.1707 819.737 90.1652C819.737 85.1596 818.749 80.8889 816.774 77.3529C814.8 73.7709 811.791 71.0615 807.751 69.2245C803.708 67.3418 798.496 66.4002 792.114 66.4002H768.694V186.12H743.137ZM816.016 122.196L850.939 186.12H822.421L788.118 122.196H816.016ZM869.297 186.12V45.0464H922.2C933.038 45.0464 942.129 47.067 949.477 51.1081C956.872 55.1494 962.45 60.7059 966.215 67.778C970.027 74.804 971.934 82.7947 971.934 91.7494C971.934 100.796 970.027 108.832 966.215 115.859C962.406 122.885 956.779 128.418 949.34 132.46C941.901 136.455 932.739 138.452 921.855 138.452H886.794V117.443H918.412C924.749 117.443 929.938 116.341 933.979 114.137C938.019 111.932 941.004 108.902 942.934 105.044C944.909 101.187 945.897 96.7549 945.897 91.7494C945.897 86.7438 944.909 82.3353 942.934 78.5237C941.004 74.7123 937.998 71.7503 933.911 69.6379C929.868 67.4795 924.656 66.4002 918.274 66.4002H894.854V186.12H869.297Z" fill="black"/>
</mask>
<g mask="url(#mask0_307_16)">
<path d="M67.3459 186.121H66.376V187.091H67.3459V186.121ZM67.3459 180.302V179.332H66.376V180.302H67.3459ZM118.749 175.064L119.098 175.969L119.105 175.966L118.749 175.064ZM158.127 137.045L157.234 136.664L157.23 136.676L158.127 137.045ZM158.127 79.2401L157.23 79.6094L157.234 79.6205L158.127 79.2401ZM118.749 41.4148L118.389 42.3154L118.405 42.3213L118.749 41.4148ZM67.3459 35.9835H66.376V36.9534H67.3459V35.9835ZM67.3459 30.1642V29.1943H66.376V30.1642H67.3459ZM163.752 139.567L164.645 139.946L164.646 139.941L163.752 139.567ZM121.271 180.496L121.617 181.402L121.627 181.398L121.271 180.496ZM54.5435 186.121H53.5736V187.091H54.5435V186.121ZM54.5435 30.1642V29.1943H53.5736V30.1642H54.5435ZM60.3627 30.1642H61.3326V29.1943H60.3627V30.1642ZM60.3627 186.121V187.091H61.3326V186.121H60.3627ZM28.9386 186.121H27.9688V187.091H28.9386V186.121ZM28.9386 30.1642V29.1943H27.9688V30.1642H28.9386ZM34.7579 30.1642H35.7278V29.1943H34.7579V30.1642ZM34.7579 186.121V187.091H35.7278V186.121H34.7579ZM41.741 186.121H40.7712V187.091H41.741V186.121ZM41.741 30.1642V29.1943H40.7712V30.1642H41.741ZM47.5603 30.1642H48.5302V29.1943H47.5603V30.1642ZM47.5603 186.121V187.091H48.5302V186.121H47.5603ZM67.3459 173.318H66.376V174.288H67.3459V173.318ZM67.3459 167.499V166.529H66.376V167.499H67.3459ZM142.996 138.985L143.83 139.48L143.833 139.475L142.996 138.985ZM67.3459 48.7859H66.376V49.7558H67.3459V48.7859ZM67.3459 42.9666V41.9967H66.376V42.9666H67.3459ZM124.181 51.5016L123.709 52.3489L123.717 52.3535L124.181 51.5016ZM148.234 74.5847L147.399 75.0788L147.402 75.0836L148.234 74.5847ZM67.3459 160.516H66.376V161.486H67.3459V160.516ZM67.3459 154.697V153.727H66.376V154.697H67.3459ZM131.746 132.583L132.58 133.078L132.584 133.071L131.746 132.583ZM67.3459 61.5883H66.376V62.5582H67.3459V61.5883ZM67.3459 55.769V54.7992H66.376V55.769H67.3459ZM117.586 62.5582L117.12 63.4092L117.131 63.4148L117.586 62.5582ZM136.983 80.9859L136.148 81.4788L136.152 81.4848L136.983 80.9859ZM67.3459 186.121H68.3157V180.302H67.3459H66.376V186.121H67.3459ZM67.3459 180.302V181.271H88.6832V180.302V179.332H67.3459V180.302ZM88.6832 180.302V181.271C99.7788 181.271 109.921 179.509 119.098 175.969L118.749 175.064L118.401 174.159C109.473 177.603 99.5717 179.332 88.6832 179.332V180.302ZM118.749 175.064L119.105 175.966C128.398 172.302 136.46 167.192 143.281 160.633L142.609 159.934L141.936 159.235C135.308 165.608 127.464 170.585 118.394 174.162L118.749 175.064ZM142.609 159.934L143.281 160.633C150.104 154.072 155.352 146.33 159.023 137.414L158.127 137.045L157.23 136.676C153.659 145.347 148.562 152.864 141.936 159.235L142.609 159.934ZM158.127 137.045L159.019 137.425C162.825 128.5 164.722 118.735 164.722 108.143H163.752H162.782C162.782 118.499 160.928 128.002 157.234 136.664L158.127 137.045ZM163.752 108.143H164.722C164.722 97.5497 162.825 87.7846 159.019 78.8597L158.127 79.2401L157.234 79.6205C160.929 88.2829 162.782 97.7859 162.782 108.143H163.752ZM158.127 79.2401L159.023 78.8708C155.352 69.9555 150.104 62.2127 143.281 55.6519L142.609 56.351L141.936 57.05C148.562 63.421 153.659 70.9378 157.23 79.6094L158.127 79.2401ZM142.609 56.351L143.281 55.6519C136.457 49.0908 128.391 44.0438 119.094 40.5082L118.749 41.4148L118.405 42.3213C127.471 45.769 135.311 50.6795 141.936 57.05L142.609 56.351ZM118.749 41.4148L119.11 40.5144C109.929 36.842 99.7829 35.0136 88.6832 35.0136V35.9835V36.9534C99.5674 36.9534 109.465 38.7459 118.389 42.3154L118.749 41.4148ZM88.6832 35.9835V35.0136H67.3459V35.9835V36.9534H88.6832V35.9835ZM67.3459 35.9835H68.3157V30.1642H67.3459H66.376V35.9835H67.3459ZM67.3459 30.1642V31.1341H88.8772V30.1642V29.1943H67.3459V30.1642ZM88.8772 30.1642V31.1341C100.537 31.1341 111.213 33.0556 120.915 36.8857L121.271 35.9835L121.627 35.0813C111.674 31.1523 100.753 29.1943 88.8772 29.1943V30.1642ZM121.271 35.9835L120.915 36.8857C130.631 40.721 139.057 46.085 146.203 52.9756L146.876 52.2775L147.549 51.5793C140.212 44.5037 131.567 39.0051 121.627 35.0813L121.271 35.9835ZM146.876 52.2775L146.203 52.9756C153.349 59.8664 158.9 67.969 162.859 77.2914L163.752 76.9124L164.645 76.5334C160.586 66.9756 154.887 58.6548 147.549 51.5793L146.876 52.2775ZM163.752 76.9124L162.859 77.2914C166.812 86.5992 168.795 96.8785 168.795 108.143H169.765H170.735C170.735 96.6467 168.71 86.1059 164.645 76.5334L163.752 76.9124ZM169.765 108.143H168.795C168.795 119.406 166.812 129.752 162.857 139.192L163.752 139.567L164.646 139.941C168.71 130.242 170.735 119.638 170.735 108.143H169.765ZM163.752 139.567L162.859 139.188C158.9 148.51 153.349 156.613 146.203 163.503L146.876 164.202L147.549 164.9C154.887 157.824 160.586 149.503 164.645 139.946L163.752 139.567ZM146.876 164.202L146.203 163.503C139.057 170.394 130.631 175.758 120.915 179.593L121.271 180.496L121.627 181.398C131.567 177.474 140.212 171.975 147.549 164.9L146.876 164.202ZM121.271 180.496L120.925 179.589C111.22 183.293 100.541 185.151 88.8772 185.151V186.121V187.091C100.749 187.091 111.666 185.199 121.617 181.402L121.271 180.496ZM88.8772 186.121V185.151H67.3459V186.121V187.091H88.8772V186.121ZM54.5435 186.121H55.5133V30.1642H54.5435H53.5736V186.121H54.5435ZM54.5435 30.1642V31.1341H60.3627V30.1642V29.1943H54.5435V30.1642ZM60.3627 30.1642H59.3928V186.121H60.3627H61.3326V30.1642H60.3627ZM60.3627 186.121V185.151H54.5435V186.121V187.091H60.3627V186.121ZM28.9386 186.121H29.9085V30.1642H28.9386H27.9688V186.121H28.9386ZM28.9386 30.1642V31.1341H34.7579V30.1642V29.1943H28.9386V30.1642ZM34.7579 30.1642H33.788V186.121H34.7579H35.7278V30.1642H34.7579ZM34.7579 186.121V185.151H28.9386V186.121V187.091H34.7579V186.121ZM41.741 186.121H42.7109V30.1642H41.741H40.7712V186.121H41.741ZM41.741 30.1642V31.1341H47.5603V30.1642V29.1943H41.741V30.1642ZM47.5603 30.1642H46.5904V186.121H47.5603H48.5302V30.1642H47.5603ZM47.5603 186.121V185.151H41.741V186.121V187.091H47.5603V186.121ZM67.3459 173.318H68.3157V167.499H67.3459H66.376V173.318H67.3459ZM67.3459 167.499V168.469H88.6832V167.499V166.529H67.3459V167.499ZM88.6832 167.499V168.469C101.104 168.469 112.065 165.919 121.539 160.787L121.077 159.934L120.615 159.081C111.467 164.036 100.833 166.529 88.6832 166.529V167.499ZM121.077 159.934L121.539 160.787C131.001 155.662 138.437 148.557 143.83 139.48L142.996 138.985L142.163 138.489C136.952 147.259 129.775 154.119 120.615 159.081L121.077 159.934ZM142.996 138.985L143.833 139.475C149.231 130.26 151.919 119.807 151.919 108.143H150.949H149.98C149.98 119.497 147.366 129.605 142.16 138.495L142.996 138.985ZM150.949 108.143H151.919C151.919 96.3513 149.232 85.8952 143.83 76.8049L142.996 77.3004L142.163 77.7958C147.365 86.5513 149.98 96.6566 149.98 108.143H150.949ZM142.996 77.3004L143.83 76.8049C138.437 67.7284 131.001 60.6231 121.539 55.4982L121.077 56.351L120.615 57.2037C129.775 62.1656 136.952 69.0265 142.163 77.7958L142.996 77.3004ZM121.077 56.351L121.539 55.4982C112.065 50.3664 101.104 47.816 88.6832 47.816V48.7859V49.7558C100.833 49.7558 111.467 52.2488 120.615 57.2037L121.077 56.351ZM88.6832 48.7859V47.816H67.3459V48.7859V49.7558H88.6832V48.7859ZM67.3459 48.7859H68.3157V42.9666H67.3459H66.376V48.7859H67.3459ZM67.3459 42.9666V43.9365H88.8772V42.9666V41.9967H67.3459V42.9666ZM88.8772 42.9666V43.9365C102.055 43.9365 113.656 46.7499 123.709 52.3489L124.181 51.5016L124.653 50.6543C114.273 44.8732 102.339 41.9967 88.8772 41.9967V42.9666ZM124.181 51.5016L123.717 52.3535C133.783 57.832 141.671 65.404 147.399 75.0788L148.234 74.5847L149.068 74.0906C143.158 64.109 135.011 56.2924 124.644 50.6496L124.181 51.5016ZM148.234 74.5847L147.402 75.0836C153.12 84.6142 155.993 95.6235 155.993 108.143H156.963H157.933C157.933 95.3153 154.986 83.9528 149.065 74.0856L148.234 74.5847ZM156.963 108.143H155.993C155.993 120.661 153.12 131.738 147.399 141.4L148.234 141.894L149.068 142.388C154.986 132.395 157.933 120.97 157.933 108.143H156.963ZM148.234 141.894L147.399 141.4C141.671 151.075 133.783 158.647 123.717 164.126L124.181 164.977L124.644 165.829C135.011 160.187 143.158 152.37 149.068 142.388L148.234 141.894ZM124.181 164.977L123.717 164.126C113.663 169.598 102.059 172.349 88.8772 172.349V173.318V174.288C102.335 174.288 114.267 171.478 124.644 165.829L124.181 164.977ZM88.8772 173.318V172.349H67.3459V173.318V174.288H88.8772V173.318ZM67.3459 160.516H68.3157V154.697H67.3459H66.376V160.516H67.3459ZM67.3459 154.697V155.667H88.6832V154.697V153.727H67.3459V154.697ZM88.6832 154.697V155.667C98.6404 155.667 107.4 153.701 114.934 149.736L114.482 148.877L114.03 148.019C106.822 151.813 98.3822 153.727 88.6832 153.727V154.697ZM114.482 148.877L114.934 149.736C122.459 145.775 128.348 140.22 132.58 133.078L131.746 132.583L130.912 132.089C126.867 138.914 121.247 144.221 114.03 148.019L114.482 148.877ZM131.746 132.583L132.584 133.071C136.818 125.794 138.923 117.475 138.923 108.143H137.953H136.983C136.983 117.173 134.95 125.148 130.907 132.096L131.746 132.583ZM137.953 108.143H138.923C138.923 98.6837 136.819 90.3608 132.58 83.2071L131.746 83.7016L130.912 84.196C134.949 91.0086 136.983 98.9797 136.983 108.143H137.953ZM131.746 83.7016L132.58 83.2071C128.348 76.0655 122.459 70.51 114.934 66.5492L114.482 67.4076L114.03 68.2659C121.247 72.0642 126.867 77.3713 130.912 84.196L131.746 83.7016ZM114.482 67.4076L114.934 66.5492C107.4 62.5844 98.6404 60.6184 88.6832 60.6184V61.5883V62.5582C98.3822 62.5582 106.822 64.4718 114.03 68.2659L114.482 67.4076ZM88.6832 61.5883V60.6184H67.3459V61.5883V62.5582H88.6832V61.5883ZM67.3459 61.5883H68.3157V55.769H67.3459H66.376V61.5883H67.3459ZM67.3459 55.769V56.7389H88.8772V55.769V54.7992H67.3459V55.769ZM88.8772 55.769V56.7389C99.6021 56.7389 109.007 58.9722 117.12 63.4092L117.586 62.5582L118.051 61.7072C109.612 57.0919 99.8776 54.7992 88.8772 54.7992V55.769ZM117.586 62.5582L117.131 63.4148C125.253 67.7296 131.586 73.7481 136.148 81.4788L136.983 80.9859L137.818 80.493C133.07 72.4469 126.471 66.1803 118.041 61.7016L117.586 62.5582ZM136.983 80.9859L136.152 81.4848C140.704 89.0726 142.996 97.9471 142.996 108.143H143.966H144.936C144.936 97.6471 142.573 88.4173 137.815 80.4868L136.983 80.9859ZM143.966 108.143H142.996C142.996 118.338 140.704 127.28 136.148 135L136.983 135.493L137.818 135.986C142.573 127.93 144.936 118.638 144.936 108.143H143.966ZM136.983 135.493L136.148 135C131.586 142.731 125.253 148.749 117.131 153.064L117.586 153.921L118.041 154.777C126.471 150.299 133.07 144.032 137.818 135.986L136.983 135.493ZM117.586 153.921L117.131 153.064C109.015 157.376 99.6066 159.546 88.8772 159.546V160.516V161.486C99.8731 161.486 109.604 159.26 118.041 154.777L117.586 153.921ZM88.8772 160.516V159.546H67.3459V160.516V161.486H88.8772V160.516ZM223.624 186.121H222.655V187.091H223.624V186.121ZM223.624 180.302V179.332H222.655V180.302H223.624ZM275.028 175.064L275.377 175.969L275.385 175.966L275.028 175.064ZM314.405 137.045L313.513 136.664L313.509 136.676L314.405 137.045ZM314.405 79.2401L313.509 79.6094L313.513 79.6205L314.405 79.2401ZM275.028 41.4148L274.669 42.3154L274.685 42.3213L275.028 41.4148ZM223.624 35.9835H222.655V36.9534H223.624V35.9835ZM223.624 30.1642V29.1943H222.655V30.1642H223.624ZM320.031 139.567L320.925 139.946L320.927 139.941L320.031 139.567ZM277.55 180.496L277.897 181.402L277.907 181.398L277.55 180.496ZM210.823 186.121H209.853V187.091H210.823V186.121ZM210.823 30.1642V29.1943H209.853V30.1642H210.823ZM216.641 30.1642H217.611V29.1943H216.641V30.1642ZM216.641 186.121V187.091H217.611V186.121H216.641ZM185.218 186.121H184.248V187.091H185.218V186.121ZM185.218 30.1642V29.1943H184.248V30.1642H185.218ZM191.037 30.1642H192.007V29.1943H191.037V30.1642ZM191.037 186.121V187.091H192.007V186.121H191.037ZM198.02 186.121H197.051V187.091H198.02V186.121ZM198.02 30.1642V29.1943H197.051V30.1642H198.02ZM203.84 30.1642H204.81V29.1943H203.84V30.1642ZM203.84 186.121V187.091H204.81V186.121H203.84ZM223.624 173.318H222.655V174.288H223.624V173.318ZM223.624 167.499V166.529H222.655V167.499H223.624ZM299.275 138.985L300.109 139.48L300.113 139.475L299.275 138.985ZM223.624 48.7859H222.655V49.7558H223.624V48.7859ZM223.624 42.9666V41.9967H222.655V42.9666H223.624ZM280.459 51.5016L279.988 52.3489L279.996 52.3535L280.459 51.5016ZM304.512 74.5847L303.678 75.0788L303.682 75.0836L304.512 74.5847ZM223.624 160.516H222.655V161.486H223.624V160.516ZM223.624 154.697V153.727H222.655V154.697H223.624ZM288.024 132.583L288.861 133.078L288.864 133.071L288.024 132.583ZM223.624 61.5883H222.655V62.5582H223.624V61.5883ZM223.624 55.769V54.7992H222.655V55.769H223.624ZM273.864 62.5582L273.399 63.4092L273.41 63.4148L273.864 62.5582ZM293.262 80.9859L292.428 81.4788L292.432 81.4848L293.262 80.9859ZM223.624 186.121H224.594V180.302H223.624H222.655V186.121H223.624ZM223.624 180.302V181.271H244.962V180.302V179.332H223.624V180.302ZM244.962 180.302V181.271C256.057 181.271 266.2 179.509 275.377 175.969L275.028 175.064L274.679 174.159C265.752 177.603 255.852 179.332 244.962 179.332V180.302ZM275.028 175.064L275.385 175.966C284.676 172.302 292.74 167.192 299.56 160.633L298.887 159.934L298.216 159.235C291.588 165.608 283.743 170.585 274.673 174.162L275.028 175.064ZM298.887 159.934L299.56 160.633C306.384 154.072 311.631 146.33 315.303 137.414L314.405 137.045L313.509 136.676C309.938 145.347 304.842 152.864 298.216 159.235L298.887 159.934ZM314.405 137.045L315.298 137.425C319.105 128.5 321 118.735 321 108.143H320.031H319.061C319.061 118.499 317.208 128.002 313.513 136.664L314.405 137.045ZM320.031 108.143H321C321 97.5497 319.105 87.7846 315.298 78.8597L314.405 79.2401L313.513 79.6205C317.208 88.2829 319.061 97.7859 319.061 108.143H320.031ZM314.405 79.2401L315.303 78.8708C311.631 69.9555 306.384 62.2127 299.56 55.6519L298.887 56.351L298.216 57.05C304.842 63.421 309.938 70.9378 313.509 79.6094L314.405 79.2401ZM298.887 56.351L299.56 55.6519C292.736 49.0908 284.671 44.0438 275.373 40.5082L275.028 41.4148L274.685 42.3213C283.751 45.769 291.59 50.6795 298.216 57.05L298.887 56.351ZM275.028 41.4148L275.389 40.5144C266.208 36.842 256.063 35.0136 244.962 35.0136V35.9835V36.9534C255.848 36.9534 265.744 38.7459 274.669 42.3154L275.028 41.4148ZM244.962 35.9835V35.0136H223.624V35.9835V36.9534H244.962V35.9835ZM223.624 35.9835H224.594V30.1642H223.624H222.655V35.9835H223.624ZM223.624 30.1642V31.1341H245.156V30.1642V29.1943H223.624V30.1642ZM245.156 30.1642V31.1341C256.816 31.1341 267.492 33.0556 277.195 36.8857L277.55 35.9835L277.907 35.0813C267.954 31.1523 257.033 29.1943 245.156 29.1943V30.1642ZM277.55 35.9835L277.195 36.8857C286.911 40.721 295.335 46.085 302.482 52.9756L303.155 52.2775L303.828 51.5793C296.492 44.5037 287.846 39.0051 277.907 35.0813L277.55 35.9835ZM303.155 52.2775L302.482 52.9756C309.628 59.8664 315.179 67.969 319.138 77.2914L320.031 76.9124L320.925 76.5334C316.865 66.9756 311.166 58.6548 303.828 51.5793L303.155 52.2775ZM320.031 76.9124L319.138 77.2914C323.091 86.5992 325.074 96.8785 325.074 108.143H326.044H327.014C327.014 96.6467 324.989 86.1059 320.925 76.5334L320.031 76.9124ZM326.044 108.143H325.074C325.074 119.406 323.091 129.752 319.136 139.192L320.031 139.567L320.927 139.941C324.989 130.242 327.014 119.638 327.014 108.143H326.044ZM320.031 139.567L319.138 139.188C315.179 148.51 309.628 156.613 302.482 163.503L303.155 164.202L303.828 164.9C311.166 157.824 316.865 149.503 320.925 139.946L320.031 139.567ZM303.155 164.202L302.482 163.503C295.335 170.394 286.911 175.758 277.195 179.593L277.55 180.496L277.907 181.398C287.846 177.474 296.492 171.975 303.828 164.9L303.155 164.202ZM277.55 180.496L277.205 179.589C267.5 183.293 256.82 185.151 245.156 185.151V186.121V187.091C257.029 187.091 267.946 185.199 277.897 181.402L277.55 180.496ZM245.156 186.121V185.151H223.624V186.121V187.091H245.156V186.121ZM210.823 186.121H211.793V30.1642H210.823H209.853V186.121H210.823ZM210.823 30.1642V31.1341H216.641V30.1642V29.1943H210.823V30.1642ZM216.641 30.1642H215.671V186.121H216.641H217.611V30.1642H216.641ZM216.641 186.121V185.151H210.823V186.121V187.091H216.641V186.121ZM185.218 186.121H186.188V30.1642H185.218H184.248V186.121H185.218ZM185.218 30.1642V31.1341H191.037V30.1642V29.1943H185.218V30.1642ZM191.037 30.1642H190.067V186.121H191.037H192.007V30.1642H191.037ZM191.037 186.121V185.151H185.218V186.121V187.091H191.037V186.121ZM198.02 186.121H198.99V30.1642H198.02H197.051V186.121H198.02ZM198.02 30.1642V31.1341H203.84V30.1642V29.1943H198.02V30.1642ZM203.84 30.1642H202.87V186.121H203.84H204.81V30.1642H203.84ZM203.84 186.121V185.151H198.02V186.121V187.091H203.84V186.121ZM223.624 173.318H224.594V167.499H223.624H222.655V173.318H223.624ZM223.624 167.499V168.469H244.962V167.499V166.529H223.624V167.499ZM244.962 167.499V168.469C257.384 168.469 268.344 165.919 277.819 160.787L277.356 159.934L276.894 159.081C267.746 164.036 257.112 166.529 244.962 166.529V167.499ZM277.356 159.934L277.819 160.787C287.28 155.662 294.717 148.557 300.109 139.48L299.275 138.985L298.443 138.489C293.231 147.259 286.056 154.119 276.894 159.081L277.356 159.934ZM299.275 138.985L300.113 139.475C305.51 130.26 308.198 119.807 308.198 108.143H307.228H306.258C306.258 119.497 303.645 129.605 298.439 138.495L299.275 138.985ZM307.228 108.143H308.198C308.198 96.3513 305.511 85.8952 300.109 76.8049L299.275 77.3004L298.443 77.7958C303.645 86.5513 306.258 96.6566 306.258 108.143H307.228ZM299.275 77.3004L300.109 76.8049C294.717 67.7284 287.28 60.6231 277.819 55.4982L277.356 56.351L276.894 57.2037C286.056 62.1656 293.231 69.0265 298.443 77.7958L299.275 77.3004ZM277.356 56.351L277.819 55.4982C268.344 50.3664 257.384 47.816 244.962 47.816V48.7859V49.7558C257.112 49.7558 267.746 52.2488 276.894 57.2037L277.356 56.351ZM244.962 48.7859V47.816H223.624V48.7859V49.7558H244.962V48.7859ZM223.624 48.7859H224.594V42.9666H223.624H222.655V48.7859H223.624ZM223.624 42.9666V43.9365H245.156V42.9666V41.9967H223.624V42.9666ZM245.156 42.9666V43.9365C258.335 43.9365 269.936 46.7499 279.988 52.3489L280.459 51.5016L280.933 50.6543C270.553 44.8732 258.618 41.9967 245.156 41.9967V42.9666ZM280.459 51.5016L279.996 52.3535C290.061 57.832 297.95 65.404 303.678 75.0788L304.512 74.5847L305.348 74.0906C299.438 64.109 291.291 56.2924 280.923 50.6496L280.459 51.5016ZM304.512 74.5847L303.682 75.0836C309.401 84.6142 312.271 95.6235 312.271 108.143H313.241H314.211C314.211 95.3153 311.265 83.9528 305.345 74.0856L304.512 74.5847ZM313.241 108.143H312.271C312.271 120.661 309.401 131.738 303.678 141.4L304.512 141.894L305.348 142.388C311.265 132.395 314.211 120.97 314.211 108.143H313.241ZM304.512 141.894L303.678 141.4C297.95 151.075 290.061 158.647 279.996 164.126L280.459 164.977L280.923 165.829C291.291 160.187 299.438 152.37 305.348 142.388L304.512 141.894ZM280.459 164.977L279.996 164.126C269.942 169.598 258.338 172.349 245.156 172.349V173.318V174.288C258.614 174.288 270.545 171.478 280.923 165.829L280.459 164.977ZM245.156 173.318V172.349H223.624V173.318V174.288H245.156V173.318ZM223.624 160.516H224.594V154.697H223.624H222.655V160.516H223.624ZM223.624 154.697V155.667H244.962V154.697V153.727H223.624V154.697ZM244.962 154.697V155.667C254.921 155.667 263.681 153.701 271.213 149.736L270.761 148.877L270.311 148.019C263.101 151.813 254.663 153.727 244.962 153.727V154.697ZM270.761 148.877L271.213 149.736C278.739 145.775 284.628 140.22 288.861 133.078L288.024 132.583L287.19 132.089C283.146 138.914 277.527 144.221 270.311 148.019L270.761 148.877ZM288.024 132.583L288.864 133.071C293.097 125.794 295.202 117.475 295.202 108.143H294.232H293.262C293.262 117.173 291.229 125.148 287.187 132.096L288.024 132.583ZM294.232 108.143H295.202C295.202 98.6837 293.099 90.3608 288.861 83.2071L288.024 83.7016L287.19 84.196C291.227 91.0086 293.262 98.9797 293.262 108.143H294.232ZM288.024 83.7016L288.861 83.2071C284.628 76.0655 278.739 70.51 271.213 66.5492L270.761 67.4076L270.311 68.2659C277.527 72.0642 283.146 77.3713 287.19 84.196L288.024 83.7016ZM270.761 67.4076L271.213 66.5492C263.681 62.5844 254.921 60.6184 244.962 60.6184V61.5883V62.5582C254.663 62.5582 263.101 64.4718 270.311 68.2659L270.761 67.4076ZM244.962 61.5883V60.6184H223.624V61.5883V62.5582H244.962V61.5883ZM223.624 61.5883H224.594V55.769H223.624H222.655V61.5883H223.624ZM223.624 55.769V56.7389H245.156V55.769V54.7992H223.624V55.769ZM245.156 55.769V56.7389C255.881 56.7389 265.285 58.9722 273.399 63.4092L273.864 62.5582L274.33 61.7072C265.892 57.0919 256.156 54.7992 245.156 54.7992V55.769ZM273.864 62.5582L273.41 63.4148C281.532 67.7296 287.865 73.7481 292.428 81.4788L293.262 80.9859L294.098 80.493C289.349 72.4469 282.75 66.1803 274.32 61.7016L273.864 62.5582ZM293.262 80.9859L292.432 81.4848C296.984 89.0726 299.275 97.9471 299.275 108.143H300.245H301.215C301.215 97.6471 298.852 88.4173 294.094 80.4868L293.262 80.9859ZM300.245 108.143H299.275C299.275 118.338 296.984 127.28 292.428 135L293.262 135.493L294.098 135.986C298.852 127.93 301.215 118.638 301.215 108.143H300.245ZM293.262 135.493L292.428 135C287.865 142.731 281.532 148.749 273.41 153.064L273.864 153.921L274.32 154.777C282.75 150.299 289.349 144.032 294.098 135.986L293.262 135.493ZM273.864 153.921L273.41 153.064C265.294 157.376 255.887 159.546 245.156 159.546V160.516V161.486C256.152 161.486 265.882 159.26 274.32 154.777L273.864 153.921ZM245.156 160.516V159.546H223.624V160.516V161.486H245.156V160.516ZM381.457 158.964L380.945 159.788L380.954 159.794L381.457 158.964ZM370.594 147.132L369.714 147.538L369.719 147.552L369.727 147.565L370.594 147.132ZM367.103 30.1642V29.1943H366.133V30.1642H367.103ZM372.922 30.1642H373.892V29.1943H372.922V30.1642ZM426.847 30.1642V29.1943H425.877V30.1642H426.847ZM432.667 30.1642H433.636V29.1943H432.667V30.1642ZM428.981 147.132L428.108 146.707L428.104 146.717L428.981 147.132ZM418.118 158.964L417.616 158.134L417.606 158.141L418.118 158.964ZM368.654 181.271L368.148 182.099L368.162 182.107L368.654 181.271ZM348.481 159.934L347.62 160.383L347.626 160.392L348.481 159.934ZM341.498 30.1642V29.1943H340.528V30.1642H341.498ZM347.317 30.1642H348.287V29.1943H347.317V30.1642ZM353.524 157.024L352.661 157.469L352.667 157.48L353.524 157.024ZM371.564 176.228L371.054 177.054L371.071 177.063L371.564 176.228ZM428.011 176.228L428.51 177.06L428.513 177.057L428.011 176.228ZM446.051 157.024L445.193 156.569L445.19 156.58L446.051 157.024ZM452.452 30.1642V29.1943H451.482V30.1642H452.452ZM458.271 30.1642H459.241V29.1943H458.271V30.1642ZM451.094 159.934L450.239 159.476L450.235 159.485L451.094 159.934ZM431.115 181.271L431.611 182.104L431.621 182.099L431.115 181.271ZM375.056 170.021L374.547 170.847L374.553 170.851L375.056 170.021ZM359.538 153.533L358.669 153.967L358.68 153.986L359.538 153.533ZM354.3 30.1642V29.1943H353.33V30.1642H354.3ZM360.12 30.1642H361.089V29.1943H360.12V30.1642ZM364.581 150.623L363.71 151.05L363.722 151.072L364.581 150.623ZM421.61 164.977L421.106 164.149L421.098 164.154L421.61 164.977ZM434.994 150.623L434.129 150.182L434.127 150.19L434.994 150.623ZM439.65 30.1642V29.1943H438.68V30.1642H439.65ZM445.469 30.1642H446.439V29.1943H445.469V30.1642ZM440.038 153.533L439.176 153.086L439.172 153.093L440.038 153.533ZM424.52 170.021L424.017 169.19L424.011 169.195L424.52 170.021ZM399.885 163.426V162.456C392.642 162.456 386.685 160.995 381.959 158.135L381.457 158.964L380.954 159.794C386.058 162.883 392.385 164.396 399.885 164.396V163.426ZM381.457 158.964L381.969 158.141C377.333 155.258 373.836 151.447 371.461 146.698L370.594 147.132L369.727 147.565C372.266 152.644 376.012 156.722 380.945 159.788L381.457 158.964ZM370.594 147.132L371.475 146.725C369.211 141.821 368.073 136.401 368.073 130.45H367.103H366.133C366.133 136.655 367.322 142.356 369.714 147.538L370.594 147.132ZM367.103 130.45H368.073V30.1642H367.103H366.133V130.45H367.103ZM367.103 30.1642V31.1341H372.922V30.1642V29.1943H367.103V30.1642ZM372.922 30.1642H371.952V130.45H372.922H373.892V30.1642H372.922ZM372.922 130.45H371.952C371.952 138.147 374.146 144.769 378.567 150.261L379.323 149.653L380.078 149.045C375.964 143.933 373.892 137.753 373.892 130.45H372.922ZM379.323 149.653L378.567 150.261C383.082 155.872 390.271 158.576 399.885 158.576V157.606V156.637C390.618 156.637 384.097 154.039 380.078 149.045L379.323 149.653ZM399.885 157.606V158.576C409.498 158.576 416.685 155.872 421.201 150.261L420.446 149.653L419.69 149.045C415.67 154.039 409.151 156.637 399.885 156.637V157.606ZM420.446 149.653L421.201 150.261C425.621 144.769 427.817 138.147 427.817 130.45H426.847H425.877C425.877 137.753 423.804 143.933 419.69 149.045L420.446 149.653ZM426.847 130.45H427.817V30.1642H426.847H425.877V130.45H426.847ZM426.847 30.1642V31.1341H432.667V30.1642V29.1943H426.847V30.1642ZM432.667 30.1642H431.697V130.45H432.667H433.636V30.1642H432.667ZM432.667 130.45H431.697C431.697 136.393 430.496 141.807 428.108 146.707L428.981 147.132L429.852 147.556C432.379 142.37 433.636 136.662 433.636 130.45H432.667ZM428.981 147.132L428.104 146.717C425.862 151.449 422.376 155.253 417.616 158.134L418.118 158.964L418.621 159.794C423.687 156.727 427.443 152.643 429.858 147.547L428.981 147.132ZM418.118 158.964L417.606 158.141C413.015 160.994 407.13 162.456 399.885 162.456V163.426V164.396C407.382 164.396 413.651 162.883 418.63 159.788L418.118 158.964ZM399.885 189.03V188.061C388 188.061 377.766 185.506 369.145 180.435L368.654 181.271L368.162 182.107C377.129 187.382 387.716 190 399.885 190V189.03ZM368.654 181.271L369.161 180.444C360.643 175.232 354.038 168.246 349.334 159.476L348.481 159.934L347.626 160.392C352.492 169.468 359.338 176.707 368.148 182.099L368.654 181.271ZM348.481 159.934L349.34 159.485C344.762 150.71 342.468 141.038 342.468 130.45H341.498H340.528C340.528 141.329 342.887 151.312 347.62 160.383L348.481 159.934ZM341.498 130.45H342.468V30.1642H341.498H340.528V130.45H341.498ZM341.498 30.1642V31.1341H347.317V30.1642V29.1943H341.498V30.1642ZM347.317 30.1642H346.347V130.45H347.317H348.287V30.1642H347.317ZM347.317 130.45H346.347C346.347 140.292 348.448 149.304 352.663 157.469L353.524 157.024L354.386 156.58C350.324 148.71 348.287 140.006 348.287 130.45H347.317ZM353.524 157.024L352.667 157.48C357.016 165.65 363.149 172.179 371.054 177.054L371.564 176.228L372.072 175.403C364.459 170.708 358.566 164.434 354.38 156.569L353.524 157.024ZM371.564 176.228L371.071 177.063C379.135 181.823 388.754 184.181 399.885 184.181V183.211V182.241C389.032 182.241 379.769 179.944 372.057 175.393L371.564 176.228ZM399.885 183.211V184.181C411.015 184.181 420.57 181.823 428.51 177.06L428.011 176.228L427.513 175.396C419.932 179.944 410.738 182.241 399.885 182.241V183.211ZM428.011 176.228L428.513 177.057C436.552 172.182 442.691 165.649 446.912 157.469L446.051 157.024L445.19 156.58C441.134 164.435 435.246 170.705 427.509 175.399L428.011 176.228ZM446.051 157.024L446.906 157.48C451.253 149.313 453.422 140.296 453.422 130.45H452.452H451.482C451.482 140.001 449.381 148.701 445.193 156.569L446.051 157.024ZM452.452 130.45H453.422V30.1642H452.452H451.482V130.45H452.452ZM452.452 30.1642V31.1341H458.271V30.1642V29.1943H452.452V30.1642ZM458.271 30.1642H457.301V130.45H458.271H459.241V30.1642H458.271ZM458.271 130.45H457.301C457.301 141.033 454.945 150.702 450.239 159.476L451.094 159.934L451.948 160.392C456.813 151.32 459.241 141.333 459.241 130.45H458.271ZM451.094 159.934L450.235 159.485C445.661 168.251 439.124 175.233 430.608 180.444L431.115 181.271L431.621 182.099C440.433 176.706 447.217 169.463 451.954 160.383L451.094 159.934ZM431.115 181.271L430.618 180.439C422.132 185.505 411.901 188.061 399.885 188.061V189.03V190C412.179 190 422.768 187.383 431.611 182.104L431.115 181.271ZM399.885 176.228V175.258C390.325 175.258 382.231 173.22 375.556 169.191L375.056 170.021L374.553 170.851C381.589 175.098 390.046 177.198 399.885 177.198V176.228ZM375.056 170.021L375.564 169.195C368.984 165.146 363.933 159.777 360.395 153.08L359.538 153.533L358.68 153.986C362.383 160.996 367.677 166.62 374.547 170.847L375.056 170.021ZM359.538 153.533L360.405 153.099C356.985 146.261 355.27 138.717 355.27 130.45H354.3H353.33C353.33 138.994 355.103 146.839 358.669 153.967L359.538 153.533ZM354.3 130.45H355.27V30.1642H354.3H353.33V130.45H354.3ZM354.3 30.1642V31.1341H360.12V30.1642V29.1943H354.3V30.1642ZM360.12 30.1642H359.15V130.45H360.12H361.089V30.1642H360.12ZM360.12 130.45H359.15C359.15 137.955 360.665 144.827 363.71 151.05L364.581 150.623L365.452 150.197C362.548 144.263 361.089 137.686 361.089 130.45H360.12ZM364.581 150.623L363.722 151.072C366.909 157.183 371.56 162.097 377.655 165.806L378.159 164.977L378.664 164.149C372.86 160.616 368.459 155.96 365.44 150.175L364.581 150.623ZM378.159 164.977L377.655 165.806C383.787 169.538 391.212 171.379 399.885 171.379V170.409V169.439C391.487 169.439 384.429 167.659 378.664 164.149L378.159 164.977ZM399.885 170.409V171.379C408.681 171.379 416.113 169.54 422.122 165.801L421.61 164.977L421.098 164.154C415.467 167.657 408.416 169.439 399.885 169.439V170.409ZM421.61 164.977L422.114 165.806C428.211 162.095 432.802 157.177 435.861 151.057L434.994 150.623L434.127 150.19C431.237 155.967 426.905 160.618 421.106 164.149L421.61 164.977ZM434.994 150.623L435.857 151.064C439.037 144.839 440.62 137.962 440.62 130.45H439.65H438.68C438.68 137.68 437.159 144.252 434.131 150.182L434.994 150.623ZM439.65 130.45H440.62V30.1642H439.65H438.68V130.45H439.65ZM439.65 30.1642V31.1341H445.469V30.1642V29.1943H439.65V30.1642ZM445.469 30.1642H444.499V130.45H445.469H446.439V30.1642H445.469ZM445.469 130.45H444.499C444.499 138.711 442.72 146.251 439.176 153.086L440.038 153.533L440.899 153.979C444.596 146.849 446.439 139 446.439 130.45H445.469ZM440.038 153.533L439.172 153.093C435.766 159.778 430.723 165.142 424.017 169.19L424.52 170.021L425.02 170.851C432.023 166.623 437.324 160.995 440.901 153.973L440.038 153.533ZM424.52 170.021L424.011 169.195C417.47 173.219 409.444 175.258 399.885 175.258V176.228V177.198C409.721 177.198 418.118 175.098 425.028 170.847L424.52 170.021ZM537.637 82.1498L536.865 82.7365L537.654 83.7776L538.422 82.7185L537.637 82.1498ZM533.951 77.3004L533.165 76.7314L532.743 77.3143L533.179 77.8871L533.951 77.3004ZM568.091 30.1642V29.1943H567.594L567.305 29.5953L568.091 30.1642ZM575.268 30.1642L576.054 30.733L577.167 29.1943H575.268V30.1642ZM545.784 92.6244L545.012 93.2112L545.801 94.2504L546.567 93.1945L545.784 92.6244ZM542.098 87.7751L541.312 87.2046L540.89 87.7879L541.326 88.3618L542.098 87.7751ZM583.997 30.1642V29.1943H583.502L583.211 29.5937L583.997 30.1642ZM591.174 30.1642L591.958 30.7343L593.077 29.1943H591.174V30.1642ZM553.931 103.099L553.159 103.686L553.946 104.724L554.714 103.67L553.931 103.099ZM550.245 98.2497L549.461 97.6783L549.035 98.2616L549.473 98.8365L550.245 98.2497ZM599.903 30.1642V29.1943H599.408L599.119 29.5928L599.903 30.1642ZM607.08 30.1642L607.864 30.7355L608.987 29.1943H607.08V30.1642ZM503.303 186.121H502.333V187.091H503.303V186.121ZM503.303 30.1642V29.1943H502.333V30.1642H503.303ZM509.122 30.1642H510.092V29.1943H509.122V30.1642ZM509.122 186.121V187.091H510.092V186.121H509.122ZM477.698 186.121H476.728V187.091H477.698V186.121ZM477.698 30.1642V29.1943H476.728V30.1642H477.698ZM483.517 30.1642H484.487V29.1943H483.517V30.1642ZM483.517 186.121V187.091H484.487V186.121H483.517ZM490.5 186.121H489.531V187.091H490.5V186.121ZM490.5 30.1642V29.1943H489.531V30.1642H490.5ZM496.32 30.1642H497.29V29.1943H496.32V30.1642ZM496.32 186.121V187.091H497.29V186.121H496.32ZM601.649 186.121L600.88 186.714L601.172 187.091H601.649V186.121ZM525.998 88.163L525.226 87.5762L524.776 88.1677L525.23 88.7558L525.998 88.163ZM529.684 83.3136L530.45 82.721L529.678 81.7185L528.912 82.7268L529.684 83.3136ZM609.02 186.121V187.091H610.992L609.788 185.528L609.02 186.121ZM585.549 186.121L584.781 186.714L585.071 187.091H585.549V186.121ZM518.239 99.0257L517.455 98.4534L517.025 99.0419L517.471 99.6186L518.239 99.0257ZM521.925 93.9823L522.693 93.3903L521.903 92.3667L521.141 93.4101L521.925 93.9823ZM592.92 186.121V187.091H594.891L593.688 185.529L592.92 186.121ZM569.255 186.121L568.487 186.713L568.777 187.091H569.255V186.121ZM510.48 109.888L509.692 109.322L509.27 109.908L509.712 110.481L510.48 109.888ZM513.972 105.039L514.738 104.446L513.944 103.417L513.184 104.472L513.972 105.039ZM576.626 186.121V187.091H578.6L577.392 185.528L576.626 186.121ZM537.637 82.1498L538.409 81.563L534.723 76.7136L533.951 77.3004L533.179 77.8871L536.865 82.7365L537.637 82.1498ZM533.951 77.3004L534.737 77.8693L568.876 30.7331L568.091 30.1642L567.305 29.5953L533.165 76.7314L533.951 77.3004ZM568.091 30.1642V31.1341H575.268V30.1642V29.1943H568.091V30.1642ZM575.268 30.1642L574.482 29.5955L536.851 81.581L537.637 82.1498L538.422 82.7185L576.054 30.733L575.268 30.1642ZM545.784 92.6244L546.556 92.0377L542.87 87.1883L542.098 87.7751L541.326 88.3618L545.012 93.2112L545.784 92.6244ZM542.098 87.7751L542.882 88.3455L584.781 30.7347L583.997 30.1642L583.211 29.5937L541.312 87.2046L542.098 87.7751ZM583.997 30.1642V31.1341H591.174V30.1642V29.1943H583.997V30.1642ZM591.174 30.1642L590.388 29.5941L544.998 92.0544L545.784 92.6244L546.567 93.1945L591.958 30.7343L591.174 30.1642ZM553.931 103.099L554.703 102.512L551.017 97.663L550.245 98.2497L549.473 98.8365L553.159 103.686L553.931 103.099ZM550.245 98.2497L551.029 98.8212L600.687 30.7357L599.903 30.1642L599.119 29.5928L549.461 97.6783L550.245 98.2497ZM599.903 30.1642V31.1341H607.08V30.1642V29.1943H599.903V30.1642ZM607.08 30.1642L606.296 29.593L553.147 102.528L553.931 103.099L554.714 103.67L607.864 30.7355L607.08 30.1642ZM503.303 186.121H504.273V30.1642H503.303H502.333V186.121H503.303ZM503.303 30.1642V31.1341H509.122V30.1642V29.1943H503.303V30.1642ZM509.122 30.1642H508.152V186.121H509.122H510.092V30.1642H509.122ZM509.122 186.121V185.151H503.303V186.121V187.091H509.122V186.121ZM477.698 186.121H478.668V30.1642H477.698H476.728V186.121H477.698ZM477.698 30.1642V31.1341H483.517V30.1642V29.1943H477.698V30.1642ZM483.517 30.1642H482.547V186.121H483.517H484.487V30.1642H483.517ZM483.517 186.121V185.151H477.698V186.121V187.091H483.517V186.121ZM490.5 186.121H491.47V30.1642H490.5H489.531V186.121H490.5ZM490.5 30.1642V31.1341H496.32V30.1642V29.1943H490.5V30.1642ZM496.32 30.1642H495.35V186.121H496.32H497.29V30.1642H496.32ZM496.32 186.121V185.151H490.5V186.121V187.091H496.32V186.121ZM601.649 186.121L602.415 185.528L526.764 87.5702L525.998 88.163L525.23 88.7558L600.88 186.714L601.649 186.121ZM525.998 88.163L526.77 88.7498L530.456 83.9004L529.684 83.3136L528.912 82.7268L525.226 87.5762L525.998 88.163ZM529.684 83.3136L528.915 83.9062L608.252 186.713L609.02 186.121L609.788 185.528L530.45 82.721L529.684 83.3136ZM609.02 186.121V185.151H601.649V186.121V187.091H609.02V186.121ZM585.549 186.121L586.315 185.528L519.005 98.4325L518.239 99.0257L517.471 99.6186L584.781 186.714L585.549 186.121ZM518.239 99.0257L519.021 99.5979L522.706 94.5545L521.925 93.9823L521.141 93.4101L517.455 98.4534L518.239 99.0257ZM521.925 93.9823L521.156 94.5743L592.152 186.713L592.92 186.121L593.688 185.529L522.693 93.3903L521.925 93.9823ZM592.92 186.121V185.151H585.549V186.121V187.091H592.92V186.121ZM569.255 186.121L570.023 185.529L511.248 109.296L510.48 109.888L509.712 110.481L568.487 186.713L569.255 186.121ZM510.48 109.888L511.266 110.455L514.757 105.606L513.972 105.039L513.184 104.472L509.692 109.322L510.48 109.888ZM513.972 105.039L513.203 105.632L575.858 186.714L576.626 186.121L577.392 185.528L514.738 104.446L513.972 105.039ZM576.626 186.121V185.151H569.255V186.121V187.091H576.626V186.121ZM625.312 186.121H624.342V187.091H625.312V186.121ZM625.312 45.0474V44.0775H624.342V45.0474H625.312ZM717.064 45.0474H718.034V44.0775H717.064V45.0474ZM717.064 66.4703V67.4402H718.034V66.4703H717.064ZM650.866 66.4703V65.5004H649.896V66.4703H650.866ZM650.866 104.769H649.896V105.739H650.866V104.769ZM712.312 104.769H713.282V103.8H712.312V104.769ZM712.312 126.192V127.162H713.282V126.192H712.312ZM650.866 126.192V125.222H649.896V126.192H650.866ZM650.866 164.698H649.896V165.668H650.866V164.698ZM717.615 164.698H718.585V163.728H717.615V164.698ZM717.615 186.121V187.091H718.585V186.121H717.615ZM625.312 186.121H626.282V45.0474H625.312H624.342V186.121H625.312ZM625.312 45.0474V46.0173H717.064V45.0474V44.0775H625.312V45.0474ZM717.064 45.0474H716.094V66.4703H717.064H718.034V45.0474H717.064ZM717.064 66.4703V65.5004H650.866V66.4703V67.4402H717.064V66.4703ZM650.866 66.4703H649.896V104.769H650.866H651.836V66.4703H650.866ZM650.866 104.769V105.739H712.312V104.769V103.8H650.866V104.769ZM712.312 104.769H711.342V126.192H712.312H713.282V104.769H712.312ZM712.312 126.192V125.222H650.866V126.192V127.162H712.312V126.192ZM650.866 126.192H649.896V164.698H650.866H651.836V126.192H650.866ZM650.866 164.698V165.668H717.615V164.698V163.728H650.866V164.698ZM717.615 164.698H716.645V186.121H717.615H718.585V164.698H717.615ZM717.615 186.121V185.151H625.312V186.121V187.091H717.615V186.121ZM743.137 186.121H742.167V187.091H743.137V186.121ZM743.137 45.0474V44.0775H742.167V45.0474H743.137ZM823.317 50.696L822.874 51.559L822.876 51.5601L823.317 50.696ZM840.055 66.5392L839.207 67.0092L839.211 67.0159L840.055 66.5392ZM823.111 129.085L823.532 129.959L823.536 129.957L823.111 129.085ZM758.015 134.458H757.045V135.428H758.015V134.458ZM758.015 113.242V112.272H757.045V113.242H758.015ZM807.818 110.624L808.202 111.515L808.212 111.511L807.818 110.624ZM816.774 102.841L815.932 102.358L815.93 102.362L816.774 102.841ZM816.774 77.3539L815.924 77.822L815.926 77.8266L816.774 77.3539ZM807.75 69.2255L807.339 70.1048L807.348 70.1085L807.75 69.2255ZM768.693 66.4012V65.4314H767.723V66.4012H768.693ZM768.693 186.121V187.091H769.663V186.121H768.693ZM816.015 122.197L816.867 121.732L816.591 121.227H816.015V122.197ZM850.939 186.121V187.091H852.574L851.79 185.656L850.939 186.121ZM822.42 186.121L821.567 186.579L821.84 187.091H822.42V186.121ZM788.118 122.197V121.227H786.496L787.262 122.656L788.118 122.197ZM743.137 186.121H744.107V45.0474H743.137H742.167V186.121H743.137ZM743.137 45.0474V46.0173H796.04V45.0474V44.0775H743.137V45.0474ZM796.04 45.0474V46.0173C806.768 46.0173 815.699 47.882 822.874 51.559L823.317 50.696L823.759 49.8328C816.238 45.9785 806.984 44.0775 796.04 44.0775V45.0474ZM823.317 50.696L822.876 51.5601C830.11 55.2443 835.541 60.3934 839.207 67.0092L840.055 66.5392L840.904 66.0692C837.038 59.0916 831.31 53.6787 823.757 49.8316L823.317 50.696ZM840.055 66.5392L839.211 67.0159C842.927 73.5991 844.803 81.3054 844.803 90.1662H845.773H846.743C846.743 81.0255 844.807 72.9803 840.9 66.0622L840.055 66.5392ZM845.773 90.1662H844.803C844.803 99.0724 842.906 106.751 839.147 113.238L839.987 113.724L840.827 114.21C844.784 107.38 846.743 99.3533 846.743 90.1662H845.773ZM839.987 113.724L839.147 113.238C835.44 119.669 829.966 124.663 822.684 128.214L823.111 129.085L823.536 129.957C831.134 126.252 836.91 121.005 840.827 114.21L839.987 113.724ZM823.111 129.085L822.69 128.211C815.416 131.714 806.431 133.488 795.694 133.488V134.458V135.428C806.635 135.428 815.926 133.621 823.532 129.959L823.111 129.085ZM795.694 134.458V133.488H758.015V134.458V135.428H795.694V134.458ZM758.015 134.458H758.984V113.242H758.015H757.045V134.458H758.015ZM758.015 113.242V114.212H792.251V113.242V112.272H758.015V113.242ZM792.251 113.242V114.212C798.666 114.212 803.999 113.33 808.202 111.515L807.818 110.624L807.434 109.734C803.554 111.409 798.509 112.272 792.251 112.272V113.242ZM807.818 110.624L808.212 111.511C812.417 109.648 815.571 106.922 817.616 103.32L816.774 102.841L815.93 102.362C814.116 105.556 811.302 108.02 807.426 109.738L807.818 110.624ZM816.774 102.841L817.614 103.323C819.693 99.6986 820.706 95.2974 820.706 90.1662H819.736H818.766C818.766 95.0459 817.802 99.0945 815.932 102.358L816.774 102.841ZM819.736 90.1662H820.706C820.706 85.0336 819.691 80.5917 817.62 76.881L816.774 77.3539L815.926 77.8266C817.804 81.1878 818.766 85.2875 818.766 90.1662H819.736ZM816.774 77.3539L817.621 76.8856C815.538 73.1049 812.365 70.2581 808.15 68.3426L807.75 69.2255L807.348 70.1085C811.216 71.8667 814.058 74.4388 815.924 77.822L816.774 77.3539ZM807.75 69.2255L808.159 68.3464C803.946 66.3838 798.581 65.4314 792.114 65.4314V66.4012V67.3711C798.41 67.3711 803.469 68.3018 807.339 70.1048L807.75 69.2255ZM792.114 66.4012V65.4314H768.693V66.4012V67.3711H792.114V66.4012ZM768.693 66.4012H767.723V186.121H768.693H769.663V66.4012H768.693ZM768.693 186.121V185.151H743.137V186.121V187.091H768.693V186.121ZM816.015 122.197L815.164 122.662L850.087 186.586L850.939 186.121L851.79 185.656L816.867 121.732L816.015 122.197ZM850.939 186.121V185.151H822.42V186.121V187.091H850.939V186.121ZM822.42 186.121L823.276 185.662L788.971 121.738L788.118 122.197L787.262 122.656L821.567 186.579L822.42 186.121ZM788.118 122.197V123.167H816.015V122.197V121.227H788.118V122.197ZM869.297 186.121H868.327V187.091H869.297V186.121ZM869.297 45.0474V44.0775H868.327V45.0474H869.297ZM949.477 51.1091L949.009 51.959L949.011 51.9603L949.477 51.1091ZM966.215 67.7791L965.359 68.2349L965.363 68.2415L966.215 67.7791ZM949.339 132.461L949.799 133.315L949.802 133.313L949.339 132.461ZM886.793 138.453H885.823V139.423H886.793V138.453ZM886.793 117.444V116.474H885.823V117.444H886.793ZM942.934 105.045L942.071 104.603L942.065 104.611L942.934 105.045ZM942.934 78.5247L942.067 78.9627L942.073 78.9711L942.934 78.5247ZM933.91 69.6389L933.452 70.4945L933.464 70.5005L933.91 69.6389ZM894.853 66.4012V65.4314H893.883V66.4012H894.853ZM894.853 186.121V187.091H895.823V186.121H894.853ZM869.297 186.121H870.266V45.0474H869.297H868.327V186.121H869.297ZM869.297 45.0474V46.0173H922.2V45.0474V44.0775H869.297V45.0474ZM922.2 45.0474V46.0173C932.921 46.0173 941.842 48.0164 949.009 51.959L949.477 51.1091L949.944 50.2593C942.418 46.1197 933.153 44.0775 922.2 44.0775V45.0474ZM949.477 51.1091L949.011 51.9603C956.248 55.9155 961.687 61.3387 965.359 68.2349L966.215 67.7791L967.072 67.3232C963.212 60.0753 957.494 54.3852 949.942 50.2582L949.477 51.1091ZM966.215 67.7791L965.363 68.2415C969.089 75.1092 970.963 82.9373 970.963 91.7504H971.933H972.903C972.903 82.6539 970.965 74.5011 967.068 67.3166L966.215 67.7791ZM971.933 91.7504H970.963C970.963 100.657 969.088 108.531 965.363 115.397L966.215 115.86L967.068 116.322C970.967 109.136 972.903 100.937 972.903 91.7504H971.933ZM966.215 115.86L965.363 115.397C961.647 122.248 956.161 127.651 948.877 131.608L949.339 132.461L949.802 133.313C957.397 129.188 963.161 123.523 967.068 116.322L966.215 115.86ZM949.339 132.461L948.881 131.606C941.617 135.507 932.624 137.484 921.854 137.484V138.453V139.423C932.853 139.423 942.183 137.405 949.799 133.315L949.339 132.461ZM921.854 138.453V137.484H886.793V138.453V139.423H921.854V138.453ZM886.793 138.453H887.763V117.444H886.793H885.823V138.453H886.793ZM886.793 117.444V118.414H918.411V117.444V116.474H886.793V117.444ZM918.411 117.444V118.414C924.851 118.414 930.215 117.295 934.443 114.989L933.978 114.138L933.514 113.286C929.658 115.389 924.644 116.474 918.411 116.474V117.444ZM933.978 114.138L934.443 114.989C938.645 112.697 941.778 109.526 943.801 105.479L942.934 105.045L942.065 104.611C940.232 108.279 937.394 111.17 933.514 113.286L933.978 114.138ZM942.934 105.045L943.797 105.487C945.851 101.473 946.866 96.8857 946.866 91.7504H945.896H944.926C944.926 96.6262 943.964 100.902 942.071 104.603L942.934 105.045ZM945.896 91.7504H946.866C946.866 86.6155 945.851 82.0493 943.795 78.0786L942.934 78.5247L942.073 78.9711C943.964 82.6234 944.926 86.8744 944.926 91.7504H945.896ZM942.934 78.5247L943.799 78.0869C941.77 74.0792 938.608 70.9756 934.354 68.7772L933.91 69.6389L933.464 70.5005C937.384 72.527 940.238 75.3474 942.067 78.9627L942.934 78.5247ZM933.91 69.6389L934.366 68.7833C930.141 66.5262 924.756 65.4314 918.274 65.4314V66.4012V67.3711C924.556 67.3711 929.596 68.4351 933.452 70.4945L933.91 69.6389ZM918.274 66.4012V65.4314H894.853V66.4012V67.3711H918.274V66.4012ZM894.853 66.4012H893.883V186.121H894.853H895.823V66.4012H894.853ZM894.853 186.121V185.151H869.297V186.121V187.091H894.853V186.121Z" fill="#6366F1"/>
</g>
</svg>
