<svg width="496" height="108" viewBox="0 0 496 108" fill="none" xmlns="http://www.w3.org/2000/svg">
<g clip-path="url(#clip0_149_13)">
<mask id="path-1-outside-1_149_13" maskUnits="userSpaceOnUse" x="4" y="15" width="488" height="83" fill="black">
<rect fill="white" x="4" y="15" width="488" height="83"/>
<path d="M24.8 96V93H35.8C41.4667 93 46.6333 92.1 51.3 90.3C56.0333 88.4333 60.1333 85.8333 63.6 82.5C67.0667 79.1667 69.7333 75.2333 71.6 70.7C73.5333 66.1667 74.5 61.2 74.5 55.8C74.5 50.4 73.5333 45.4333 71.6 40.9C69.7333 36.3667 67.0667 32.4333 63.6 29.1C60.1333 25.7667 56.0333 23.2 51.3 21.4C46.6333 19.5333 41.4667 18.6 35.8 18.6H24.8V15.6H35.9C41.9667 15.6 47.5333 16.6 52.6 18.6C57.6667 20.6 62.0667 23.4 65.8 27C69.5333 30.6 72.4333 34.8333 74.5 39.7C76.5667 44.5667 77.6 49.9333 77.6 55.8C77.6 61.6667 76.5667 67.0667 74.5 72C72.4333 76.8667 69.5333 81.1 65.8 84.7C62.0667 88.3 57.6667 91.1 52.6 93.1C47.5333 95.0333 41.9667 96 35.9 96H24.8ZM18.2 96V15.6H21.2V96H18.2ZM5 96V15.6H8V96H5ZM11.6 96V15.6H14.6V96H11.6ZM24.8 89.4V86.4H35.8C42.1333 86.4 47.7 85.1 52.5 82.5C57.3 79.9 61.0667 76.3 63.8 71.7C66.5333 67.0333 67.9 61.7333 67.9 55.8C67.9 49.8 66.5333 44.5 63.8 39.9C61.0667 35.3 57.3 31.7 52.5 29.1C47.7 26.5 42.1333 25.2 35.8 25.2H24.8V22.2H35.9C42.7667 22.2 48.8333 23.6667 54.1 26.6C59.3667 29.4667 63.5 33.4333 66.5 38.5C69.5 43.5 71 49.2667 71 55.8C71 62.3333 69.5 68.1333 66.5 73.2C63.5 78.2667 59.3667 82.2333 54.1 85.1C48.8333 87.9667 42.7667 89.4 35.9 89.4H24.8ZM24.8 82.8V79.8H35.8C40.8667 79.8 45.3 78.8 49.1 76.8C52.9 74.8 55.8667 72 58 68.4C60.1333 64.7333 61.2 60.5333 61.2 55.8C61.2 51 60.1333 46.8 58 43.2C55.8667 39.6 52.9 36.8 49.1 34.8C45.3 32.8 40.8667 31.8 35.8 31.8H24.8V28.8H35.9C41.5 28.8 46.4333 29.9667 50.7 32.3C54.9667 34.5667 58.3 37.7333 60.7 41.8C63.1 45.8 64.3 50.4667 64.3 55.8C64.3 61.1333 63.1 65.8333 60.7 69.9C58.3 73.9667 54.9667 77.1333 50.7 79.4C46.4333 81.6667 41.5 82.8 35.9 82.8H24.8ZM105.366 96V93H116.366C122.033 93 127.2 92.1 131.866 90.3C136.6 88.4333 140.7 85.8333 144.166 82.5C147.633 79.1667 150.3 75.2333 152.166 70.7C154.1 66.1667 155.066 61.2 155.066 55.8C155.066 50.4 154.1 45.4333 152.166 40.9C150.3 36.3667 147.633 32.4333 144.166 29.1C140.7 25.7667 136.6 23.2 131.866 21.4C127.2 19.5333 122.033 18.6 116.366 18.6H105.366V15.6H116.466C122.533 15.6 128.1 16.6 133.166 18.6C138.233 20.6 142.633 23.4 146.366 27C150.1 30.6 153 34.8333 155.066 39.7C157.133 44.5667 158.166 49.9333 158.166 55.8C158.166 61.6667 157.133 67.0667 155.066 72C153 76.8667 150.1 81.1 146.366 84.7C142.633 88.3 138.233 91.1 133.166 93.1C128.1 95.0333 122.533 96 116.466 96H105.366ZM98.7664 96V15.6H101.766V96H98.7664ZM85.5664 96V15.6H88.5664V96H85.5664ZM92.1664 96V15.6H95.1664V96H92.1664ZM105.366 89.4V86.4H116.366C122.7 86.4 128.266 85.1 133.066 82.5C137.866 79.9 141.633 76.3 144.366 71.7C147.1 67.0333 148.466 61.7333 148.466 55.8C148.466 49.8 147.1 44.5 144.366 39.9C141.633 35.3 137.866 31.7 133.066 29.1C128.266 26.5 122.7 25.2 116.366 25.2H105.366V22.2H116.466C123.333 22.2 129.4 23.6667 134.666 26.6C139.933 29.4667 144.066 33.4333 147.066 38.5C150.066 43.5 151.566 49.2667 151.566 55.8C151.566 62.3333 150.066 68.1333 147.066 73.2C144.066 78.2667 139.933 82.2333 134.666 85.1C129.4 87.9667 123.333 89.4 116.466 89.4H105.366ZM105.366 82.8V79.8H116.366C121.433 79.8 125.866 78.8 129.666 76.8C133.466 74.8 136.433 72 138.566 68.4C140.7 64.7333 141.766 60.5333 141.766 55.8C141.766 51 140.7 46.8 138.566 43.2C136.433 39.6 133.466 36.8 129.666 34.8C125.866 32.8 121.433 31.8 116.366 31.8H105.366V28.8H116.466C122.066 28.8 127 29.9667 131.266 32.3C135.533 34.5667 138.866 37.7333 141.266 41.8C143.666 45.8 144.866 50.4667 144.866 55.8C144.866 61.1333 143.666 65.8333 141.266 69.9C138.866 73.9667 135.533 77.1333 131.266 79.4C127 81.6667 122.066 82.8 116.466 82.8H105.366ZM196.233 84.3C192.433 84.3 189.266 83.5333 186.733 82C184.266 80.4667 182.399 78.4333 181.133 75.9C179.933 73.3 179.333 70.4333 179.333 67.3V15.6H182.333V67.3C182.333 71.1667 183.433 74.4667 185.633 77.2C187.833 79.9333 191.366 81.3 196.233 81.3C201.099 81.3 204.633 79.9333 206.833 77.2C209.033 74.4667 210.133 71.1667 210.133 67.3V15.6H213.133V67.3C213.133 70.4333 212.499 73.3 211.233 75.9C210.033 78.4333 208.166 80.4667 205.633 82C203.166 83.5333 200.033 84.3 196.233 84.3ZM196.233 97.5C190.033 97.5 184.666 96.1667 180.133 93.5C175.666 90.7667 172.199 87.1 169.733 82.5C167.333 77.9 166.133 72.8333 166.133 67.3V15.6H169.133V67.3C169.133 72.3 170.199 76.8667 172.333 81C174.533 85.1333 177.633 88.4333 181.633 90.9C185.699 93.3 190.566 94.5 196.233 94.5C201.899 94.5 206.733 93.3 210.733 90.9C214.799 88.4333 217.899 85.1333 220.033 81C222.233 76.8667 223.333 72.3 223.333 67.3V15.6H226.333V67.3C226.333 72.8333 225.099 77.9 222.633 82.5C220.233 87.1 216.799 90.7667 212.333 93.5C207.866 96.1667 202.499 97.5 196.233 97.5ZM196.233 90.9C191.233 90.9 186.966 89.8333 183.433 87.7C179.966 85.5667 177.299 82.7333 175.433 79.2C173.633 75.6 172.733 71.6333 172.733 67.3V15.6H175.733V67.3C175.733 71.1 176.499 74.5667 178.033 77.7C179.633 80.7667 181.966 83.2333 185.033 85.1C188.099 86.9667 191.833 87.9 196.233 87.9C200.699 87.9 204.433 86.9667 207.433 85.1C210.499 83.2333 212.799 80.7667 214.333 77.7C215.933 74.5667 216.733 71.1 216.733 67.3V15.6H219.733V67.3C219.733 71.6333 218.799 75.6 216.933 79.2C215.133 82.7333 212.466 85.5667 208.933 87.7C205.466 89.8333 201.233 90.9 196.233 90.9ZM267.248 42.4L265.348 39.9L282.948 15.6H286.648L267.248 42.4ZM271.448 47.8L269.548 45.3L291.148 15.6H294.848L271.448 47.8ZM275.648 53.2L273.748 50.7L299.348 15.6H303.048L275.648 53.2ZM249.548 96V15.6H252.548V96H249.548ZM236.348 96V15.6H239.348V96H236.348ZM242.948 96V15.6H245.948V96H242.948ZM300.248 96L261.248 45.5L263.148 43L304.048 96H300.248ZM291.948 96L257.248 51.1L259.148 48.5L295.748 96H291.948ZM283.548 96L253.248 56.7L255.048 54.2L287.348 96H283.548Z"/>
<path d="M312.447 96V23.2727H359.748V34.3168H325.621V54.0611H357.298V65.1051H325.621V84.956H360.032V96H312.447ZM373.189 96V23.2727H400.462C406.049 23.2727 410.736 24.2434 414.524 26.1847C418.336 28.1259 421.212 30.8485 423.153 34.3523C425.118 37.8324 426.101 41.8925 426.101 46.5327C426.101 51.1965 425.107 55.2448 423.118 58.6776C421.153 62.0866 418.253 64.7263 414.418 66.5966C410.582 68.4432 405.871 69.3665 400.284 69.3665H380.859V58.429H398.509C401.776 58.429 404.451 57.9792 406.534 57.0795C408.617 56.1562 410.156 54.8187 411.151 53.0668C412.169 51.2912 412.678 49.1132 412.678 46.5327C412.678 43.9522 412.169 41.7505 411.151 39.9276C410.133 38.081 408.582 36.6842 406.499 35.7372C404.415 34.7666 401.728 34.2812 398.438 34.2812H386.364V96H373.189ZM410.76 63.0455L428.764 96H414.062L396.378 63.0455H410.76ZM438.228 96V23.2727H465.501C471.088 23.2727 475.775 24.3144 479.563 26.3977C483.375 28.4811 486.251 31.3456 488.192 34.9915C490.157 38.6136 491.14 42.733 491.14 47.3494C491.14 52.0133 490.157 56.1562 488.192 59.7784C486.228 63.4006 483.327 66.2533 479.492 68.3366C475.657 70.3963 470.934 71.4261 465.323 71.4261H447.248V60.5952H463.548C466.815 60.5952 469.49 60.027 471.573 58.8906C473.656 57.7543 475.195 56.1918 476.19 54.2031C477.208 52.2145 477.717 49.9299 477.717 47.3494C477.717 44.7689 477.208 42.4962 476.19 40.5312C475.195 38.5663 473.645 37.0393 471.538 35.9503C469.454 34.8376 466.767 34.2812 463.477 34.2812H451.403V96H438.228Z"/>
</mask>
<path d="M24.8 96V93H35.8C41.4667 93 46.6333 92.1 51.3 90.3C56.0333 88.4333 60.1333 85.8333 63.6 82.5C67.0667 79.1667 69.7333 75.2333 71.6 70.7C73.5333 66.1667 74.5 61.2 74.5 55.8C74.5 50.4 73.5333 45.4333 71.6 40.9C69.7333 36.3667 67.0667 32.4333 63.6 29.1C60.1333 25.7667 56.0333 23.2 51.3 21.4C46.6333 19.5333 41.4667 18.6 35.8 18.6H24.8V15.6H35.9C41.9667 15.6 47.5333 16.6 52.6 18.6C57.6667 20.6 62.0667 23.4 65.8 27C69.5333 30.6 72.4333 34.8333 74.5 39.7C76.5667 44.5667 77.6 49.9333 77.6 55.8C77.6 61.6667 76.5667 67.0667 74.5 72C72.4333 76.8667 69.5333 81.1 65.8 84.7C62.0667 88.3 57.6667 91.1 52.6 93.1C47.5333 95.0333 41.9667 96 35.9 96H24.8ZM18.2 96V15.6H21.2V96H18.2ZM5 96V15.6H8V96H5ZM11.6 96V15.6H14.6V96H11.6ZM24.8 89.4V86.4H35.8C42.1333 86.4 47.7 85.1 52.5 82.5C57.3 79.9 61.0667 76.3 63.8 71.7C66.5333 67.0333 67.9 61.7333 67.9 55.8C67.9 49.8 66.5333 44.5 63.8 39.9C61.0667 35.3 57.3 31.7 52.5 29.1C47.7 26.5 42.1333 25.2 35.8 25.2H24.8V22.2H35.9C42.7667 22.2 48.8333 23.6667 54.1 26.6C59.3667 29.4667 63.5 33.4333 66.5 38.5C69.5 43.5 71 49.2667 71 55.8C71 62.3333 69.5 68.1333 66.5 73.2C63.5 78.2667 59.3667 82.2333 54.1 85.1C48.8333 87.9667 42.7667 89.4 35.9 89.4H24.8ZM24.8 82.8V79.8H35.8C40.8667 79.8 45.3 78.8 49.1 76.8C52.9 74.8 55.8667 72 58 68.4C60.1333 64.7333 61.2 60.5333 61.2 55.8C61.2 51 60.1333 46.8 58 43.2C55.8667 39.6 52.9 36.8 49.1 34.8C45.3 32.8 40.8667 31.8 35.8 31.8H24.8V28.8H35.9C41.5 28.8 46.4333 29.9667 50.7 32.3C54.9667 34.5667 58.3 37.7333 60.7 41.8C63.1 45.8 64.3 50.4667 64.3 55.8C64.3 61.1333 63.1 65.8333 60.7 69.9C58.3 73.9667 54.9667 77.1333 50.7 79.4C46.4333 81.6667 41.5 82.8 35.9 82.8H24.8ZM105.366 96V93H116.366C122.033 93 127.2 92.1 131.866 90.3C136.6 88.4333 140.7 85.8333 144.166 82.5C147.633 79.1667 150.3 75.2333 152.166 70.7C154.1 66.1667 155.066 61.2 155.066 55.8C155.066 50.4 154.1 45.4333 152.166 40.9C150.3 36.3667 147.633 32.4333 144.166 29.1C140.7 25.7667 136.6 23.2 131.866 21.4C127.2 19.5333 122.033 18.6 116.366 18.6H105.366V15.6H116.466C122.533 15.6 128.1 16.6 133.166 18.6C138.233 20.6 142.633 23.4 146.366 27C150.1 30.6 153 34.8333 155.066 39.7C157.133 44.5667 158.166 49.9333 158.166 55.8C158.166 61.6667 157.133 67.0667 155.066 72C153 76.8667 150.1 81.1 146.366 84.7C142.633 88.3 138.233 91.1 133.166 93.1C128.1 95.0333 122.533 96 116.466 96H105.366ZM98.7664 96V15.6H101.766V96H98.7664ZM85.5664 96V15.6H88.5664V96H85.5664ZM92.1664 96V15.6H95.1664V96H92.1664ZM105.366 89.4V86.4H116.366C122.7 86.4 128.266 85.1 133.066 82.5C137.866 79.9 141.633 76.3 144.366 71.7C147.1 67.0333 148.466 61.7333 148.466 55.8C148.466 49.8 147.1 44.5 144.366 39.9C141.633 35.3 137.866 31.7 133.066 29.1C128.266 26.5 122.7 25.2 116.366 25.2H105.366V22.2H116.466C123.333 22.2 129.4 23.6667 134.666 26.6C139.933 29.4667 144.066 33.4333 147.066 38.5C150.066 43.5 151.566 49.2667 151.566 55.8C151.566 62.3333 150.066 68.1333 147.066 73.2C144.066 78.2667 139.933 82.2333 134.666 85.1C129.4 87.9667 123.333 89.4 116.466 89.4H105.366ZM105.366 82.8V79.8H116.366C121.433 79.8 125.866 78.8 129.666 76.8C133.466 74.8 136.433 72 138.566 68.4C140.7 64.7333 141.766 60.5333 141.766 55.8C141.766 51 140.7 46.8 138.566 43.2C136.433 39.6 133.466 36.8 129.666 34.8C125.866 32.8 121.433 31.8 116.366 31.8H105.366V28.8H116.466C122.066 28.8 127 29.9667 131.266 32.3C135.533 34.5667 138.866 37.7333 141.266 41.8C143.666 45.8 144.866 50.4667 144.866 55.8C144.866 61.1333 143.666 65.8333 141.266 69.9C138.866 73.9667 135.533 77.1333 131.266 79.4C127 81.6667 122.066 82.8 116.466 82.8H105.366ZM196.233 84.3C192.433 84.3 189.266 83.5333 186.733 82C184.266 80.4667 182.399 78.4333 181.133 75.9C179.933 73.3 179.333 70.4333 179.333 67.3V15.6H182.333V67.3C182.333 71.1667 183.433 74.4667 185.633 77.2C187.833 79.9333 191.366 81.3 196.233 81.3C201.099 81.3 204.633 79.9333 206.833 77.2C209.033 74.4667 210.133 71.1667 210.133 67.3V15.6H213.133V67.3C213.133 70.4333 212.499 73.3 211.233 75.9C210.033 78.4333 208.166 80.4667 205.633 82C203.166 83.5333 200.033 84.3 196.233 84.3ZM196.233 97.5C190.033 97.5 184.666 96.1667 180.133 93.5C175.666 90.7667 172.199 87.1 169.733 82.5C167.333 77.9 166.133 72.8333 166.133 67.3V15.6H169.133V67.3C169.133 72.3 170.199 76.8667 172.333 81C174.533 85.1333 177.633 88.4333 181.633 90.9C185.699 93.3 190.566 94.5 196.233 94.5C201.899 94.5 206.733 93.3 210.733 90.9C214.799 88.4333 217.899 85.1333 220.033 81C222.233 76.8667 223.333 72.3 223.333 67.3V15.6H226.333V67.3C226.333 72.8333 225.099 77.9 222.633 82.5C220.233 87.1 216.799 90.7667 212.333 93.5C207.866 96.1667 202.499 97.5 196.233 97.5ZM196.233 90.9C191.233 90.9 186.966 89.8333 183.433 87.7C179.966 85.5667 177.299 82.7333 175.433 79.2C173.633 75.6 172.733 71.6333 172.733 67.3V15.6H175.733V67.3C175.733 71.1 176.499 74.5667 178.033 77.7C179.633 80.7667 181.966 83.2333 185.033 85.1C188.099 86.9667 191.833 87.9 196.233 87.9C200.699 87.9 204.433 86.9667 207.433 85.1C210.499 83.2333 212.799 80.7667 214.333 77.7C215.933 74.5667 216.733 71.1 216.733 67.3V15.6H219.733V67.3C219.733 71.6333 218.799 75.6 216.933 79.2C215.133 82.7333 212.466 85.5667 208.933 87.7C205.466 89.8333 201.233 90.9 196.233 90.9ZM267.248 42.4L265.348 39.9L282.948 15.6H286.648L267.248 42.4ZM271.448 47.8L269.548 45.3L291.148 15.6H294.848L271.448 47.8ZM275.648 53.2L273.748 50.7L299.348 15.6H303.048L275.648 53.2ZM249.548 96V15.6H252.548V96H249.548ZM236.348 96V15.6H239.348V96H236.348ZM242.948 96V15.6H245.948V96H242.948ZM300.248 96L261.248 45.5L263.148 43L304.048 96H300.248ZM291.948 96L257.248 51.1L259.148 48.5L295.748 96H291.948ZM283.548 96L253.248 56.7L255.048 54.2L287.348 96H283.548Z" fill="#570808"/>
<path d="M312.447 96V23.2727H359.748V34.3168H325.621V54.0611H357.298V65.1051H325.621V84.956H360.032V96H312.447ZM373.189 96V23.2727H400.462C406.049 23.2727 410.736 24.2434 414.524 26.1847C418.336 28.1259 421.212 30.8485 423.153 34.3523C425.118 37.8324 426.101 41.8925 426.101 46.5327C426.101 51.1965 425.107 55.2448 423.118 58.6776C421.153 62.0866 418.253 64.7263 414.418 66.5966C410.582 68.4432 405.871 69.3665 400.284 69.3665H380.859V58.429H398.509C401.776 58.429 404.451 57.9792 406.534 57.0795C408.617 56.1562 410.156 54.8187 411.151 53.0668C412.169 51.2912 412.678 49.1132 412.678 46.5327C412.678 43.9522 412.169 41.7505 411.151 39.9276C410.133 38.081 408.582 36.6842 406.499 35.7372C404.415 34.7666 401.728 34.2812 398.438 34.2812H386.364V96H373.189ZM410.76 63.0455L428.764 96H414.062L396.378 63.0455H410.76ZM438.228 96V23.2727H465.501C471.088 23.2727 475.775 24.3144 479.563 26.3977C483.375 28.4811 486.251 31.3456 488.192 34.9915C490.157 38.6136 491.14 42.733 491.14 47.3494C491.14 52.0133 490.157 56.1562 488.192 59.7784C486.228 63.4006 483.327 66.2533 479.492 68.3366C475.657 70.3963 470.934 71.4261 465.323 71.4261H447.248V60.5952H463.548C466.815 60.5952 469.49 60.027 471.573 58.8906C473.656 57.7543 475.195 56.1918 476.19 54.2031C477.208 52.2145 477.717 49.9299 477.717 47.3494C477.717 44.7689 477.208 42.4962 476.19 40.5312C475.195 38.5663 473.645 37.0393 471.538 35.9503C469.454 34.8376 466.767 34.2812 463.477 34.2812H451.403V96H438.228Z" fill="#8B3A3A"/>
<path d="M24.8 96H24.3V96.5H24.8V96ZM24.8 93V92.5H24.3V93H24.8ZM51.3 90.3L51.4799 90.7665L51.4834 90.7651L51.3 90.3ZM63.6 82.5L63.2534 82.1396V82.1396L63.6 82.5ZM71.6 70.7L71.14 70.5038L71.1377 70.5096L71.6 70.7ZM71.6 40.9L71.1376 41.0904L71.1401 41.0961L71.6 40.9ZM63.6 29.1L63.9466 28.7396L63.6 29.1ZM51.3 21.4L51.1143 21.8643L51.1223 21.8673L51.3 21.4ZM24.8 18.6H24.3V19.1H24.8V18.6ZM24.8 15.6V15.1H24.3V15.6H24.8ZM52.6 18.6L52.7836 18.1349V18.1349L52.6 18.6ZM65.8 27L66.1471 26.6401V26.6401L65.8 27ZM74.5 39.7L74.9602 39.5046V39.5046L74.5 39.7ZM74.5 72L74.9602 72.1954L74.9612 72.1932L74.5 72ZM65.8 84.7L66.1471 85.0599V85.0599L65.8 84.7ZM52.6 93.1L52.7783 93.5672L52.7836 93.5651L52.6 93.1ZM18.2 96H17.7V96.5H18.2V96ZM18.2 15.6V15.1H17.7V15.6H18.2ZM21.2 15.6H21.7V15.1H21.2V15.6ZM21.2 96V96.5H21.7V96H21.2ZM5 96H4.5V96.5H5V96ZM5 15.6V15.1H4.5V15.6H5ZM8 15.6H8.5V15.1H8V15.6ZM8 96V96.5H8.5V96H8ZM11.6 96H11.1V96.5H11.6V96ZM11.6 15.6V15.1H11.1V15.6H11.6ZM14.6 15.6H15.1V15.1H14.6V15.6ZM14.6 96V96.5H15.1V96H14.6ZM24.8 89.4H24.3V89.9H24.8V89.4ZM24.8 86.4V85.9H24.3V86.4H24.8ZM52.5 82.5L52.7381 82.9396V82.9396L52.5 82.5ZM63.8 71.7L64.2299 71.9554L64.2314 71.9527L63.8 71.7ZM63.8 39.9L64.2298 39.6446V39.6446L63.8 39.9ZM52.5 29.1L52.7381 28.6604V28.6604L52.5 29.1ZM24.8 25.2H24.3V25.7H24.8V25.2ZM24.8 22.2V21.7H24.3V22.2H24.8ZM54.1 26.6L53.8567 27.0368L53.861 27.0392L54.1 26.6ZM66.5 38.5L66.0698 38.7547L66.0713 38.7572L66.5 38.5ZM66.5 73.2L66.9302 73.4547L66.5 73.2ZM54.1 85.1L53.861 84.6608L54.1 85.1ZM24.8 82.8H24.3V83.3H24.8V82.8ZM24.8 79.8V79.3H24.3V79.8H24.8ZM49.1 76.8L49.3329 77.2425V77.2425L49.1 76.8ZM58 68.4L58.4302 68.6549L58.4322 68.6514L58 68.4ZM58 43.2L57.5699 43.4549V43.4549L58 43.2ZM49.1 34.8L49.3329 34.3575V34.3575L49.1 34.8ZM24.8 31.8H24.3V32.3H24.8V31.8ZM24.8 28.8V28.3H24.3V28.8H24.8ZM50.7 32.3L50.4601 32.7387L50.4654 32.7416L50.7 32.3ZM60.7 41.8L60.2694 42.0541L60.2713 42.0572L60.7 41.8ZM60.7 69.9L61.1306 70.1541V70.1541L60.7 69.9ZM50.7 79.4L50.4654 78.9584V78.9584L50.7 79.4ZM24.8 96H25.3V93H24.8H24.3V96H24.8ZM24.8 93V93.5H35.8V93V92.5H24.8V93ZM35.8 93V93.5C41.5201 93.5 46.7488 92.5914 51.4799 90.7665L51.3 90.3L51.1201 89.8335C46.5179 91.6086 41.4133 92.5 35.8 92.5V93ZM51.3 90.3L51.4834 90.7651C56.2739 88.8759 60.4302 86.2415 63.9466 82.8604L63.6 82.5L63.2534 82.1396C59.8365 85.4251 55.7928 87.9907 51.1166 89.8349L51.3 90.3ZM63.6 82.5L63.9466 82.8604C67.4642 79.4781 70.1698 75.4865 72.0623 70.8904L71.6 70.7L71.1377 70.5096C69.2969 74.9801 66.6692 78.8552 63.2534 82.1396L63.6 82.5ZM71.6 70.7L72.0599 70.8961C74.0221 66.2951 75 61.2609 75 55.8H74.5H74C74 61.1391 73.0445 66.0382 71.1401 70.5039L71.6 70.7ZM74.5 55.8H75C75 50.3391 74.0221 45.3049 72.0599 40.7039L71.6 40.9L71.1401 41.0961C73.0445 45.5618 74 50.4609 74 55.8H74.5ZM71.6 40.9L72.0623 40.7096C70.1698 36.1135 67.4642 32.1219 63.9466 28.7396L63.6 29.1L63.2534 29.4604C66.6692 32.7448 69.2969 36.6199 71.1377 41.0904L71.6 40.9ZM63.6 29.1L63.9466 28.7396C60.4288 25.3572 56.2706 22.7553 51.4777 20.9326L51.3 21.4L51.1223 21.8673C55.7961 23.6447 59.8378 26.1762 63.2534 29.4604L63.6 29.1ZM51.3 21.4L51.4857 20.9358C46.7529 19.0426 41.5222 18.1 35.8 18.1V18.6V19.1C41.4111 19.1 46.5138 20.024 51.1143 21.8642L51.3 21.4ZM35.8 18.6V18.1H24.8V18.6V19.1H35.8V18.6ZM24.8 18.6H25.3V15.6H24.8H24.3V18.6H24.8ZM24.8 15.6V16.1H35.9V15.6V15.1H24.8V15.6ZM35.9 15.6V16.1C41.911 16.1 47.4145 17.0906 52.4164 19.0651L52.6 18.6L52.7836 18.1349C47.6522 16.1094 42.0224 15.1 35.9 15.1V15.6ZM52.6 18.6L52.4164 19.0651C57.4254 21.0423 61.769 23.8076 65.4529 27.3599L65.8 27L66.1471 26.6401C62.3643 22.9924 57.908 20.1577 52.7836 18.1349L52.6 18.6ZM65.8 27L65.4529 27.3599C69.1369 30.9123 71.9989 35.0894 74.0398 39.8954L74.5 39.7L74.9602 39.5046C72.8678 34.5773 69.9298 30.2877 66.1471 26.6401L65.8 27ZM74.5 39.7L74.0398 39.8954C76.0775 44.6938 77.1 49.9931 77.1 55.8H77.6H78.1C78.1 49.8736 77.0559 44.4395 74.9602 39.5046L74.5 39.7ZM77.6 55.8H77.1C77.1 61.6068 76.0775 66.9403 74.0388 71.8068L74.5 72L74.9612 72.1932C77.0559 67.193 78.1 61.7265 78.1 55.8H77.6ZM74.5 72L74.0398 71.8046C71.9989 76.6106 69.1369 80.7877 65.4529 84.3401L65.8 84.7L66.1471 85.0599C69.9298 81.4123 72.8678 77.1227 74.9602 72.1954L74.5 72ZM65.8 84.7L65.4529 84.3401C61.769 87.8924 57.4254 90.6577 52.4164 92.6349L52.6 93.1L52.7836 93.5651C57.908 91.5423 62.3643 88.7076 66.1471 85.0599L65.8 84.7ZM52.6 93.1L52.4217 92.6329C47.4184 94.542 41.9129 95.5 35.9 95.5V96V96.5C42.0204 96.5 47.6483 95.5246 52.7783 93.5671L52.6 93.1ZM35.9 96V95.5H24.8V96V96.5H35.9V96ZM18.2 96H18.7V15.6H18.2H17.7V96H18.2ZM18.2 15.6V16.1H21.2V15.6V15.1H18.2V15.6ZM21.2 15.6H20.7V96H21.2H21.7V15.6H21.2ZM21.2 96V95.5H18.2V96V96.5H21.2V96ZM5 96H5.5V15.6H5H4.5V96H5ZM5 15.6V16.1H8V15.6V15.1H5V15.6ZM8 15.6H7.5V96H8H8.5V15.6H8ZM8 96V95.5H5V96V96.5H8V96ZM11.6 96H12.1V15.6H11.6H11.1V96H11.6ZM11.6 15.6V16.1H14.6V15.6V15.1H11.6V15.6ZM14.6 15.6H14.1V96H14.6H15.1V15.6H14.6ZM14.6 96V95.5H11.6V96V96.5H14.6V96ZM24.8 89.4H25.3V86.4H24.8H24.3V89.4H24.8ZM24.8 86.4V86.9H35.8V86.4V85.9H24.8V86.4ZM35.8 86.4V86.9C42.2031 86.9 47.8541 85.5852 52.7381 82.9396L52.5 82.5L52.2619 82.0604C47.5459 84.6148 42.0636 85.9 35.8 85.9V86.4ZM52.5 82.5L52.7381 82.9396C57.6158 80.2976 61.4494 76.6346 64.2298 71.9554L63.8 71.7L63.3702 71.4446C60.6839 75.9654 56.9842 79.5024 52.2619 82.0604L52.5 82.5ZM63.8 71.7L64.2314 71.9527C67.014 67.2021 68.4 61.8133 68.4 55.8H67.9H67.4C67.4 61.6534 66.0527 66.8646 63.3686 71.4473L63.8 71.7ZM67.9 55.8H68.4C68.4 49.7213 67.0145 44.3309 64.2298 39.6446L63.8 39.9L63.3702 40.1554C66.0522 44.6691 67.4 49.8787 67.4 55.8H67.9ZM63.8 39.9L64.2298 39.6446C61.4494 34.9654 57.6158 31.3024 52.7381 28.6604L52.5 29.1L52.2619 29.5396C56.9842 32.0976 60.6839 35.6346 63.3702 40.1554L63.8 39.9ZM52.5 29.1L52.7381 28.6604C47.8541 26.0148 42.2031 24.7 35.8 24.7V25.2V25.7C42.0636 25.7 47.5459 26.9852 52.2619 29.5396L52.5 29.1ZM35.8 25.2V24.7H24.8V25.2V25.7H35.8V25.2ZM24.8 25.2H25.3V22.2H24.8H24.3V25.2H24.8ZM24.8 22.2V22.7H35.9V22.2V21.7H24.8V22.2ZM35.9 22.2V22.7C42.6935 22.7 48.6743 24.1504 53.8567 27.0368L54.1 26.6L54.3433 26.1632C48.9924 23.1829 42.8398 21.7 35.9 21.7V22.2ZM54.1 26.6L53.861 27.0392C59.05 29.8635 63.1166 33.7671 66.0698 38.7547L66.5 38.5L66.9302 38.2453C63.8834 33.0995 59.6834 29.0698 54.339 26.1608L54.1 26.6ZM66.5 38.5L66.0713 38.7572C69.0192 43.6705 70.5 49.3461 70.5 55.8H71H71.5C71.5 49.1872 69.9808 43.3295 66.9287 38.2427L66.5 38.5ZM71 55.8H70.5C70.5 62.2538 69.0192 67.964 66.0698 72.9453L66.5 73.2L66.9302 73.4547C69.9808 68.3027 71.5 62.4129 71.5 55.8H71ZM66.5 73.2L66.0698 72.9453C63.1166 77.9328 59.05 81.8364 53.861 84.6608L54.1 85.1L54.339 85.5392C59.6834 82.6302 63.8834 78.6005 66.9302 73.4547L66.5 73.2ZM54.1 85.1L53.861 84.6608C48.6777 87.4821 42.6954 88.9 35.9 88.9V89.4V89.9C42.8379 89.9 48.989 88.4512 54.339 85.5392L54.1 85.1ZM35.9 89.4V88.9H24.8V89.4V89.9H35.9V89.4ZM24.8 82.8H25.3V79.8H24.8H24.3V82.8H24.8ZM24.8 79.8V80.3H35.8V79.8V79.3H24.8V79.8ZM35.8 79.8V80.3C40.9332 80.3 45.4492 79.2865 49.3329 77.2425L49.1 76.8L48.8671 76.3575C45.1508 78.3135 40.8001 79.3 35.8 79.3V79.8ZM49.1 76.8L49.3329 77.2425C53.2125 75.2006 56.2484 72.3366 58.4301 68.6549L58 68.4L57.5699 68.1451C55.485 71.6634 52.5875 74.3994 48.8671 76.3575L49.1 76.8ZM58 68.4L58.4322 68.6514C60.6149 64.8999 61.7 60.6112 61.7 55.8H61.2H60.7C60.7 60.4555 59.6518 64.5668 57.5678 68.1486L58 68.4ZM61.2 55.8H61.7C61.7 50.9237 60.6156 46.633 58.4301 42.9451L58 43.2L57.5699 43.4549C59.6511 46.967 60.7 51.0763 60.7 55.8H61.2ZM58 43.2L58.4301 42.9451C56.2484 39.2634 53.2125 36.3994 49.3329 34.3575L49.1 34.8L48.8671 35.2425C52.5875 37.2006 55.485 39.9366 57.5699 43.4549L58 43.2ZM49.1 34.8L49.3329 34.3575C45.4492 32.3135 40.9332 31.3 35.8 31.3V31.8V32.3C40.8001 32.3 45.1508 33.2865 48.8671 35.2425L49.1 34.8ZM35.8 31.8V31.3H24.8V31.8V32.3H35.8V31.8ZM24.8 31.8H25.3V28.8H24.8H24.3V31.8H24.8ZM24.8 28.8V29.3H35.9V28.8V28.3H24.8V28.8ZM35.9 28.8V29.3C41.429 29.3 46.2775 30.4513 50.4601 32.7387L50.7 32.3L50.9399 31.8613C46.5892 29.482 41.571 28.3 35.9 28.3V28.8ZM50.7 32.3L50.4654 32.7416C54.6527 34.966 57.9174 38.0687 60.2694 42.0541L60.7 41.8L61.1306 41.5459C58.6827 37.3979 55.2806 34.1673 50.9346 31.8584L50.7 32.3ZM60.7 41.8L60.2713 42.0572C62.6183 45.9689 63.8 50.544 63.8 55.8H64.3H64.8C64.8 50.3893 63.5817 45.6311 61.1288 41.5427L60.7 41.8ZM64.3 55.8H63.8C63.8 61.0558 62.6183 65.6658 60.2694 69.6459L60.7 69.9L61.1306 70.1541C63.5817 66.0009 64.8 61.2109 64.8 55.8H64.3ZM60.7 69.9L60.2694 69.6459C57.9174 73.6313 54.6527 76.7339 50.4654 78.9584L50.7 79.4L50.9346 79.8416C55.2806 77.5327 58.6827 74.302 61.1306 70.1541L60.7 69.9ZM50.7 79.4L50.4654 78.9584C46.2817 81.181 41.4313 82.3 35.9 82.3V82.8V83.3C41.5687 83.3 46.585 82.1523 50.9346 79.8416L50.7 79.4ZM35.9 82.8V82.3H24.8V82.8V83.3H35.9V82.8ZM105.366 96H104.866V96.5H105.366V96ZM105.366 93V92.5H104.866V93H105.366ZM131.866 90.3L132.046 90.7665L132.05 90.7651L131.866 90.3ZM144.166 82.5L143.82 82.1396V82.1396L144.166 82.5ZM152.166 70.7L151.706 70.5038L151.704 70.5096L152.166 70.7ZM152.166 40.9L151.704 41.0904L151.706 41.0961L152.166 40.9ZM144.166 29.1L144.513 28.7396L144.166 29.1ZM131.866 21.4L131.681 21.8643L131.689 21.8673L131.866 21.4ZM105.366 18.6H104.866V19.1H105.366V18.6ZM105.366 15.6V15.1H104.866V15.6H105.366ZM133.166 18.6L133.35 18.1349V18.1349L133.166 18.6ZM146.366 27L146.713 26.6401V26.6401L146.366 27ZM155.066 39.7L155.527 39.5046V39.5046L155.066 39.7ZM155.066 72L155.527 72.1954L155.528 72.1932L155.066 72ZM146.366 84.7L146.713 85.0599V85.0599L146.366 84.7ZM133.166 93.1L133.345 93.5672L133.35 93.5651L133.166 93.1ZM98.7664 96H98.2664V96.5H98.7664V96ZM98.7664 15.6V15.1H98.2664V15.6H98.7664ZM101.766 15.6H102.266V15.1H101.766V15.6ZM101.766 96V96.5H102.266V96H101.766ZM85.5664 96H85.0664V96.5H85.5664V96ZM85.5664 15.6V15.1H85.0664V15.6H85.5664ZM88.5664 15.6H89.0664V15.1H88.5664V15.6ZM88.5664 96V96.5H89.0664V96H88.5664ZM92.1664 96H91.6664V96.5H92.1664V96ZM92.1664 15.6V15.1H91.6664V15.6H92.1664ZM95.1664 15.6H95.6664V15.1H95.1664V15.6ZM95.1664 96V96.5H95.6664V96H95.1664ZM105.366 89.4H104.866V89.9H105.366V89.4ZM105.366 86.4V85.9H104.866V86.4H105.366ZM133.066 82.5L133.305 82.9396V82.9396L133.066 82.5ZM144.366 71.7L144.796 71.9554L144.798 71.9527L144.366 71.7ZM144.366 39.9L144.796 39.6446V39.6446L144.366 39.9ZM133.066 29.1L133.305 28.6604V28.6604L133.066 29.1ZM105.366 25.2H104.866V25.7H105.366V25.2ZM105.366 22.2V21.7H104.866V22.2H105.366ZM134.666 26.6L134.423 27.0368L134.427 27.0392L134.666 26.6ZM147.066 38.5L146.636 38.7547L146.638 38.7572L147.066 38.5ZM147.066 73.2L147.497 73.4547L147.066 73.2ZM134.666 85.1L134.427 84.6608L134.666 85.1ZM105.366 82.8H104.866V83.3H105.366V82.8ZM105.366 79.8V79.3H104.866V79.8H105.366ZM129.666 76.8L129.899 77.2425V77.2425L129.666 76.8ZM138.566 68.4L138.997 68.6549L138.999 68.6514L138.566 68.4ZM138.566 43.2L138.136 43.4549V43.4549L138.566 43.2ZM129.666 34.8L129.899 34.3575V34.3575L129.666 34.8ZM105.366 31.8H104.866V32.3H105.366V31.8ZM105.366 28.8V28.3H104.866V28.8H105.366ZM131.266 32.3L131.026 32.7387L131.032 32.7416L131.266 32.3ZM141.266 41.8L140.836 42.0541L140.838 42.0572L141.266 41.8ZM141.266 69.9L141.697 70.1541V70.1541L141.266 69.9ZM131.266 79.4L131.032 78.9584V78.9584L131.266 79.4ZM105.366 96H105.866V93H105.366H104.866V96H105.366ZM105.366 93V93.5H116.366V93V92.5H105.366V93ZM116.366 93V93.5C122.086 93.5 127.315 92.5914 132.046 90.7665L131.866 90.3L131.686 89.8335C127.084 91.6086 121.98 92.5 116.366 92.5V93ZM131.866 90.3L132.05 90.7651C136.84 88.8759 140.997 86.2415 144.513 82.8604L144.166 82.5L143.82 82.1396C140.403 85.4251 136.359 87.9907 131.683 89.8349L131.866 90.3ZM144.166 82.5L144.513 82.8604C148.031 79.4781 150.736 75.4865 152.629 70.8904L152.166 70.7L151.704 70.5096C149.863 74.9801 147.236 78.8552 143.82 82.1396L144.166 82.5ZM152.166 70.7L152.626 70.8961C154.589 66.2951 155.566 61.2609 155.566 55.8H155.066H154.566C154.566 61.1391 153.611 66.0382 151.706 70.5039L152.166 70.7ZM155.066 55.8H155.566C155.566 50.3391 154.589 45.3049 152.626 40.7039L152.166 40.9L151.706 41.0961C153.611 45.5618 154.566 50.4609 154.566 55.8H155.066ZM152.166 40.9L152.629 40.7096C150.736 36.1135 148.031 32.1219 144.513 28.7396L144.166 29.1L143.82 29.4604C147.236 32.7448 149.863 36.6199 151.704 41.0904L152.166 40.9ZM144.166 29.1L144.513 28.7396C140.995 25.3572 136.837 22.7553 132.044 20.9326L131.866 21.4L131.689 21.8673C136.363 23.6447 140.404 26.1762 143.82 29.4604L144.166 29.1ZM131.866 21.4L132.052 20.9358C127.319 19.0426 122.089 18.1 116.366 18.1V18.6V19.1C121.978 19.1 127.08 20.024 131.681 21.8642L131.866 21.4ZM116.366 18.6V18.1H105.366V18.6V19.1H116.366V18.6ZM105.366 18.6H105.866V15.6H105.366H104.866V18.6H105.366ZM105.366 15.6V16.1H116.466V15.6V15.1H105.366V15.6ZM116.466 15.6V16.1C122.477 16.1 127.981 17.0906 132.983 19.0651L133.166 18.6L133.35 18.1349C128.219 16.1094 122.589 15.1 116.466 15.1V15.6ZM133.166 18.6L132.983 19.0651C137.992 21.0423 142.335 23.8076 146.019 27.3599L146.366 27L146.713 26.6401C142.931 22.9924 138.474 20.1577 133.35 18.1349L133.166 18.6ZM146.366 27L146.019 27.3599C149.703 30.9123 152.565 35.0894 154.606 39.8954L155.066 39.7L155.527 39.5046C153.434 34.5773 150.496 30.2877 146.713 26.6401L146.366 27ZM155.066 39.7L154.606 39.8954C156.644 44.6938 157.666 49.9931 157.666 55.8H158.166H158.666C158.666 49.8736 157.622 44.4395 155.527 39.5046L155.066 39.7ZM158.166 55.8H157.666C157.666 61.6068 156.644 66.9403 154.605 71.8068L155.066 72L155.528 72.1932C157.622 67.193 158.666 61.7265 158.666 55.8H158.166ZM155.066 72L154.606 71.8046C152.565 76.6106 149.703 80.7877 146.019 84.3401L146.366 84.7L146.713 85.0599C150.496 81.4123 153.434 77.1227 155.527 72.1954L155.066 72ZM146.366 84.7L146.019 84.3401C142.335 87.8924 137.992 90.6577 132.983 92.6349L133.166 93.1L133.35 93.5651C138.474 91.5423 142.931 88.7076 146.713 85.0599L146.366 84.7ZM133.166 93.1L132.988 92.6329C127.985 94.542 122.479 95.5 116.466 95.5V96V96.5C122.587 96.5 128.215 95.5246 133.345 93.5671L133.166 93.1ZM116.466 96V95.5H105.366V96V96.5H116.466V96ZM98.7664 96H99.2664V15.6H98.7664H98.2664V96H98.7664ZM98.7664 15.6V16.1H101.766V15.6V15.1H98.7664V15.6ZM101.766 15.6H101.266V96H101.766H102.266V15.6H101.766ZM101.766 96V95.5H98.7664V96V96.5H101.766V96ZM85.5664 96H86.0664V15.6H85.5664H85.0664V96H85.5664ZM85.5664 15.6V16.1H88.5664V15.6V15.1H85.5664V15.6ZM88.5664 15.6H88.0664V96H88.5664H89.0664V15.6H88.5664ZM88.5664 96V95.5H85.5664V96V96.5H88.5664V96ZM92.1664 96H92.6664V15.6H92.1664H91.6664V96H92.1664ZM92.1664 15.6V16.1H95.1664V15.6V15.1H92.1664V15.6ZM95.1664 15.6H94.6664V96H95.1664H95.6664V15.6H95.1664ZM95.1664 96V95.5H92.1664V96V96.5H95.1664V96ZM105.366 89.4H105.866V86.4H105.366H104.866V89.4H105.366ZM105.366 86.4V86.9H116.366V86.4V85.9H105.366V86.4ZM116.366 86.4V86.9C122.77 86.9 128.42 85.5852 133.305 82.9396L133.066 82.5L132.828 82.0604C128.112 84.6148 122.63 85.9 116.366 85.9V86.4ZM133.066 82.5L133.305 82.9396C138.182 80.2976 142.016 76.6346 144.796 71.9554L144.366 71.7L143.937 71.4446C141.25 75.9654 137.551 79.5024 132.828 82.0604L133.066 82.5ZM144.366 71.7L144.798 71.9527C147.58 67.2021 148.966 61.8133 148.966 55.8H148.466H147.966C147.966 61.6534 146.619 66.8646 143.935 71.4473L144.366 71.7ZM148.466 55.8H148.966C148.966 49.7213 147.581 44.3309 144.796 39.6446L144.366 39.9L143.937 40.1554C146.619 44.6691 147.966 49.8787 147.966 55.8H148.466ZM144.366 39.9L144.796 39.6446C142.016 34.9654 138.182 31.3024 133.305 28.6604L133.066 29.1L132.828 29.5396C137.551 32.0976 141.25 35.6346 143.937 40.1554L144.366 39.9ZM133.066 29.1L133.305 28.6604C128.42 26.0148 122.77 24.7 116.366 24.7V25.2V25.7C122.63 25.7 128.112 26.9852 132.828 29.5396L133.066 29.1ZM116.366 25.2V24.7H105.366V25.2V25.7H116.366V25.2ZM105.366 25.2H105.866V22.2H105.366H104.866V25.2H105.366ZM105.366 22.2V22.7H116.466V22.2V21.7H105.366V22.2ZM116.466 22.2V22.7C123.26 22.7 129.241 24.1504 134.423 27.0368L134.666 26.6L134.91 26.1632C129.559 23.1829 123.406 21.7 116.466 21.7V22.2ZM134.666 26.6L134.427 27.0392C139.616 29.8635 143.683 33.7671 146.636 38.7547L147.066 38.5L147.497 38.2453C144.45 33.0995 140.25 29.0698 134.905 26.1608L134.666 26.6ZM147.066 38.5L146.638 38.7572C149.586 43.6705 151.066 49.3461 151.066 55.8H151.566H152.066C152.066 49.1872 150.547 43.3295 147.495 38.2427L147.066 38.5ZM151.566 55.8H151.066C151.066 62.2538 149.586 67.964 146.636 72.9453L147.066 73.2L147.497 73.4547C150.547 68.3027 152.066 62.4129 152.066 55.8H151.566ZM147.066 73.2L146.636 72.9453C143.683 77.9328 139.616 81.8364 134.427 84.6608L134.666 85.1L134.905 85.5392C140.25 82.6302 144.45 78.6005 147.497 73.4547L147.066 73.2ZM134.666 85.1L134.427 84.6608C129.244 87.4821 123.262 88.9 116.466 88.9V89.4V89.9C123.404 89.9 129.555 88.4512 134.905 85.5392L134.666 85.1ZM116.466 89.4V88.9H105.366V89.4V89.9H116.466V89.4ZM105.366 82.8H105.866V79.8H105.366H104.866V82.8H105.366ZM105.366 79.8V80.3H116.366V79.8V79.3H105.366V79.8ZM116.366 79.8V80.3C121.5 80.3 126.016 79.2865 129.899 77.2425L129.666 76.8L129.434 76.3575C125.717 78.3135 121.367 79.3 116.366 79.3V79.8ZM129.666 76.8L129.899 77.2425C133.779 75.2006 136.815 72.3366 138.997 68.6549L138.566 68.4L138.136 68.1451C136.051 71.6634 133.154 74.3994 129.434 76.3575L129.666 76.8ZM138.566 68.4L138.999 68.6514C141.181 64.8999 142.266 60.6112 142.266 55.8H141.766H141.266C141.266 60.4555 140.218 64.5668 138.134 68.1486L138.566 68.4ZM141.766 55.8H142.266C142.266 50.9237 141.182 46.633 138.997 42.9451L138.566 43.2L138.136 43.4549C140.217 46.967 141.266 51.0763 141.266 55.8H141.766ZM138.566 43.2L138.997 42.9451C136.815 39.2634 133.779 36.3994 129.899 34.3575L129.666 34.8L129.434 35.2425C133.154 37.2006 136.051 39.9366 138.136 43.4549L138.566 43.2ZM129.666 34.8L129.899 34.3575C126.016 32.3135 121.5 31.3 116.366 31.3V31.8V32.3C121.367 32.3 125.717 33.2865 129.434 35.2425L129.666 34.8ZM116.366 31.8V31.3H105.366V31.8V32.3H116.366V31.8ZM105.366 31.8H105.866V28.8H105.366H104.866V31.8H105.366ZM105.366 28.8V29.3H116.466V28.8V28.3H105.366V28.8ZM116.466 28.8V29.3C121.995 29.3 126.844 30.4513 131.027 32.7387L131.266 32.3L131.506 31.8613C127.156 29.482 122.137 28.3 116.466 28.3V28.8ZM131.266 32.3L131.032 32.7416C135.219 34.966 138.484 38.0687 140.836 42.0541L141.266 41.8L141.697 41.5459C139.249 37.3979 135.847 34.1673 131.501 31.8584L131.266 32.3ZM141.266 41.8L140.838 42.0572C143.185 45.9689 144.366 50.544 144.366 55.8H144.866H145.366C145.366 50.3893 144.148 45.6311 141.695 41.5427L141.266 41.8ZM144.866 55.8H144.366C144.366 61.0558 143.185 65.6658 140.836 69.6459L141.266 69.9L141.697 70.1541C144.148 66.0009 145.366 61.2109 145.366 55.8H144.866ZM141.266 69.9L140.836 69.6459C138.484 73.6313 135.219 76.7339 131.032 78.9584L131.266 79.4L131.501 79.8416C135.847 77.5327 139.249 74.302 141.697 70.1541L141.266 69.9ZM131.266 79.4L131.032 78.9584C126.848 81.181 121.998 82.3 116.466 82.3V82.8V83.3C122.135 83.3 127.151 82.1523 131.501 79.8416L131.266 79.4ZM116.466 82.8V82.3H105.366V82.8V83.3H116.466V82.8ZM186.733 82L186.469 82.4247L186.474 82.4277L186.733 82ZM181.133 75.9L180.679 76.1095L180.682 76.1166L180.686 76.1236L181.133 75.9ZM179.333 15.6V15.1H178.833V15.6H179.333ZM182.333 15.6H182.833V15.1H182.333V15.6ZM185.633 77.2L185.243 77.5135V77.5135L185.633 77.2ZM210.133 15.6V15.1H209.633V15.6H210.133ZM213.133 15.6H213.633V15.1H213.133V15.6ZM211.233 75.9L210.783 75.681L210.781 75.686L211.233 75.9ZM205.633 82L205.374 81.5722L205.369 81.5754L205.633 82ZM180.133 93.5L179.872 93.9266L179.879 93.931L180.133 93.5ZM169.733 82.5L169.289 82.7313L169.292 82.7363L169.733 82.5ZM166.133 15.6V15.1H165.633V15.6H166.133ZM169.133 15.6H169.633V15.1H169.133V15.6ZM172.333 81L171.888 81.2293L171.891 81.2349L172.333 81ZM181.633 90.9L181.37 91.3257L181.379 91.3306L181.633 90.9ZM210.733 90.9L210.99 91.3288L210.992 91.3275L210.733 90.9ZM220.033 81L219.591 80.7651L219.589 80.7707L220.033 81ZM223.333 15.6V15.1H222.833V15.6H223.333ZM226.333 15.6H226.833V15.1H226.333V15.6ZM222.633 82.5L222.192 82.2637L222.19 82.2687L222.633 82.5ZM212.333 93.5L212.589 93.9293L212.594 93.9265L212.333 93.5ZM183.433 87.7L183.171 88.1258L183.174 88.128L183.433 87.7ZM175.433 79.2L174.985 79.4237L174.991 79.4336L175.433 79.2ZM172.733 15.6V15.1H172.233V15.6H172.733ZM175.733 15.6H176.233V15.1H175.733V15.6ZM178.033 77.7L177.584 77.9198L177.59 77.9313L178.033 77.7ZM185.033 85.1L184.773 85.5271V85.5271L185.033 85.1ZM207.433 85.1L207.173 84.6729L207.169 84.6755L207.433 85.1ZM214.333 77.7L213.887 77.4726L213.886 77.4764L214.333 77.7ZM216.733 15.6V15.1H216.233V15.6H216.733ZM219.733 15.6H220.233V15.1H219.733V15.6ZM216.933 79.2L216.489 78.9698L216.487 78.973L216.933 79.2ZM208.933 87.7L208.674 87.2719L208.671 87.2742L208.933 87.7ZM196.233 84.3V83.8C192.499 83.8 189.428 83.0467 186.992 81.5723L186.733 82L186.474 82.4277C189.105 84.02 192.367 84.8 196.233 84.8V84.3ZM186.733 82L186.997 81.5754C184.607 80.0895 182.804 78.1249 181.58 75.6764L181.133 75.9L180.686 76.1236C181.995 78.7418 183.926 80.8438 186.469 82.4246L186.733 82ZM181.133 75.9L181.587 75.6905C180.42 73.1621 179.833 70.3679 179.833 67.3H179.333H178.833C178.833 70.4988 179.446 73.4379 180.679 76.1095L181.133 75.9ZM179.333 67.3H179.833V15.6H179.333H178.833V67.3H179.333ZM179.333 15.6V16.1H182.333V15.6V15.1H179.333V15.6ZM182.333 15.6H181.833V67.3H182.333H182.833V15.6H182.333ZM182.333 67.3H181.833C181.833 71.2683 182.964 74.6821 185.243 77.5135L185.633 77.2L186.022 76.8865C183.901 74.2512 182.833 71.065 182.833 67.3H182.333ZM185.633 77.2L185.243 77.5135C187.571 80.4057 191.277 81.8 196.233 81.8V81.3V80.8C191.456 80.8 188.094 79.461 186.022 76.8865L185.633 77.2ZM196.233 81.3V81.8C201.189 81.8 204.894 80.4057 207.222 77.5135L206.833 77.2L206.443 76.8865C204.371 79.461 201.01 80.8 196.233 80.8V81.3ZM206.833 77.2L207.222 77.5135C209.501 74.6821 210.633 71.2683 210.633 67.3H210.133H209.633C209.633 71.065 208.564 74.2512 206.443 76.8865L206.833 77.2ZM210.133 67.3H210.633V15.6H210.133H209.633V67.3H210.133ZM210.133 15.6V16.1H213.133V15.6V15.1H210.133V15.6ZM213.133 15.6H212.633V67.3H213.133H213.633V15.6H213.133ZM213.133 67.3H212.633C212.633 70.3639 212.014 73.1548 210.783 75.681L211.233 75.9L211.682 76.119C212.985 73.4452 213.633 70.5028 213.633 67.3H213.133ZM211.233 75.9L210.781 75.686C209.625 78.1256 207.828 80.0867 205.374 81.5723L205.633 82L205.892 82.4277C208.504 80.8467 210.44 78.7411 211.685 76.114L211.233 75.9ZM205.633 82L205.369 81.5754C203.002 83.0464 199.968 83.8 196.233 83.8V84.3V84.8C200.098 84.8 203.33 84.0202 205.897 82.4246L205.633 82ZM196.233 97.5V97C190.106 97 184.83 95.683 180.386 93.069L180.133 93.5L179.879 93.931C184.502 96.6503 189.96 98 196.233 98V97.5ZM180.133 93.5L180.394 93.0735C176.003 90.3864 172.598 86.7852 170.173 82.2637L169.733 82.5L169.292 82.7363C171.801 87.4148 175.33 91.147 179.872 93.9265L180.133 93.5ZM169.733 82.5L170.176 82.2687C167.816 77.7448 166.633 72.7583 166.633 67.3H166.133H165.633C165.633 72.9084 166.85 78.0552 169.29 82.7313L169.733 82.5ZM166.133 67.3H166.633V15.6H166.133H165.633V67.3H166.133ZM166.133 15.6V16.1H169.133V15.6V15.1H166.133V15.6ZM169.133 15.6H168.633V67.3H169.133H169.633V15.6H169.133ZM169.133 67.3H168.633C168.633 72.3737 169.716 77.0198 171.889 81.2293L172.333 81L172.777 80.7707C170.683 76.7135 169.633 72.2263 169.633 67.3H169.133ZM172.333 81L171.891 81.2349C174.133 85.4469 177.295 88.8125 181.37 91.3256L181.633 90.9L181.895 90.4744C177.97 88.0541 174.932 84.8198 172.774 80.7651L172.333 81ZM181.633 90.9L181.379 91.3306C185.536 93.7844 190.495 95 196.233 95V94.5V94C190.638 94 185.863 92.8156 181.887 90.4694L181.633 90.9ZM196.233 94.5V95C201.971 95 206.897 93.7845 210.99 91.3287L210.733 90.9L210.476 90.4713C206.568 92.8155 201.828 94 196.233 94V94.5ZM210.733 90.9L210.992 91.3275C215.136 88.8142 218.301 85.4464 220.477 81.2293L220.033 81L219.589 80.7707C217.498 84.8203 214.463 88.0525 210.474 90.4725L210.733 90.9ZM220.033 81L220.474 81.2349C222.715 77.0244 223.833 72.3762 223.833 67.3H223.333H222.833C222.833 72.2238 221.75 76.7089 219.591 80.7651L220.033 81ZM223.333 67.3H223.833V15.6H223.333H222.833V67.3H223.333ZM223.333 15.6V16.1H226.333V15.6V15.1H223.333V15.6ZM226.333 15.6H225.833V67.3H226.333H226.833V15.6H226.333ZM226.333 67.3H225.833C225.833 72.756 224.618 77.7408 222.192 82.2637L222.633 82.5L223.073 82.7363C225.581 78.0592 226.833 72.9107 226.833 67.3H226.333ZM222.633 82.5L222.19 82.2687C219.832 86.7875 216.462 90.3871 212.072 93.0735L212.333 93.5L212.594 93.9265C217.137 91.1463 220.634 87.4125 223.076 82.7313L222.633 82.5ZM212.333 93.5L212.077 93.0707C207.702 95.6824 202.428 97 196.233 97V97.5V98C202.571 98 208.03 96.6509 212.589 93.9293L212.333 93.5ZM196.233 90.9V90.4C191.305 90.4 187.132 89.3492 183.691 87.272L183.433 87.7L183.174 88.128C186.801 90.3175 191.161 91.4 196.233 91.4V90.9ZM183.433 87.7L183.695 87.2742C180.303 85.1868 177.699 82.4192 175.875 78.9664L175.433 79.2L174.991 79.4336C176.9 83.0475 179.629 85.9466 183.171 88.1258L183.433 87.7ZM175.433 79.2L175.88 78.9764C174.117 75.4511 173.233 71.5618 173.233 67.3H172.733H172.233C172.233 71.7049 173.148 75.7489 174.986 79.4236L175.433 79.2ZM172.733 67.3H173.233V15.6H172.733H172.233V67.3H172.733ZM172.733 15.6V16.1H175.733V15.6V15.1H172.733V15.6ZM175.733 15.6H175.233V67.3H175.733H176.233V15.6H175.733ZM175.733 67.3H175.233C175.233 71.1693 176.014 74.7121 177.584 77.9198L178.033 77.7L178.482 77.4802C176.985 74.4213 176.233 71.0307 176.233 67.3H175.733ZM178.033 77.7L177.59 77.9313C179.233 81.0818 181.631 83.615 184.773 85.5271L185.033 85.1L185.293 84.6729C182.301 82.8517 180.032 80.4515 178.476 77.4687L178.033 77.7ZM185.033 85.1L184.773 85.5271C187.934 87.4512 191.762 88.4 196.233 88.4V87.9V87.4C191.904 87.4 188.265 86.4822 185.293 84.6729L185.033 85.1ZM196.233 87.9V88.4C200.768 88.4 204.599 87.452 207.697 85.5245L207.433 85.1L207.169 84.6755C204.266 86.4813 200.631 87.4 196.233 87.4V87.9ZM207.433 85.1L207.693 85.5271C210.836 83.614 213.203 81.0784 214.78 77.9236L214.333 77.7L213.886 77.4764C212.396 80.4549 210.163 82.8527 207.173 84.6729L207.433 85.1ZM214.333 77.7L214.778 77.9274C216.417 74.7181 217.233 71.1726 217.233 67.3H216.733H216.233C216.233 71.0274 215.449 74.4152 213.888 77.4726L214.333 77.7ZM216.733 67.3H217.233V15.6H216.733H216.233V67.3H216.733ZM216.733 15.6V16.1H219.733V15.6V15.1H216.733V15.6ZM219.733 15.6H219.233V67.3H219.733H220.233V15.6H219.733ZM219.733 67.3H219.233C219.233 71.5589 218.316 75.4458 216.489 78.9698L216.933 79.2L217.377 79.4302C219.283 75.7542 220.233 71.7078 220.233 67.3H219.733ZM216.933 79.2L216.487 78.973C214.731 82.4197 212.131 85.1848 208.674 87.272L208.933 87.7L209.191 88.128C212.801 85.9485 215.534 83.047 217.378 79.427L216.933 79.2ZM208.933 87.7L208.671 87.2742C205.299 89.349 201.161 90.4 196.233 90.4V90.9V91.4C201.304 91.4 205.633 90.3176 209.195 88.1258L208.933 87.7ZM267.248 42.4L266.85 42.7025L267.257 43.2392L267.653 42.6932L267.248 42.4ZM265.348 39.9L264.943 39.6067L264.725 39.9072L264.95 40.2025L265.348 39.9ZM282.948 15.6V15.1H282.692L282.543 15.3067L282.948 15.6ZM286.648 15.6L287.053 15.8932L287.627 15.1H286.648V15.6ZM271.448 47.8L271.05 48.1025L271.457 48.6382L271.852 48.0939L271.448 47.8ZM269.548 45.3L269.143 45.0059L268.925 45.3066L269.15 45.6025L269.548 45.3ZM291.148 15.6V15.1H290.893L290.743 15.3059L291.148 15.6ZM294.848 15.6L295.252 15.8939L295.829 15.1H294.848V15.6ZM275.648 53.2L275.25 53.5025L275.656 54.0374L276.052 53.4945L275.648 53.2ZM273.748 50.7L273.344 50.4054L273.124 50.7061L273.35 51.0025L273.748 50.7ZM299.348 15.6V15.1H299.093L298.944 15.3054L299.348 15.6ZM303.048 15.6L303.452 15.8945L304.031 15.1H303.048V15.6ZM249.548 96H249.048V96.5H249.548V96ZM249.548 15.6V15.1H249.048V15.6H249.548ZM252.548 15.6H253.048V15.1H252.548V15.6ZM252.548 96V96.5H253.048V96H252.548ZM236.348 96H235.848V96.5H236.348V96ZM236.348 15.6V15.1H235.848V15.6H236.348ZM239.348 15.6H239.848V15.1H239.348V15.6ZM239.348 96V96.5H239.848V96H239.348ZM242.948 96H242.448V96.5H242.948V96ZM242.948 15.6V15.1H242.448V15.6H242.948ZM245.948 15.6H246.448V15.1H245.948V15.6ZM245.948 96V96.5H246.448V96H245.948ZM300.248 96L299.852 96.3056L300.002 96.5H300.248V96ZM261.248 45.5L260.85 45.1975L260.618 45.5024L260.852 45.8056L261.248 45.5ZM263.148 43L263.543 42.6945L263.145 42.1777L262.75 42.6975L263.148 43ZM304.048 96V96.5H305.065L304.444 95.6945L304.048 96ZM291.948 96L291.552 96.3057L291.702 96.5H291.948V96ZM257.248 51.1L256.844 50.805L256.622 51.1084L256.852 51.4057L257.248 51.1ZM259.148 48.5L259.544 48.1948L259.137 47.6671L258.744 48.205L259.148 48.5ZM295.748 96V96.5H296.764L296.144 95.6948L295.748 96ZM283.548 96L283.152 96.3053L283.302 96.5H283.548V96ZM253.248 56.7L252.842 56.4078L252.624 56.7102L252.852 57.0053L253.248 56.7ZM255.048 54.2L255.443 53.8943L255.034 53.3639L254.642 53.9078L255.048 54.2ZM287.348 96V96.5H288.366L287.743 95.6943L287.348 96ZM267.248 42.4L267.646 42.0975L265.746 39.5975L265.348 39.9L264.95 40.2025L266.85 42.7025L267.248 42.4ZM265.348 39.9L265.753 40.1933L283.353 15.8933L282.948 15.6L282.543 15.3067L264.943 39.6067L265.348 39.9ZM282.948 15.6V16.1H286.648V15.6V15.1H282.948V15.6ZM286.648 15.6L286.243 15.3068L266.843 42.1068L267.248 42.4L267.653 42.6932L287.053 15.8932L286.648 15.6ZM271.448 47.8L271.846 47.4975L269.946 44.9975L269.548 45.3L269.15 45.6025L271.05 48.1025L271.448 47.8ZM269.548 45.3L269.952 45.5941L291.552 15.8941L291.148 15.6L290.743 15.3059L269.143 45.0059L269.548 45.3ZM291.148 15.6V16.1H294.848V15.6V15.1H291.148V15.6ZM294.848 15.6L294.443 15.3061L271.043 47.5061L271.448 47.8L271.852 48.0939L295.252 15.8939L294.848 15.6ZM275.648 53.2L276.046 52.8975L274.146 50.3975L273.748 50.7L273.35 51.0025L275.25 53.5025L275.648 53.2ZM273.748 50.7L274.152 50.9946L299.752 15.8946L299.348 15.6L298.944 15.3054L273.344 50.4054L273.748 50.7ZM299.348 15.6V16.1H303.048V15.6V15.1H299.348V15.6ZM303.048 15.6L302.644 15.3055L275.244 52.9055L275.648 53.2L276.052 53.4945L303.452 15.8945L303.048 15.6ZM249.548 96H250.048V15.6H249.548H249.048V96H249.548ZM249.548 15.6V16.1H252.548V15.6V15.1H249.548V15.6ZM252.548 15.6H252.048V96H252.548H253.048V15.6H252.548ZM252.548 96V95.5H249.548V96V96.5H252.548V96ZM236.348 96H236.848V15.6H236.348H235.848V96H236.348ZM236.348 15.6V16.1H239.348V15.6V15.1H236.348V15.6ZM239.348 15.6H238.848V96H239.348H239.848V15.6H239.348ZM239.348 96V95.5H236.348V96V96.5H239.348V96ZM242.948 96H243.448V15.6H242.948H242.448V96H242.948ZM242.948 15.6V16.1H245.948V15.6V15.1H242.948V15.6ZM245.948 15.6H245.448V96H245.948H246.448V15.6H245.948ZM245.948 96V95.5H242.948V96V96.5H245.948V96ZM300.248 96L300.643 95.6944L261.643 45.1944L261.248 45.5L260.852 45.8056L299.852 96.3056L300.248 96ZM261.248 45.5L261.646 45.8025L263.546 43.3025L263.148 43L262.75 42.6975L260.85 45.1975L261.248 45.5ZM263.148 43L262.752 43.3055L303.652 96.3055L304.048 96L304.444 95.6945L263.543 42.6945L263.148 43ZM304.048 96V95.5H300.248V96V96.5H304.048V96ZM291.948 96L292.343 95.6943L257.643 50.7942L257.248 51.1L256.852 51.4057L291.552 96.3057L291.948 96ZM257.248 51.1L257.651 51.395L259.551 48.795L259.148 48.5L258.744 48.205L256.844 50.805L257.248 51.1ZM259.148 48.5L258.752 48.8052L295.352 96.3052L295.748 96L296.144 95.6948L259.544 48.1948L259.148 48.5ZM295.748 96V95.5H291.948V96V96.5H295.748V96ZM283.548 96L283.944 95.6947L253.644 56.3947L253.248 56.7L252.852 57.0053L283.152 96.3053L283.548 96ZM253.248 56.7L253.653 56.9922L255.453 54.4921L255.048 54.2L254.642 53.9078L252.842 56.4078L253.248 56.7ZM255.048 54.2L254.652 54.5057L286.952 96.3057L287.348 96L287.743 95.6943L255.443 53.8943L255.048 54.2ZM287.348 96V95.5H283.548V96V96.5H287.348V96ZM312.447 96H311.947V96.5H312.447V96ZM312.447 23.2727V22.7727H311.947V23.2727H312.447ZM359.748 23.2727H360.248V22.7727H359.748V23.2727ZM359.748 34.3168V34.8168H360.248V34.3168H359.748ZM325.621 34.3168V33.8168H325.121V34.3168H325.621ZM325.621 54.0611H325.121V54.5611H325.621V54.0611ZM357.298 54.0611H357.798V53.5611H357.298V54.0611ZM357.298 65.1051V65.6051H357.798V65.1051H357.298ZM325.621 65.1051V64.6051H325.121V65.1051H325.621ZM325.621 84.956H325.121V85.456H325.621V84.956ZM360.032 84.956H360.532V84.456H360.032V84.956ZM360.032 96V96.5H360.532V96H360.032ZM312.447 96H312.947V23.2727H312.447H311.947V96H312.447ZM312.447 23.2727V23.7727H359.748V23.2727V22.7727H312.447V23.2727ZM359.748 23.2727H359.248V34.3168H359.748H360.248V23.2727H359.748ZM359.748 34.3168V33.8168H325.621V34.3168V34.8168H359.748V34.3168ZM325.621 34.3168H325.121V54.0611H325.621H326.121V34.3168H325.621ZM325.621 54.0611V54.5611H357.298V54.0611V53.5611H325.621V54.0611ZM357.298 54.0611H356.798V65.1051H357.298H357.798V54.0611H357.298ZM357.298 65.1051V64.6051H325.621V65.1051V65.6051H357.298V65.1051ZM325.621 65.1051H325.121V84.956H325.621H326.121V65.1051H325.621ZM325.621 84.956V85.456H360.032V84.956V84.456H325.621V84.956ZM360.032 84.956H359.532V96H360.032H360.532V84.956H360.032ZM360.032 96V95.5H312.447V96V96.5H360.032V96ZM373.189 96H372.689V96.5H373.189V96ZM373.189 23.2727V22.7727H372.689V23.2727H373.189ZM414.524 26.1847L414.296 26.6296L414.297 26.6302L414.524 26.1847ZM423.153 34.3523L422.716 34.5946L422.718 34.5981L423.153 34.3523ZM423.118 58.6776L422.685 58.4269L422.685 58.4279L423.118 58.6776ZM414.418 66.5966L414.635 67.0471L414.637 67.046L414.418 66.5966ZM380.859 69.3665H380.359V69.8665H380.859V69.3665ZM380.859 58.429V57.929H380.359V58.429H380.859ZM406.534 57.0795L406.732 57.5386L406.737 57.5367L406.534 57.0795ZM411.151 53.0668L410.717 52.8181L410.716 52.82L411.151 53.0668ZM411.151 39.9276L410.713 40.1689L410.714 40.1713L411.151 39.9276ZM406.499 35.7372L406.287 36.1905L406.292 36.1924L406.499 35.7372ZM386.364 34.2812V33.7812H385.864V34.2812H386.364ZM386.364 96V96.5H386.864V96H386.364ZM410.76 63.0455L411.199 62.8057L411.057 62.5455H410.76V63.0455ZM428.764 96V96.5H429.607L429.203 95.7603L428.764 96ZM414.062 96L413.622 96.2364L413.763 96.5H414.062V96ZM396.378 63.0455V62.5455H395.542L395.937 63.2819L396.378 63.0455ZM373.189 96H373.689V23.2727H373.189H372.689V96H373.189ZM373.189 23.2727V23.7727H400.462V23.2727V22.7727H373.189V23.2727ZM400.462 23.2727V23.7727C405.993 23.7727 410.597 24.734 414.296 26.6296L414.524 26.1847L414.752 25.7397C410.875 23.7527 406.104 22.7727 400.462 22.7727V23.2727ZM414.524 26.1847L414.297 26.6302C418.026 28.5295 420.826 31.184 422.716 34.5946L423.153 34.3523L423.591 34.11C421.598 30.5129 418.645 27.7224 414.751 25.7391L414.524 26.1847ZM423.153 34.3523L422.718 34.5981C424.634 37.9919 425.601 41.9647 425.601 46.5327H426.101H426.601C426.601 41.8204 425.603 37.6729 423.589 34.1064L423.153 34.3523ZM426.101 46.5327H425.601C425.601 51.1241 424.623 55.0827 422.685 58.4269L423.118 58.6776L423.551 58.9282C425.591 55.4068 426.601 51.2689 426.601 46.5327H426.101ZM423.118 58.6776L422.685 58.4279C420.774 61.7432 417.952 64.3168 414.198 66.1472L414.418 66.5966L414.637 67.046C418.554 65.1359 421.532 62.4301 423.551 58.9272L423.118 58.6776ZM414.418 66.5966L414.201 66.1461C410.451 67.9516 405.819 68.8665 400.284 68.8665V69.3665V69.8665C405.924 69.8665 410.714 68.9348 414.635 67.0471L414.418 66.5966ZM400.284 69.3665V68.8665H380.859V69.3665V69.8665H400.284V69.3665ZM380.859 69.3665H381.359V58.429H380.859H380.359V69.3665H380.859ZM380.859 58.429V58.929H398.509V58.429V57.929H380.859V58.429ZM398.509 58.429V58.929C401.816 58.929 404.565 58.4744 406.732 57.5386L406.534 57.0795L406.336 56.6205C404.336 57.484 401.735 57.929 398.509 57.929V58.429ZM406.534 57.0795L406.737 57.5367C408.905 56.5759 410.531 55.1707 411.585 53.3136L411.151 53.0668L410.716 52.82C409.781 54.4667 408.33 55.7366 406.332 56.6224L406.534 57.0795ZM411.151 53.0668L411.584 53.3155C412.656 51.4469 413.178 49.178 413.178 46.5327H412.678H412.178C412.178 49.0483 411.681 51.1355 410.717 52.8181L411.151 53.0668ZM412.678 46.5327H413.178C413.178 43.8867 412.655 41.5968 411.587 39.6838L411.151 39.9276L410.714 40.1713C411.682 41.9041 412.178 44.0176 412.178 46.5327H412.678ZM411.151 39.9276L411.588 39.6862C410.514 37.7371 408.878 36.2695 406.705 35.282L406.499 35.7372L406.292 36.1924C408.286 37.0988 409.751 38.4248 410.713 40.1689L411.151 39.9276ZM406.499 35.7372L406.71 35.284C404.538 34.2722 401.772 33.7812 398.438 33.7812V34.2812V34.7812C401.684 34.7812 404.292 35.2609 406.287 36.1904L406.499 35.7372ZM398.438 34.2812V33.7812H386.364V34.2812V34.7812H398.438V34.2812ZM386.364 34.2812H385.864V96H386.364H386.864V34.2812H386.364ZM386.364 96V95.5H373.189V96V96.5H386.364V96ZM410.76 63.0455L410.321 63.2852L428.325 96.2397L428.764 96L429.203 95.7603L411.199 62.8057L410.76 63.0455ZM428.764 96V95.5H414.062V96V96.5H428.764V96ZM414.062 96L414.503 95.7636L396.818 62.809L396.378 63.0455L395.937 63.2819L413.622 96.2364L414.062 96ZM396.378 63.0455V63.5455H410.76V63.0455V62.5455H396.378V63.0455ZM438.228 96H437.728V96.5H438.228V96ZM438.228 23.2727V22.7727H437.728V23.2727H438.228ZM479.563 26.3977L479.322 26.8358L479.323 26.8365L479.563 26.3977ZM488.192 34.9915L487.751 35.2265L487.753 35.2299L488.192 34.9915ZM488.192 59.7784L488.632 60.0168V60.0168L488.192 59.7784ZM479.492 68.3366L479.729 68.7771L479.731 68.776L479.492 68.3366ZM447.248 71.4261H446.748V71.9261H447.248V71.4261ZM447.248 60.5952V60.0952H446.748V60.5952H447.248ZM471.573 58.8906L471.813 59.3296V59.3296L471.573 58.8906ZM476.19 54.2031L475.745 53.9753L475.742 53.9795L476.19 54.2031ZM476.19 40.5312L475.743 40.757L475.746 40.7613L476.19 40.5312ZM471.538 35.9503L471.302 36.3914L471.308 36.3945L471.538 35.9503ZM451.403 34.2812V33.7812H450.903V34.2812H451.403ZM451.403 96V96.5H451.903V96H451.403ZM438.228 96H438.728V23.2727H438.228H437.728V96H438.228ZM438.228 23.2727V23.7727H465.501V23.2727V22.7727H438.228V23.2727ZM465.501 23.2727V23.7727C471.028 23.7727 475.627 24.8033 479.322 26.8358L479.563 26.3977L479.804 25.9596C475.924 23.8255 471.148 22.7727 465.501 22.7727V23.2727ZM479.563 26.3977L479.323 26.8365C483.054 28.8755 485.858 31.6713 487.751 35.2265L488.192 34.9915L488.634 34.7565C486.644 31.02 483.696 28.0866 479.803 25.959L479.563 26.3977ZM488.192 34.9915L487.753 35.2299C489.674 38.7704 490.64 42.806 490.64 47.3494H491.14H491.64C491.64 42.6599 490.641 38.4569 488.632 34.7531L488.192 34.9915ZM491.14 47.3494H490.64C490.64 51.9411 489.673 56.0002 487.753 59.54L488.192 59.7784L488.632 60.0168C490.642 56.3123 491.64 52.0854 491.64 47.3494H491.14ZM488.192 59.7784L487.753 59.54C485.837 63.072 483.009 65.8572 479.254 67.8973L479.492 68.3366L479.731 68.776C483.646 66.6494 486.618 63.7291 488.632 60.0168L488.192 59.7784ZM479.492 68.3366L479.256 67.8961C475.511 69.9071 470.875 70.9261 465.323 70.9261V71.4261V71.9261C470.993 71.9261 475.803 70.8855 479.729 68.7771L479.492 68.3366ZM465.323 71.4261V70.9261H447.248V71.4261V71.9261H465.323V71.4261ZM447.248 71.4261H447.748V60.5952H447.248H446.748V71.4261H447.248ZM447.248 60.5952V61.0952H463.548V60.5952V60.0952H447.248V60.5952ZM463.548 60.5952V61.0952C466.868 61.0952 469.633 60.5182 471.813 59.3296L471.573 58.8906L471.334 58.4517C469.346 59.5357 466.761 60.0952 463.548 60.0952V60.5952ZM471.573 58.8906L471.813 59.3296C473.979 58.1478 475.594 56.513 476.637 54.4267L476.19 54.2031L475.742 53.9795C474.797 55.8706 473.334 57.3607 471.334 58.4517L471.573 58.8906ZM476.19 54.2031L476.635 54.431C477.694 52.3616 478.217 49.9968 478.217 47.3494H477.717H477.217C477.217 49.863 476.721 52.0674 475.745 53.9753L476.19 54.2031ZM477.717 47.3494H478.217C478.217 44.7022 477.694 42.3482 476.634 40.3012L476.19 40.5312L475.746 40.7613C476.721 42.6442 477.217 44.8357 477.217 47.3494H477.717ZM476.19 40.5312L476.636 40.3055C475.59 38.2394 473.96 36.6394 471.767 35.5061L471.538 35.9503L471.308 36.3945C473.329 37.4392 474.8 38.8932 475.743 40.757L476.19 40.5312ZM471.538 35.9503L471.773 35.5092C469.595 34.3456 466.819 33.7812 463.477 33.7812V34.2812V34.7812C466.716 34.7812 469.314 35.3296 471.302 36.3913L471.538 35.9503ZM463.477 34.2812V33.7812H451.403V34.2812V34.7812H463.477V34.2812ZM451.403 34.2812H450.903V96H451.403H451.903V34.2812H451.403ZM451.403 96V95.5H438.228V96V96.5H451.403V96Z" fill="#570808" mask="url(#path-1-outside-1_149_13)"/>
</g>
<defs>
<clipPath id="clip0_149_13">
<rect width="496" height="108" fill="white"/>
</clipPath>
</defs>
</svg>
